<svg width="160" height="43" viewBox="0 0 160 43" fill="none" xmlns="http://www.w3.org/2000/svg">
<path d="M5.89882 16.3111V23.6422L19.9532 23.6858V29.1317H5.89882V41.8214H0V10.8652H22.0008V16.3111H5.89882Z" fill="black"/>
<path d="M39.4351 23.8087C38.5987 23.8087 37.8145 23.8698 37.0913 24.0007C36.3681 24.1228 35.6275 24.4545 34.8782 24.9869C33.9894 25.5716 33.3272 26.3309 32.909 27.2734C32.4907 28.2073 32.2816 29.4204 32.2816 30.8953V41.6999H26.3828V18.8253H32.2816V21.0857C32.6737 20.6406 33.1529 20.1781 33.728 19.7068C34.3031 19.2355 34.9304 18.8515 35.6275 18.5722C36.2374 18.3191 36.9867 18.1271 37.8668 17.9875C38.7468 17.8478 39.2696 17.7606 39.4351 17.7344V23.8087Z" fill="black"/>
<path d="M65.8877 28.6872C66.8461 30.2058 67.2469 31.9338 67.0814 33.8626C66.8287 36.2102 65.6524 38.3136 63.5438 40.1899C61.4353 42.0576 58.5425 43.0002 54.8655 43.0002C50.9097 43.0002 47.7556 41.6998 45.4117 39.1077C43.0679 36.5157 41.97 33.8538 42.1094 31.1483H47.9211C47.9473 32.9113 48.6356 34.4037 49.9687 35.6342C51.3105 36.8648 52.9399 37.4757 54.8655 37.4757C56.6779 37.4757 58.0545 37.1354 59.0043 36.4459C59.954 35.7651 60.5639 34.9011 60.8428 33.8713C61.0693 32.9811 60.9125 32.1607 60.381 31.4189C59.8495 30.6771 59.1698 30.101 58.3334 29.6821C56.9654 29.0101 55.5364 28.565 54.0465 28.3381C52.5565 28.1112 51.0404 27.6923 49.5069 27.0814C47.4158 26.2435 45.8038 25.0915 44.6798 23.6253C43.5471 22.1591 43.0592 20.3787 43.1986 18.2841C43.3641 16.303 44.3661 14.3568 46.1872 12.4368C48.017 10.5254 50.8226 9.56543 54.6128 9.56543C58.8474 9.56543 61.8709 10.8658 63.6658 13.4579C65.4607 16.0586 66.2972 18.3714 66.1578 20.4136H60.3897C60.3635 18.93 59.893 17.6732 58.9868 16.6259C58.0807 15.5786 56.6517 15.055 54.7 15.055C52.7482 15.055 51.4064 15.4477 50.6658 16.2245C49.9252 17.0099 49.5331 17.8041 49.4721 18.6158C49.4198 19.5932 49.777 20.3874 50.5612 21.0071C51.3454 21.618 52.208 22.1067 53.1577 22.4733C54.2207 22.866 55.5713 23.2238 57.2181 23.538C58.8649 23.8609 60.5204 24.437 62.1933 25.2748C63.7007 26.0253 64.9292 27.1686 65.8964 28.6872H65.8877Z" fill="black"/>
<path d="M75.5788 32.3962C75.8315 33.3736 76.3804 34.4384 77.2343 35.5991C78.0882 36.7599 79.3603 37.3359 81.0594 37.3359C82.1747 37.3359 83.1593 37.0479 84.0044 36.4806C84.8583 35.9046 85.3898 35.442 85.6164 35.0755L91.7243 35.1191C91.1667 36.7686 90.0688 38.4268 88.422 40.1025C86.7752 41.7781 84.3355 42.616 81.103 42.616C77.8704 42.616 74.9689 41.4116 72.8254 38.9941C70.682 36.5766 69.6016 33.6791 69.6016 30.3016C69.6016 26.9241 70.6471 23.9742 72.7383 21.6265C74.8295 19.2788 77.6177 18.1094 81.103 18.1094C84.17 18.1094 86.8972 19.2352 89.2759 21.4782C91.6633 23.7298 92.6566 27.3517 92.2645 32.3525L75.5788 32.3962ZM86.1566 27.535C85.7906 26.2782 85.1807 25.2571 84.3181 24.4804C83.4555 23.6949 82.3664 23.3109 81.0594 23.3109C79.613 23.3109 78.4454 23.7386 77.5654 24.5851C76.6854 25.4404 76.0667 26.4179 75.7008 27.535H86.1566Z" fill="black"/>
<path d="M96.3164 41.7V10.7002H102.128V41.7873L96.3164 41.7Z" fill="black"/>
<path d="M107.695 41.7V10.7002H113.507V41.7873L107.695 41.7Z" fill="black"/>
<path d="M125.93 41.7V10.7002H131.872V41.7873L125.93 41.7Z" fill="#FF3232"/>
<path d="M150.467 16.2674V41.8213H144.524L144.568 16.1802H134.992V10.8564H159.999V16.2587H150.467V16.2674Z" fill="#FF3232"/>
<path d="M128.894 0L124.781 7.01685H133.015L128.894 0Z" fill="#FF3232"/>
</svg>
