<svg width="65" height="24" viewBox="0 0 65 24" fill="none" xmlns="http://www.w3.org/2000/svg">
<path d="M0 24H5.4646V9.76008L10.33 17.6924H14.9558L19.8691 9.42558V24H35.6158C40.2786 23.1019 43.7838 20.6798 44.6276 14.7536V9.28223C43.8706 3.70615 40.6746 0.735848 35.3761 0.0119462H30.0553L31.9847 5.51916H35.7236C37.5868 5.90728 38.8216 7.11672 39.151 9.50921V14.7178C39.1016 16.9727 37.686 18.0119 35.7236 18.5645H25.3697V0H19.1368L12.6429 11.8507L6.12504 0H0V24Z" fill="#1C1D1E"/>
<path d="M47.2639 24H52.8244V5.33997L58.9175 24H64.9999L57.2025 0H47.2639V24Z" fill="#24378D"/>
</svg>
