<svg width="98" height="24" viewBox="0 0 98 24" fill="none" xmlns="http://www.w3.org/2000/svg">
<g clip-path="url(#clip0_124_592)">
<mask id="mask0_124_592" style="mask-type:luminance" maskUnits="userSpaceOnUse" x="0" y="0" width="98" height="24">
<path d="M98 0H0V24H98V0Z" fill="white"/>
</mask>
<g mask="url(#mask0_124_592)">
<path d="M64.0202 3.98047C63.0408 3.98047 62.147 4.53257 61.6995 5.40866L52.2266 23.999H58.0836L64.0202 12.3576L69.9493 23.999H75.8114L66.3372 5.40866C65.8917 4.53257 64.9973 3.98047 64.0202 3.98047Z" fill="#2E1D1D"/>
<path d="M28.5516 24.0005H22.9182V5.19727H28.5516V24.0005Z" fill="#2E1D1D"/>
<path d="M5.6305 24.0005H0V5.19727H5.6305V24.0005Z" fill="#2E1D1D"/>
<path d="M52.4591 14.9364C52.4591 16.8626 52.1127 18.4108 51.4156 19.5749C50.7199 20.7421 49.8999 21.6872 48.9556 22.4102C47.6187 23.4695 45.7463 24.0005 43.3399 24.0005H33.2654V5.19727H41.0237C42.19 5.19727 43.1887 5.26024 44.0192 5.38022C44.8504 5.50327 45.6004 5.67732 46.2625 5.89623C46.9267 6.11836 47.4928 6.3643 47.9613 6.64036C48.4275 6.91641 48.8453 7.21043 49.2118 7.5315C49.8508 8.0535 50.4085 8.67164 50.8891 9.39164C51.3731 10.1028 51.7515 10.9279 52.0344 11.87C52.3182 12.8121 52.4591 13.8353 52.4591 14.9364ZM46.7361 14.6933C46.7361 13.1632 46.4449 11.972 45.8639 11.117C45.2883 10.2618 44.5905 9.69172 43.7779 9.40074C42.9652 9.11266 42.1364 8.96858 41.2947 8.96858H38.8959V20.106H41.2947C42.765 20.106 44.0399 19.752 45.1178 19.0498C46.1946 18.3388 46.7361 16.8897 46.7361 14.6933Z" fill="#2E1D1D"/>
<path d="M98.0001 24.0005H92.9906L83.3026 13.5262V24.0005H77.728V5.19727H82.7261L92.382 15.6144V5.19727H98.0001V24.0005Z" fill="#2E1D1D"/>
<path d="M11.4443 12.9142L18.0826 5.19727H11.1859L7.39951 9.59564C6.26439 10.9939 4.80695 14.4743 7.38609 17.6518L12.4661 24.0005H19.1669L11.4324 14.3423C11.0771 13.9042 11.0809 13.4212 11.4443 12.9142Z" fill="#2E1D1D"/>
<path d="M15.729 0L12.7588 3.45043H19.6778L15.729 0Z" fill="#EA5514"/>
</g>
</g>
<defs>
<clipPath id="clip0_124_592">
<rect width="98" height="24" fill="white"/>
</clipPath>
</defs>
</svg>
