<svg width="609" height="91" viewBox="0 0 609 91" fill="none" xmlns="http://www.w3.org/2000/svg">
<mask id="mask0_6_1306" style="mask-type:alpha" maskUnits="userSpaceOnUse" x="0" y="0" width="163" height="91">
<path d="M60.9648 10.3755C66.3509 1.04658 78.2795 -2.15022 87.6084 3.23584C96.9373 8.62191 100.133 20.5515 94.7471 29.8804L65.4902 80.5542C60.1042 89.8831 48.1756 93.0798 38.8467 87.6938C29.5179 82.3079 26.3214 70.3791 31.707 61.0503L60.9648 10.3755ZM126.305 10.3755C131.691 1.04656 143.62 -2.15022 152.949 3.23584C162.278 8.62196 165.474 20.5515 160.088 29.8804L130.831 80.5542C125.445 89.883 113.516 93.0797 104.188 87.6938C94.8587 82.3079 91.6621 70.3792 97.0479 61.0503L126.305 10.3755ZM20.0049 0.310059C30.7769 0.310191 39.5098 9.04291 39.5098 19.8149C39.5098 30.587 30.7769 39.3197 20.0049 39.3198C9.23277 39.3198 0.5 30.5871 0.5 19.8149C0.500004 9.04283 9.23277 0.310059 20.0049 0.310059Z" fill="#D9D9D9"/>
</mask>
<g mask="url(#mask0_6_1306)">
<rect x="0.5" y="-26.9961" width="169.69" height="144.334" fill="url(#paint0_linear_6_1306)"/>
</g>
<g clip-path="url(#clip0_6_1306)">
<path d="M177.704 2.81934H223.75C227.46 2.81934 230.915 3.32841 234.116 4.34661C237.317 5.36479 240.117 6.92844 242.518 9.03752C244.918 11.0739 246.773 13.6921 248.083 16.8921C249.465 20.0194 250.156 23.7284 250.156 28.0193C250.156 32.2376 249.537 35.8011 248.301 38.7103C247.064 41.5466 245.318 43.9103 243.063 45.8012C240.808 47.692 238.08 49.2193 234.88 50.383C231.679 51.5467 228.115 52.5285 224.187 53.3284L194.944 60.3102V88.6739H177.704V2.81934ZM233.025 28.0193C233.025 24.1648 231.861 21.2194 229.533 19.183C227.278 17.1466 224.332 16.1284 220.695 16.1284H194.944V45.9102L218.84 41.0012C223.423 40.2013 226.914 38.7465 229.315 36.6375C231.788 34.4557 233.025 31.5831 233.025 28.0193ZM264.335 2.81934H310.381C314.09 2.81934 317.546 3.32841 320.746 4.34661C323.947 5.36479 326.748 6.92844 329.148 9.03752C331.549 11.0739 333.404 13.6921 334.713 16.8921C336.095 20.0194 336.786 23.7284 336.786 28.0193C336.786 34.1284 335.477 38.8922 332.858 42.3102C330.312 45.7283 326.784 48.3465 322.274 50.1648L341.369 88.6739H323.583L306.562 54.4193L281.575 60.3102V88.6739H264.335V2.81934ZM319.655 28.0193C319.655 24.1648 318.491 21.2194 316.164 19.183C313.909 17.1466 310.962 16.1284 307.325 16.1284H281.575V45.9102L305.47 41.0012C310.053 40.2013 313.545 38.7465 315.945 36.6375C318.419 34.4557 319.655 31.5831 319.655 28.0193ZM414.441 38.1648V51.4739H369.377V75.4739H417.606V88.6739H352.137V2.81934H416.514V16.1284H369.377V38.1648H414.441ZM484.451 88.6739H471.902L448.442 34.3466V88.6739H431.202V2.81934H448.442L478.122 71.5466L507.91 2.81934H525.15V88.6739H507.91V34.3466L484.451 88.6739ZM603.791 38.1648V51.4739H558.727V75.4739H606.956V88.6739H541.487V2.81934H605.864V16.1284H558.727V38.1648H603.791Z" fill="#6A6CB8"/>
</g>
<defs>
<linearGradient id="paint0_linear_6_1306" x1="0.5" y1="45.1711" x2="170.19" y2="45.1711" gradientUnits="userSpaceOnUse">
<stop stop-color="#8BD1EB"/>
<stop offset="1" stop-color="#6864B4"/>
</linearGradient>
<clipPath id="clip0_6_1306">
<rect width="431" height="90" fill="white" transform="translate(177.704 0.310059)"/>
</clipPath>
</defs>
</svg>
