<svg width="130" height="23" viewBox="0 0 130 23" fill="none" xmlns="http://www.w3.org/2000/svg">
<path d="M118.393 22.0793V0.0292969H128.053V2.9693H121.723V9.0593H126.823V12.0593H121.723V19.1093H129.043V22.0793H118.393Z" fill="#333333"/>
<path d="M104.067 22.0793L98.757 11.7893L97.377 8.6693L96.747 11.7893L94.707 22.0793H91.377L95.937 0.0292969H96.297L102.357 11.9393L104.157 15.9293L105.957 11.9393L111.897 0.0292969H112.227L116.967 22.0793H113.667L111.447 11.7893L110.787 8.6693L109.587 11.7893L104.247 22.0793H104.067Z" fill="#333333"/>
<path d="M80.3477 22.0793V0.0292969H90.0077V2.9693H83.6777V9.0593H88.7777V12.0593H83.6777V19.1093H90.9977V22.0793H80.3477Z" fill="#333333"/>
<path d="M63.6846 22.0793V0.0292969H68.6946C69.8146 0.0292969 70.8946 0.139296 71.9346 0.359296C72.9946 0.579295 73.9346 0.949296 74.7546 1.4693C75.5746 1.9893 76.2246 2.6793 76.7046 3.5393C77.1846 4.3993 77.4246 5.4593 77.4246 6.7193C77.4246 8.1793 77.0846 9.4493 76.4046 10.5293C75.7246 11.6093 74.6946 12.4393 73.3146 13.0193L78.5646 22.0793H74.6946L70.2546 13.7393C69.9146 13.7593 69.4946 13.7793 68.9946 13.7993C68.5146 13.7993 68.1146 13.7993 67.7946 13.7993H66.9546V22.0793H63.6846ZM66.9546 11.0693H69.0846C70.1846 11.0693 71.0646 10.9293 71.7246 10.6493C72.4046 10.3693 72.9246 10.0193 73.2846 9.5993C73.6446 9.1593 73.8846 8.6893 74.0046 8.1893C74.1446 7.6693 74.2146 7.1893 74.2146 6.7493C74.2146 5.7693 73.9846 4.9993 73.5246 4.4393C73.0846 3.8593 72.4646 3.4493 71.6646 3.2093C70.8846 2.9493 69.9846 2.8193 68.9646 2.8193H66.9546V11.0693Z" fill="#333333"/>
<path d="M46.8154 22.0793V0.0292969H50.1154V9.8693L57.6754 0.0292969H61.6954L54.1054 9.7193L62.7754 22.0793H58.6654L51.9154 12.2093L50.1154 14.4293V22.0793H46.8154Z" fill="#333333"/>
<path d="M35.6362 0H35.9662L46.5862 22.08H42.7162L40.8262 17.76H30.7162L28.8262 22.08H25.0762L35.6362 0ZM35.7862 6.39L34.4662 9.39L32.0662 14.73H39.5062L37.1362 9.42L35.8462 6.39H35.7862Z" fill="#333333"/>
<path d="M12.69 22.0793L7.38 11.7893L6 8.6693L5.37 11.7893L3.33 22.0793H0L4.56 0.0292969H4.92L10.98 11.9393L12.78 15.9293L14.58 11.9393L20.52 0.0292969H20.85L25.59 22.0793H22.29L20.07 11.7893L19.41 8.6693L18.21 11.7893L12.87 22.0793H12.69Z" fill="#333333"/>
</svg>
