<svg width="170" height="22" viewBox="0 0 170 22" fill="none" xmlns="http://www.w3.org/2000/svg">
<path d="M0.165117 21.5146V0.514647H9.22512C11.5651 0.514647 13.3751 0.984647 14.6551 1.92465C15.9551 2.86465 16.6051 4.19465 16.6051 5.91465C16.6051 7.05465 16.3351 8.01465 15.7951 8.79465C15.2751 9.57465 14.5551 10.1646 13.6351 10.5646C12.7351 10.9646 11.7451 11.1646 10.6651 11.1646L11.1751 10.4446C12.5151 10.4446 13.6651 10.6546 14.6251 11.0746C15.6051 11.4746 16.3651 12.0846 16.9051 12.9046C17.4451 13.7046 17.7151 14.7046 17.7151 15.9046C17.7151 17.6846 17.0551 19.0646 15.7351 20.0446C14.4351 21.0246 12.4651 21.5146 9.82512 21.5146H0.165117ZM2.38512 19.6846H9.79512C11.6351 19.6846 13.0451 19.3746 14.0251 18.7546C15.0051 18.1146 15.4951 17.1046 15.4951 15.7246C15.4951 14.3646 15.0051 13.3746 14.0251 12.7546C13.0451 12.1146 11.6351 11.7946 9.79512 11.7946H2.14512V9.96465H9.07512C10.7551 9.96465 12.0551 9.64465 12.9751 9.00465C13.9151 8.36465 14.3851 7.41465 14.3851 6.15465C14.3851 4.87465 13.9151 3.92465 12.9751 3.30465C12.0551 2.66465 10.7551 2.34465 9.07512 2.34465H2.38512V19.6846ZM21.2823 21.5146V0.514647H29.1423C30.9223 0.514647 32.4523 0.804647 33.7323 1.38465C35.0123 1.94465 35.9923 2.76465 36.6723 3.84465C37.3723 4.90465 37.7223 6.19465 37.7223 7.71465C37.7223 9.19465 37.3723 10.4746 36.6723 11.5546C35.9923 12.6146 35.0123 13.4346 33.7323 14.0146C32.4523 14.5746 30.9223 14.8546 29.1423 14.8546H22.5123L23.5023 13.8346V21.5146H21.2823ZM35.6223 21.5146L30.2223 13.8946H32.6223L38.0523 21.5146H35.6223ZM23.5023 14.0146L22.5123 12.9646H29.0823C31.1823 12.9646 32.7723 12.5046 33.8523 11.5846C34.9523 10.6646 35.5023 9.37465 35.5023 7.71465C35.5023 6.03465 34.9523 4.73465 33.8523 3.81465C32.7723 2.89465 31.1823 2.43465 29.0823 2.43465H22.5123L23.5023 1.38465V14.0146ZM41.462 21.5146V0.514647H43.682V21.5146H41.462ZM49.0147 21.5146V0.514647H57.5647C59.8047 0.514647 61.7647 0.964647 63.4447 1.86465C65.1447 2.74465 66.4647 3.97465 67.4047 5.55465C68.3447 7.13465 68.8147 8.95465 68.8147 11.0146C68.8147 13.0746 68.3447 14.8946 67.4047 16.4746C66.4647 18.0546 65.1447 19.2946 63.4447 20.1946C61.7647 21.0746 59.8047 21.5146 57.5647 21.5146H49.0147ZM51.2347 19.5946H57.4447C59.3047 19.5946 60.9147 19.2346 62.2747 18.5146C63.6547 17.7746 64.7247 16.7646 65.4847 15.4846C66.2447 14.1846 66.6247 12.6946 66.6247 11.0146C66.6247 9.31465 66.2447 7.82465 65.4847 6.54465C64.7247 5.26465 63.6547 4.26465 62.2747 3.54465C60.9147 2.80465 59.3047 2.43465 57.4447 2.43465H51.2347V19.5946ZM68.6469 21.5146L78.2469 0.514647H80.4369L90.0369 21.5146H87.6969L78.8769 1.80465H79.7769L70.9569 21.5146H68.6469ZM72.4269 15.9046L73.0869 14.1046H85.2969L85.9569 15.9046H72.4269ZM92.0108 21.5146V0.514647H94.2308V19.5946H105.991V21.5146H92.0108ZM108.177 21.5146V0.514647H110.007L119.607 16.8946H118.647L128.157 0.514647H129.987V21.5146H127.857V3.84465H128.367L119.607 18.8446H118.557L109.737 3.84465H110.307V21.5146H108.177ZM131.969 21.5146L141.569 0.514647H143.759L153.359 21.5146H151.019L142.199 1.80465H143.099L134.279 21.5146H131.969ZM135.749 15.9046L136.409 14.1046H148.619L149.279 15.9046H135.749ZM159.113 21.5146V13.7146L159.623 15.0946L150.713 0.514647H153.083L160.913 13.3246H159.653L167.483 0.514647H169.703L160.793 15.0946L161.303 13.7146V21.5146H159.113Z" fill="black"/>
</svg>
