<svg width="141" height="140" viewBox="0 0 141 140" fill="none" xmlns="http://www.w3.org/2000/svg">
<path d="M132.25 59.3477C132.235 61.5564 132.638 62.9903 133.518 63.8896C134.396 64.7883 135.861 65.2659 138.253 65.2812H139V74.6562H138.5C136.012 74.6562 134.483 75.1374 133.566 76.0439C132.653 76.9475 132.235 78.3859 132.25 80.5908V87.5957C132.234 93.0845 130.636 96.3655 127.769 98.2324C124.957 100.063 121.03 100.453 116.564 100.469L116.062 100.471V92.5352L116.56 92.5312L117.028 92.5234C119.302 92.452 120.57 91.9563 121.301 91.1299C122.093 90.2336 122.375 88.8197 122.375 86.6562V78.1562C122.375 76.3835 122.75 74.6408 124.012 73.1748C125.215 71.7767 127.169 70.6955 130.188 70.0332V69.9355C127.169 69.2732 125.214 68.1933 124.011 66.791C122.749 65.3206 122.375 63.5689 122.375 61.7812V53.2812C122.375 51.1339 122.094 49.7289 121.303 48.8408C120.524 47.967 119.134 47.4688 116.562 47.4688H116.062V39.5332L116.561 39.5312C121.029 39.5156 124.956 39.8986 127.769 41.7256C130.636 43.5885 132.234 46.8694 132.25 52.3428V59.3477Z" fill="url(#paint0_linear_189_455)" stroke="white"/>
<path d="M92.25 87.7188H82.25V65.9639L82.2471 65.6748C82.2025 64.2469 81.7254 63.1061 80.96 62.3115C80.1446 61.4652 78.9609 60.9688 77.5 60.9688C74.6672 60.9688 72.4081 63.2258 72.4375 66.8398V87.7188H62.1875V52.7812H72V57.6953C73.7559 54.3325 77.0894 52.3438 81.3125 52.3438C85.8168 52.3438 89.3189 54.5784 90.751 58.2246C92.4662 54.6212 96.3408 52.3438 101.125 52.3438C104.378 52.3438 107.189 53.4225 109.185 55.501C111.179 57.5784 112.312 60.6038 112.312 64.4062V87.7188H102.062V66.2148L102.059 65.877C102.009 64.2185 101.486 63.0295 100.701 62.2441C99.8614 61.4043 98.6635 60.9688 97.25 60.9688C95.6376 60.9688 94.3974 61.524 93.5596 62.4551C92.7163 63.3924 92.2352 64.7622 92.25 66.4648V87.7188Z" fill="url(#paint1_linear_189_455)" stroke="white"/>
<path d="M58.6104 41.4688L58.416 42.1133L53.041 59.9258L52.9336 60.2812H45.3418L45.4453 59.6953L48.5703 41.8828L48.6426 41.4688H58.6104Z" fill="url(#paint2_linear_189_455)" stroke="white"/>
<path d="M40.1875 41.4688V87.7188H29.8125V41.4688H40.1875Z" fill="url(#paint3_linear_189_455)" stroke="white"/>
<path d="M25.75 100.471L25.248 100.469C20.7821 100.453 16.8553 100.063 14.0439 98.2324C11.1766 96.3655 9.57842 93.0845 9.5625 87.5957V80.5908L9.56055 80.1865C9.52393 78.2082 9.10248 76.891 8.24609 76.0439C7.32938 75.1374 5.80075 74.6562 3.3125 74.6562H2.8125V65.2812H3.55957C5.95187 65.2659 7.41633 64.7883 8.29492 63.8896C9.17404 62.9903 9.57784 61.5564 9.5625 59.3477V52.3428L9.56836 51.8359C9.67928 46.6657 11.266 43.5303 14.0439 41.7256C16.8563 39.8986 20.7839 39.5156 25.252 39.5312L25.75 39.5332V47.4688H25.25C22.6788 47.4688 21.2883 47.967 20.5098 48.8408C19.7186 49.7289 19.4375 51.1339 19.4375 53.2812V61.7812C19.4375 63.5689 19.0632 65.3206 17.8018 66.791C16.5986 68.1933 14.6435 69.2732 11.625 69.9355V70.0332C14.6437 70.6955 16.5977 71.7767 17.8008 73.1748C19.0621 74.6408 19.4374 76.3835 19.4375 78.1562V86.6562C19.4375 88.8197 19.7192 90.2336 20.5117 91.1299C21.2913 92.0114 22.6819 92.5158 25.2529 92.5312L25.75 92.5352V100.471Z" fill="url(#paint4_linear_189_455)" stroke="white"/>
<defs>
<linearGradient id="paint0_linear_189_455" x1="1.40625" y1="64.2192" x2="140.406" y2="64.2192" gradientUnits="userSpaceOnUse">
<stop stop-color="#87D3FF"/>
<stop offset="1" stop-color="#E684FD"/>
</linearGradient>
<linearGradient id="paint1_linear_189_455" x1="1.40625" y1="64.2187" x2="140.406" y2="64.2187" gradientUnits="userSpaceOnUse">
<stop stop-color="#87D3FF"/>
<stop offset="1" stop-color="#E684FD"/>
</linearGradient>
<linearGradient id="paint2_linear_189_455" x1="1.40625" y1="64.2188" x2="140.406" y2="64.2188" gradientUnits="userSpaceOnUse">
<stop stop-color="#87D3FF"/>
<stop offset="1" stop-color="#E684FD"/>
</linearGradient>
<linearGradient id="paint3_linear_189_455" x1="1.40625" y1="64.2188" x2="140.406" y2="64.2188" gradientUnits="userSpaceOnUse">
<stop stop-color="#87D3FF"/>
<stop offset="1" stop-color="#E684FD"/>
</linearGradient>
<linearGradient id="paint4_linear_189_455" x1="1.40625" y1="64.2192" x2="140.406" y2="64.2192" gradientUnits="userSpaceOnUse">
<stop stop-color="#87D3FF"/>
<stop offset="1" stop-color="#E684FD"/>
</linearGradient>
</defs>
</svg>
