<svg width="744" height="100" viewBox="0 0 744 100" fill="none" xmlns="http://www.w3.org/2000/svg">
<path d="M30.2802 77.5488L30.4461 77.2771L31.0542 76.2403L32.3358 76.8897C32.4549 76.9485 32.5216 77.0941 32.5457 77.2791C32.5763 77.83 32.1537 78.5994 31.5474 78.2315C31.0786 78.0032 30.7895 77.8282 30.2802 77.5488ZM28.9342 77.2791L28.6007 77.8635C29.488 78.4144 30.4461 78.8809 31.3636 79.3668C32.4449 79.9512 33.9749 78.5385 33.8596 77.2812C33.8435 77.055 33.7767 76.8541 33.6432 76.6418L35.8505 75.0753C35.44 74.8906 35.1168 74.7194 34.6257 74.5185L32.6813 75.8938L31.6162 75.3429L32.7522 73.4994C32.3134 73.2279 32.0467 73.0665 31.5353 72.7732L28.9342 77.2791ZM58.1917 18.207L60.2046 12.6012C60.5989 12.7429 61.0151 12.8471 61.4132 13.0203L59.4588 18.5966C58.9254 18.4195 58.6748 18.3447 58.1917 18.207ZM50.1335 12.9121L49.6666 14.0474L49.1837 15.2772L48.7693 14.0474L48.3671 12.8412L50.1335 12.9121ZM50.9319 14.0474L52.2456 10.9444C51.8171 10.9208 51.413 10.8795 51.031 10.8362L50.6246 11.8358L47.9871 11.7709L47.6839 10.7182C47.2655 10.7496 46.8714 10.7634 46.4491 10.7634L47.5951 14.0474L48.3994 16.5424L48.4418 16.6191L49.7798 16.684L49.8465 16.5227L50.9319 14.0474ZM57.545 79.5182L58.9092 79.0973C59.2771 78.9909 59.7723 79.5635 59.7723 80.0497C59.7723 80.2897 59.6914 80.4882 59.3618 80.5691C58.8586 80.7482 58.5152 80.8444 57.9673 80.9782L57.6824 80.0497L57.545 79.5182ZM56.7122 76.4194C56.2232 76.5629 55.8615 76.6141 55.3257 76.7735L56.3182 80.0497L57.0377 82.3853C58.0805 82.1412 59.0689 81.8144 60.0593 81.4959C60.6231 81.3306 60.9221 80.7106 60.9809 80.0476C61.0151 79.1603 60.5625 78.1882 59.6347 77.9876L59.9926 75.3412C59.56 75.5082 59.2406 75.6382 58.7575 75.8271L58.4422 78.1332L57.2801 78.4853L56.7143 76.4153L56.7122 76.4194ZM38.199 16.869C38.1566 17.0421 38.0919 17.172 37.8796 17.2586L36.3537 17.8194L36.0102 16.867L35.8867 16.5207L35.8767 16.4971L37.2753 16.0032C37.6473 15.8301 38.019 16.1646 38.1525 16.5227C38.199 16.6191 38.2392 16.749 38.199 16.869ZM39.3388 16.869V16.5443C39.2479 15.7533 38.6942 14.9525 37.807 14.8561L38.0069 12.0975C37.5946 12.1801 37.1235 12.3179 36.6851 12.5048L36.6407 15.0981L35.442 15.6018L34.4681 13.3017C34.0758 13.4256 33.6776 13.5555 33.2956 13.7365L34.5266 16.5246L34.676 16.8709L35.6767 19.1711L38.4072 18.146C39.0153 17.9374 39.2903 17.4022 39.3388 16.869ZM56.7466 17.7111C54.976 17.3353 53.6098 17.0166 51.8577 16.7509L52.0174 15.7533C52.664 15.8616 53.2601 15.9403 53.9474 16.0131L54.8325 11.2278L56.1382 11.4659L55.0813 16.2492C55.7482 16.4007 56.3708 16.5739 57.0377 16.7175L56.7466 17.7111ZM63.402 73.6921L64.7198 76.1615L68.2689 77.7712C67.8951 78.0309 67.4887 78.2059 67.1209 78.4518L64.6712 77.3618L64.2228 79.955C63.7073 80.1815 63.4 80.2935 62.8706 80.4903L63.5779 76.7321L62.2622 74.3003L63.402 73.6921ZM76.7273 72.1732C76.1653 72.85 75.2316 72.7518 74.967 72.2853L70.8359 68.2338C70.2295 67.63 70.2859 66.7268 70.9106 66.2879C77.1496 59.5588 79.763 51.1923 77.7115 40.8171C77.6751 40.15 78.1118 39.6147 78.6555 39.4515L84.3731 37.8321C85.133 37.6215 85.6203 38.0762 85.7838 38.7097C88.7204 51.4697 84.6946 64.0156 76.7273 72.1732ZM83.3424 34.8532L77.6124 36.7618C77.3134 36.8759 76.5373 36.8759 76.1309 35.8862C71.5066 25.1055 60.7504 17.7151 48.2944 17.7151C35.8382 17.7151 24.8697 25.2806 20.4455 36.0515C20.1161 36.8759 19.3137 36.8759 19.0085 36.7618L13.3191 34.8532C12.7027 34.6406 12.3288 34.1073 12.6562 33.3438C18.2364 19.4525 32.1417 9.65368 48.2944 9.65368C64.4472 9.65368 78.4047 19.5174 84.0094 33.395C84.3084 34.1212 83.9588 34.6406 83.3424 34.8532ZM12.3853 37.8341L18.095 39.4535C18.6285 39.6147 19.0671 40.1521 19.0247 40.8191C16.9692 51.1785 19.5785 59.5606 25.8136 66.29C26.4421 66.7288 26.5068 67.6318 25.9086 68.2359L21.7592 72.3029C21.357 72.7556 20.6234 72.7556 19.9948 72.1318C12.0417 63.9721 8.02379 51.4738 10.9706 38.6938C11.1343 38.08 11.6335 37.6235 12.3853 37.8341ZM69.6413 63.7103C69.6575 63.9565 69.5078 64.2653 69.1482 64.6056C64.5783 69.3221 59.8855 71.9509 53.4521 73.4306C53.0925 73.5268 52.6661 73.6174 52.3932 73.3656C52.1021 73.1512 52.0212 72.7162 52.0818 72.0688L53.1369 57.5694C53.1692 57.0185 53.426 56.5797 53.8038 56.3535C54.2182 56.1388 54.7093 56.1765 55.2227 56.4182L68.6347 62.7226C69.0673 62.9215 69.5543 63.1456 69.6434 63.5844C69.6434 63.6159 69.6575 63.6473 69.6413 63.7103ZM72.3577 37.8047C72.7579 37.5488 73.2208 37.2518 73.6389 37.3835C73.9201 37.4779 74.1747 37.7712 74.3241 38.3259C76.2059 44.5182 76.2059 49.805 74.3241 55.9323C74.2109 56.32 74.0312 56.7094 73.6916 56.8571C73.366 56.9694 72.9417 56.8373 72.3436 56.4362L60.0411 48.2979C59.5662 47.9891 59.3236 47.5659 59.3236 47.1271C59.3236 46.6885 59.5662 46.2556 60.0411 45.9623L72.3577 37.8047ZM52.3567 20.9499C52.579 20.7787 52.9569 20.7236 53.5289 20.8771C59.9299 22.3587 64.6189 24.9992 69.1946 29.6685C69.4614 29.9891 69.7625 30.3 69.6796 30.6444C69.5949 30.9926 69.2958 31.2897 68.6753 31.5771L55.261 37.905C54.7499 38.1471 54.2605 38.1471 53.8462 37.9365C53.4563 37.6924 53.2136 37.2832 53.1754 36.7047L52.0921 22.2564C52.0859 21.7841 52.0232 21.2411 52.3567 20.9499ZM48.2982 37.6944C53.5956 37.6944 57.9047 41.8794 57.9047 47.0347C57.9047 52.19 53.5977 56.3732 48.2982 56.4047C43.007 56.4047 38.7021 52.19 38.7021 47.0347C38.7021 41.8794 43.0091 37.6944 48.2982 37.6944ZM27.2001 30.4103C27.2001 30.1582 27.3718 29.8473 27.6932 29.5247C32.3155 24.8005 36.9821 22.1757 43.3931 20.7059C43.8095 20.5859 44.2098 20.5209 44.4927 20.7491C44.7838 20.9518 44.8685 21.3847 44.82 22.0793C44.82 22.0871 43.7266 36.5747 43.7266 36.5747C43.6802 37.1121 43.4699 37.5468 43.0758 37.7594C42.6756 37.9856 42.1766 37.9856 41.6428 37.7456L28.2571 31.4059C27.7882 31.1894 27.289 30.9512 27.2142 30.5262C27.2142 30.4968 27.2001 30.4435 27.2001 30.4103ZM26.9979 63.4879C27.0586 63.0356 27.5679 62.825 28.0206 62.6123L41.4105 56.2885C41.944 56.0288 42.4392 56.0288 42.8456 56.2412C43.2193 56.4832 43.4678 56.8906 43.5002 57.4553L44.5794 71.9153C44.6403 72.6197 44.5412 73.0212 44.2783 73.2356C43.9954 73.4756 43.5772 73.4109 43.177 73.3321C36.7518 71.8347 32.0832 69.1921 27.4648 64.5073C27.0909 64.0862 26.9232 63.7615 26.9979 63.4841M24.3119 56.3515C23.8773 56.625 23.4105 56.9359 23.0285 56.7706C22.7152 56.6741 22.4929 56.3515 22.3292 55.8497C20.4657 49.6241 20.4657 44.3547 22.3292 38.2235C22.4565 37.8203 22.594 37.4171 22.9719 37.3165C23.2771 37.1888 23.7258 37.3165 24.3099 37.7082L36.6042 45.8641C37.0609 46.1571 37.3359 46.5782 37.3359 47.0129C37.3359 47.4815 37.0609 47.875 36.6042 48.1976L24.3119 56.3515ZM24.0431 74.4459L28.0206 70.1465C28.5683 69.5679 29.1868 69.6329 29.987 70.2488C34.9995 74.0759 41.4429 76.3444 48.2965 76.3444C55.1498 76.3444 61.6032 74.0876 66.6683 70.2488C67.4605 69.6782 68.0607 69.5679 68.6347 70.1465L72.6103 74.4459C73.0549 74.92 73.0549 75.5791 72.1898 76.2815C65.5385 81.3365 57.3165 84.4532 48.2803 84.4532C39.2438 84.4532 30.9554 81.3365 24.419 76.2618C23.5621 75.5812 23.6005 74.92 24.0431 74.4459ZM96.6656 46.9973C96.6656 46.4465 96.6412 45.8956 96.5786 45.4568L96.5624 45.3426L96.433 45.2756C94.3777 44.0794 91.7199 43.3985 89.0559 43.3335C88.9895 43.0088 88.7063 40.6576 88.656 40.3329C91.1376 39.6482 93.5449 38.3221 95.2305 36.6318L95.2973 36.5218V36.4094C95.1638 35.4985 94.8303 34.2647 94.4545 33.4521L94.4118 33.3303L94.2927 33.3124C91.9663 32.6612 89.2197 32.6829 86.6792 33.2909C86.5581 32.9859 85.622 30.8115 85.5291 30.4909C87.7502 29.1273 89.7191 27.2482 90.8203 25.2353L90.8812 25.1193L90.8489 25.0071C90.501 24.2102 89.8523 23.0474 89.2662 22.3528L89.2035 22.2504H89.0559C86.6813 22.2327 84.0255 22.9135 81.7112 24.163C81.4992 23.8895 79.9529 21.9081 79.7468 21.6484C81.5659 19.8047 82.9501 17.4849 83.51 15.1965L83.5486 15.0844L83.4756 14.9919C82.9484 14.2914 81.9762 13.3627 81.2666 12.8117L81.1839 12.7468L81.0101 12.7724C78.724 13.3627 76.305 14.7184 74.4273 16.4794C74.1503 16.2728 72.2324 14.8148 71.9513 14.6003C73.1702 12.4241 73.916 9.90162 73.916 7.62703V7.31615L73.7825 7.22956C73.069 6.67273 71.8948 6.0175 71.0541 5.67906L70.9711 5.63973L70.8359 5.69679C68.7721 6.85965 66.8036 8.7525 65.4576 10.9464C65.1282 10.8047 62.7898 9.82879 62.4725 9.69106C62.7877 8.48688 62.9839 7.19809 63.02 5.95847C63.02 4.68344 62.7898 3.41826 62.4725 2.26917L62.4563 2.14915L62.331 2.08421C61.5509 1.76545 60.2331 1.45457 59.3153 1.29716L59.1759 1.27945L59.0951 1.37193C57.3268 3.01491 55.9644 5.34653 55.253 7.78247C54.9378 7.77459 52.5226 7.446 52.1729 7.385C52.1344 4.82118 51.413 2.22588 50.1638 0.216932L50.095 0.112648L49.9577 0.0929704C49.1128 -0.0309901 47.7669 -0.0309901 46.8532 0.0929704L46.742 0.112648L46.6612 0.216932C45.4446 2.22785 44.7212 4.82118 44.6706 7.385C44.3048 7.41453 41.754 7.77459 41.4043 7.78247C40.7071 5.36423 39.3388 3.04835 37.6108 1.38373L37.5179 1.29716L37.3782 1.31881C36.4386 1.45457 35.1874 1.80481 34.3549 2.14128L34.2558 2.1944L34.2152 2.29081C33.8617 3.43794 33.6797 4.71691 33.6797 5.98997C33.6797 7.26303 33.8617 8.48688 34.189 9.69106C33.8638 9.83076 31.6565 10.7005 31.3392 10.8382C29.9832 8.6187 28.0166 6.6865 25.9328 5.56494L25.8217 5.50788L25.6903 5.54332C24.8333 5.91323 23.6955 6.54482 22.9679 7.08003L22.8769 7.17053V7.41256C22.8769 9.71665 23.5964 12.251 24.8313 14.4704C24.5544 14.6771 22.499 16.2 22.218 16.4026C20.3343 14.6338 17.9393 13.3017 15.6252 12.7212L15.4978 12.6878L15.3725 12.7704C14.6631 13.3292 13.7577 14.2206 13.1817 14.923L13.1069 15.0489L13.1332 15.1689C13.7597 17.4475 15.1401 19.7634 16.947 21.5677C16.7429 21.8392 15.1825 23.8049 14.9623 24.1099C12.6683 22.8447 9.99033 22.1324 7.61756 22.1836H7.4882L7.40533 22.2603C6.85156 22.9745 6.18661 24.1276 5.8329 24.9264L5.77632 25.0524L5.8329 25.1527C7.02739 27.1951 8.98381 29.086 11.2151 30.3985C11.0696 30.7229 10.1156 32.915 9.95798 33.22C7.42353 32.6041 4.65865 32.5903 2.33842 33.22L2.2212 33.2515L2.15854 33.3538C1.84123 34.1153 1.49562 35.3982 1.35818 36.3053L1.32787 36.4488L1.41073 36.5609C3.0943 38.2315 5.47316 39.5479 8.0157 40.2897C7.98741 40.6459 7.61553 43.1271 7.57107 43.4694C4.93151 43.5029 2.26162 44.1697 0.189984 45.3682L0.0848866 45.4329L0.0747808 45.5785C0.0141477 45.9859 0 46.5371 0 47.1018C0 47.6665 0.0141477 48.1741 0.0747808 48.6265L0.0848866 48.7565L0.189984 48.8215C2.26162 50.0059 4.93351 50.7023 7.57107 50.7338C7.63373 51.0762 7.94901 53.4906 7.98741 53.8288C5.47516 54.5274 3.07813 55.8576 1.37637 57.5282L1.30563 57.6088L1.32787 57.7385C1.44105 58.6791 1.79676 59.9109 2.15854 60.69L2.1929 60.8041L2.32023 60.8356C4.60812 61.4968 7.3831 61.4829 9.93172 60.8671C10.0752 61.1582 10.9988 63.3482 11.1464 63.6888C8.89895 65.0032 6.92026 66.8979 5.746 68.9344L5.68942 69.0662L5.746 69.1823C6.11183 70.0009 6.77878 71.1085 7.30226 71.7994L7.3831 71.9056H7.52457C9.93375 71.9409 12.5935 71.2288 14.8774 69.9832C15.0916 70.2429 16.658 72.2953 16.8621 72.5726C15.0472 74.4065 13.6748 76.7223 13.0826 79.0088L13.0604 79.105L13.1069 79.2015C13.6869 79.9159 14.649 80.8406 15.3584 81.3738L15.4655 81.4388L15.5747 81.4271C17.9393 80.8385 20.3243 79.4712 22.1796 77.71C22.4525 77.9185 24.3058 79.3138 24.5888 79.5144C23.3074 81.6985 22.5899 84.2288 22.5899 86.4935V86.8379L22.7112 86.9068C23.4064 87.4459 24.5888 88.1012 25.4275 88.4318L25.5185 88.4968L25.6559 88.4318C27.7276 87.2923 29.68 85.3838 31.0401 83.1918C31.3677 83.3079 33.7808 84.3409 34.1123 84.4747C33.795 85.6771 33.595 86.9482 33.615 88.2053C33.615 89.4941 33.7788 90.7338 34.1325 91.875L34.1487 92.0088L34.2719 92.0482C35.0562 92.3629 36.3537 92.7074 37.2773 92.8432L37.4147 92.8568L37.5199 92.7762C39.25 91.1332 40.6183 88.7976 41.3438 86.3362C41.7055 86.3676 44.2421 86.6823 44.5815 86.7473C44.6362 89.2818 45.3475 91.875 46.5985 93.89L46.647 93.9923L46.7805 94.0297C47.688 94.1379 49.0281 94.1379 49.9112 94.0297L50.0286 93.9923L50.1012 93.89C51.3522 91.875 52.0818 89.2818 52.0818 86.7671C52.4599 86.6823 54.9419 86.3676 55.2954 86.3362C56.0332 88.7997 57.3974 91.1235 59.1377 92.7547L59.2183 92.8432L59.3315 92.8097C60.2755 92.7094 61.5547 92.3629 62.3754 92.0088L62.4745 91.9735L62.5148 91.8356C62.8745 90.7024 63.0424 89.4765 63.0424 88.2035C63.02 86.9344 62.8321 85.6632 62.5148 84.4432C62.8321 84.3135 65.2415 83.3356 65.5788 83.1918C66.9229 85.3838 68.8388 87.2747 70.9329 88.4318L71.0541 88.4968L71.1834 88.4318C72.006 88.0953 73.1681 87.4459 73.8816 86.895L73.9848 86.8379V86.5191C73.9848 84.2071 73.2511 81.6788 72.008 79.5165C72.2809 79.3156 74.2697 77.7985 74.5688 77.5703C76.4464 79.3529 78.8314 80.7088 81.1819 81.2676L81.2869 81.3285L81.396 81.2144C82.0973 80.7106 83.0554 79.7447 83.5971 79.0538L83.6921 78.9459L83.6556 78.8318C83.0554 76.5432 81.6406 74.2135 79.8277 72.4074C80.0418 72.1241 81.5395 70.1976 81.7738 69.9203C84.1164 71.1521 86.756 71.8447 89.153 71.8012H89.2641L89.3409 71.705C89.9272 70.9729 90.596 69.8574 90.9136 69.0779L90.9962 68.9365L90.9136 68.8182C89.727 66.8035 87.7664 64.9223 85.525 63.5923C85.6667 63.2676 86.5701 61.0776 86.7481 60.755C89.2621 61.3865 92.029 61.4024 94.3271 60.755L94.4604 60.7394L94.5109 60.6094C94.8303 59.8303 95.2061 58.5671 95.3296 57.6424L95.3479 57.53L95.2488 57.4473C93.5711 55.7473 91.1679 54.4173 88.6519 53.7188C88.7024 53.3782 89.0156 50.9797 89.0783 50.6394C91.7279 50.5921 94.3736 49.9074 96.4289 48.7112L96.5583 48.6462L96.5744 48.5165C96.6371 48.0776 96.6615 47.5562 96.6615 46.9915M69.5866 24.7906L72.103 22.1501L67.8728 23.3641C67.5231 23.0946 67.2888 23.008 66.9835 22.7483L70.6518 17.9354C70.9711 18.1676 71.2967 18.4687 71.5875 18.7028L69.3564 21.6011L73.6269 20.3497C73.916 20.5957 74.3344 20.877 74.6253 21.2292L70.3689 25.6092C70.1383 25.3751 69.8819 25.0543 69.5866 24.7906ZM66.6621 17.7544C66.6621 18.1007 66.5712 18.4214 66.3995 18.7264C65.8943 19.6335 64.6977 19.9306 63.762 19.4111C63.1071 19.0708 62.7736 18.4195 62.7736 17.7524C62.7877 17.4475 62.8706 17.1031 63.0586 16.8119C63.1071 16.7155 63.1738 16.6171 63.2688 16.5207C63.8487 15.8439 64.8836 15.6845 65.6737 16.1311C65.8943 16.2472 66.0698 16.3771 66.2075 16.5207C66.5004 16.867 66.6621 17.3334 66.6621 17.7544ZM67.3535 19.2164C67.6081 18.7914 67.7375 18.2719 67.7575 17.7524C67.7575 17.3392 67.6667 16.928 67.4929 16.5424C67.21 16.0032 66.7936 15.5034 66.2095 15.1768C64.7927 14.3661 62.9453 14.8522 62.0864 16.2689C62.0581 16.3594 62.0158 16.442 61.9611 16.5424C61.7894 16.928 61.7044 17.3392 61.6658 17.7524C61.7044 18.7992 62.2278 19.7634 63.1938 20.3025C64.6389 21.0954 66.5024 20.6271 67.3535 19.2164ZM73.7157 27.0967L74.4273 25.987L75.082 24.8851L75.9715 25.987L76.2018 26.2683L73.7157 27.0967ZM73.0185 28.4504L79.0757 26.5045C78.9302 26.3313 78.819 26.166 78.6917 25.985C78.5805 25.8551 78.4594 25.7253 78.3764 25.5502L77.3113 25.9201L75.6622 23.9092L76.2644 22.9923C76.018 22.7187 75.7471 22.4177 75.4298 22.1265L73.0326 25.985L72.1454 27.4116L73.0226 28.4485L73.0185 28.4504ZM79.7245 29.3142L75.2802 31.6971L74.7144 30.7053L80.0418 27.8011L82.0973 31.39L81.1819 31.8624L79.7245 29.3142ZM44.5735 16.8099L44.1348 13.2013L42.3542 17.1543C41.9381 17.233 41.6793 17.3373 41.2549 17.3983L39.8643 11.5761C40.2969 11.46 40.7071 11.4167 41.1497 11.3459L41.9037 14.9191L43.7063 10.9425C44.1148 10.8776 44.5735 10.7477 45.0526 10.7615L45.7195 16.7785C45.3719 16.8001 44.9514 16.747 44.5735 16.8099ZM44.3733 82.1471L44.907 77.3206L46.2065 77.4503L45.6992 82.2376L47.6678 82.3635L47.5989 83.4379C45.3881 83.3079 44.4886 83.2332 42.3098 82.9144L42.4574 81.8912L44.3733 82.1471ZM50.4003 79.5144C51.0634 79.4809 51.6757 79.4179 52.2961 79.3197L51.9706 80.5632L51.5666 81.8282L50.9502 80.5632L50.4003 79.5144ZM49.3919 77.4994C48.8864 77.5053 48.6541 77.5053 48.153 77.5053L49.6666 80.565L51.0328 83.3356L52.3911 83.1918L53.0984 80.565L54.0888 77.0273C53.6301 77.1121 53.2725 77.1768 52.8458 77.1944L52.4943 78.3162C51.5989 78.4459 50.7843 78.4853 49.9597 78.5209L49.3919 77.4994ZM36.7883 78.9715C36.873 77.9206 37.827 77.1494 38.8639 77.2456C39.8866 77.3421 40.6524 78.1332 40.6524 79.1385C40.6847 79.1859 40.6524 79.2506 40.6524 79.3156C40.5677 80.3703 39.6299 81.1121 38.5545 81.0079C37.5217 80.9388 36.7498 80.1441 36.7883 79.1385V78.9715ZM35.6785 78.8671V79.1385C35.6482 80.6635 36.8489 81.915 38.4192 82.0447C40.0948 82.2062 41.5802 81.0079 41.7158 79.3806V79.1365C41.7158 77.6135 40.5374 76.315 38.9285 76.1694C37.3097 76.0356 35.8202 77.22 35.6785 78.8671ZM48.4015 41.3818C51.5645 41.3818 54.1597 43.91 54.1597 46.9894C54.1597 49.5512 52.3306 51.7709 49.8142 52.3868C49.7798 52.6326 49.7151 53.7994 49.7151 53.7994H46.8129C46.8129 53.7994 46.7461 52.5341 46.7179 52.2744C44.3086 51.5623 42.6838 49.4215 42.6838 46.9894C42.6838 43.91 45.2787 41.3818 48.4015 41.3818ZM48.2944 38.6035C43.5266 38.6035 39.642 42.4009 39.642 47.0209C39.642 51.6409 43.5266 55.4659 48.2944 55.4659C53.0622 55.4659 56.9407 51.6724 56.9407 47.0209C56.9407 42.3694 53.0722 38.6035 48.2944 38.6035ZM31.2524 20.2395C32.079 19.7988 32.8813 19.3462 33.7808 18.9291L34.3225 19.8008C33.0795 20.4324 31.8991 21.1486 30.8522 21.8609L27.4042 16.9319C28.7139 16.0898 29.9044 15.3874 31.2504 14.6318L31.8 15.5034L29.0211 17.1051L29.9567 18.3781L31.8 17.2999L32.3378 18.142C31.7497 18.4667 31.133 18.8228 30.4843 19.2124L31.2524 20.2395ZM24.3584 27.5454L21.5248 25.1547L22.9699 29.2395C22.7132 29.5935 22.5919 29.8356 22.3272 30.1624L17.2481 26.8055C17.4765 26.4769 17.7575 26.1719 17.9979 25.8276L21.0518 27.8897L19.6189 23.7714C19.8634 23.4979 20.1161 23.0808 20.4657 22.8132L25.1648 26.7268C24.9041 26.9964 24.5908 27.2423 24.3584 27.5454ZM21.0074 32.2894L15.7727 29.3201C15.9627 28.964 16.1689 28.5528 16.3993 28.2045L21.6339 31.1794C21.3793 31.6341 21.2297 31.8682 21.0074 32.2894ZM27.4648 23.0296L24.2391 19.3108L23.2407 20.153L26.5715 23.7695C26.044 24.2436 25.6438 24.6667 25.1284 25.1133L25.8722 25.8453C27.1435 24.6667 28.2591 23.7695 29.6577 22.6814L29.013 21.8707C28.5016 22.2603 27.9802 22.6401 27.4648 23.0296Z" fill="#E3BE1B"/>
<path d="M382.175 22.7732C376.682 23.0928 371.259 26.1487 367.912 28.4601V25.1859C367.912 24.0595 366.954 23.163 365.822 23.163H357.491C356.358 23.163 355.429 24.0595 355.429 25.1859V74.0638C355.429 75.1708 356.358 76.0596 357.491 76.0596H365.822C366.954 76.0596 367.912 75.167 367.912 74.0638V40.282C369.762 38.7423 375.591 34.5329 382.504 33.952C383.566 33.8585 384.395 32.9582 384.395 31.9329V24.7689C384.395 24.2271 384.16 23.6814 383.73 23.3267C383.333 22.9136 382.742 22.7148 382.175 22.7771M317.267 53.1602C312.389 53.6085 310.069 55.7679 310.069 59.9385C310.069 62.507 310.786 66.8491 315.635 66.8491C321.396 66.8491 329.207 64.7561 329.298 64.6976V52.5482L317.27 53.1564L317.267 53.1602ZM341.761 39.8026V74.8746C341.761 75.4555 341.493 76.0049 341.043 76.3908C340.581 76.7767 339.973 76.952 339.405 76.8664C335.168 76.2896 333.15 75.0073 331.151 73.522C331.056 73.5532 321.711 77.2173 313.362 77.2173C303.267 77.2173 297.497 71.0508 297.497 60.262C297.497 49.4729 302.787 45.0958 315.753 44.1641L329.298 43.1079V39.8961C329.298 35.8776 326.825 33.5661 322.523 33.5661C316.588 33.5661 308.131 34.2405 303.614 34.6264C303.055 34.6888 302.473 34.4976 302.046 34.1429C301.623 33.7923 301.376 33.2426 301.335 32.7008L301.07 26.0201C301.046 24.9949 301.782 24.0946 302.817 23.9348C306.854 23.3228 316.894 21.9079 323.181 21.9079C335.847 21.9079 341.761 27.5908 341.761 39.7988M168.764 14.5879H164.216C159.13 14.5879 156.23 14.9699 154.768 15.2311V36.1346C157.19 36.2985 161.866 36.5558 168.169 36.4893C176.284 36.392 181.333 32.2176 181.333 25.5757C181.333 20.2708 178.031 14.5879 168.764 14.5879ZM194.972 73.2452C195.241 73.8729 195.193 74.5785 194.819 75.1591C194.421 75.7361 193.787 76.0635 193.076 76.0635H183.414C182.599 76.0635 181.844 75.5879 181.53 74.8511L169.149 47.8632C162.991 47.8282 157.644 47.4773 154.768 47.3135V74.0638C154.768 75.1708 153.836 76.0596 152.703 76.0596H144.062C142.905 76.0596 141.981 75.167 141.981 74.0638V6.28179C141.981 5.25279 142.777 4.40305 143.821 4.27835C154.916 3.06223 163.786 2.94141 167.081 2.94141C168.205 2.94141 168.816 2.95699 168.816 2.95699C190.095 2.95699 194.554 15.1336 194.554 25.3418C194.554 33.8858 190.36 40.052 181.731 44.2264L194.972 73.2414V73.2452ZM437.581 23.9659C437.184 23.4553 436.59 23.1669 435.955 23.1669H427.856C426.924 23.1669 426.127 23.7788 425.862 24.6753L415.026 64.3079H414.214L403.354 24.6753C403.107 23.7827 402.295 23.1669 401.339 23.1669H393.291C392.629 23.1669 392.035 23.4553 391.638 23.9659C391.247 24.4454 391.106 25.0885 391.276 25.6654L403.222 70.1155C403.816 72.3332 405.906 76.0596 410.059 76.0596H412.361C412.164 76.8041 411.958 77.5991 411.714 78.2814L411.629 78.6243C410.967 80.6785 409.991 83.7693 404.118 83.7693L393.791 83.1573C393.197 83.1185 392.629 83.3173 392.232 83.7108C391.803 84.1161 391.567 84.6735 391.576 85.2543L391.841 90.4852C391.903 91.3779 392.532 92.1261 393.423 92.3211C396.47 93.0773 402.266 93.927 407.062 94.1023C407.28 94.1179 407.497 94.1179 407.694 94.1179C415.487 94.1179 420.766 89.2379 423.445 79.6026C426.527 68.3496 430.394 53.8658 433.22 43.2364C434.499 38.4811 435.596 34.3729 436.393 31.4496L437.942 25.7004C438.11 25.0885 437.954 24.4454 437.584 23.9659M238.952 49.3676C238.952 37.5223 235.634 32.9229 227.145 32.9229C218.657 32.9229 215.23 37.2261 215.23 49.3676C215.23 60.3282 217.131 66.3035 227.145 66.3035C237.16 66.3035 238.952 60.0708 238.952 49.3676ZM251.626 49.3676C251.626 68.6149 244.07 77.2173 227.145 77.2173C210.221 77.2173 202.564 68.6149 202.564 49.3676C202.564 30.1205 210.149 21.9118 227.145 21.9118C244.142 21.9118 251.626 30.6155 251.626 49.3676ZM290.93 67.4573L291.284 74.1261C291.34 75.1046 290.613 76.0049 289.612 76.1882C286.708 76.7105 282.727 77.3379 280.232 77.3379C267.679 77.3379 263.842 72.6646 263.842 57.4049V34.0805H259.026C257.885 34.0805 256.957 33.1802 256.957 32.0576V25.1859C256.957 24.0595 257.885 23.163 259.026 23.163H263.842V14.9699C263.842 14.0383 264.489 13.2354 265.413 13.0093L273.733 11.0488C274.359 10.8928 274.998 11.0215 275.496 11.4034C276.006 11.7932 276.304 12.3662 276.304 13.0093V23.163H288.982C290.131 23.163 291.05 24.0595 291.05 25.1859V32.0576C291.05 33.1802 290.131 34.0805 288.982 34.0805H276.304V55.6938C276.304 63.1814 276.581 65.7811 281.984 65.7811C283.985 65.7811 287.094 65.6488 288.773 65.5591C289.882 65.5279 290.874 66.3541 290.93 67.4573Z" fill="#054A97"/>
<path d="M489.893 85.8691C480.759 85.8691 474.213 80.8141 474.04 73.5759H482.771C482.944 76.6779 485.929 78.7459 489.949 78.7459C494.087 78.7459 497.071 76.3909 497.015 73.0588C497.071 69.6697 494.028 67.257 489.146 67.257H485.297V60.8806H489.146C493.225 60.8806 496.095 58.6403 496.095 55.3659C496.095 52.2064 493.684 50.0235 490.008 50.0235C486.332 50.0235 483.288 52.0915 483.174 55.2512H474.901C475.016 48.0706 481.506 43.1303 490.008 43.1303C498.68 43.1303 504.482 48.2426 504.423 54.8488C504.482 59.502 501.209 62.8338 496.554 63.6379V63.9826C502.644 64.7294 506.032 68.4632 505.976 73.6335C506.032 80.7565 499.253 85.8691 489.893 85.8691ZM513.672 85.2947L531.189 51.0576V50.7703H510.799V43.7047H540.15V50.8853L522.632 85.2947H513.672ZM561.114 85.8691C550.716 85.8691 544.399 78.1141 544.399 64.4997C544.399 50.8853 550.716 43.1303 561.114 43.1303C571.51 43.1303 577.826 50.9426 577.826 64.4997C577.826 78.1715 571.51 85.8691 561.114 85.8691ZM561.114 78.7459C565.937 78.7459 569.039 74.0929 568.981 64.4997C568.981 55.0212 565.937 50.1959 561.114 50.1959C556.288 50.1959 553.245 55.0212 553.245 64.4997C553.186 74.0929 556.288 78.7459 561.114 78.7459ZM599.94 85.8691C589.545 85.8691 583.225 78.1141 583.225 64.4997C583.225 50.8853 589.545 43.1303 599.94 43.1303C610.336 43.1303 616.652 50.9426 616.652 64.4997C616.652 78.1715 610.336 85.8691 599.94 85.8691ZM599.94 78.7459C604.763 78.7459 607.866 74.0929 607.81 64.4997C607.81 55.0212 604.763 50.1959 599.94 50.1959C595.115 50.1959 592.071 55.0212 592.071 64.4997C592.012 74.0929 595.115 78.7459 599.94 78.7459ZM654.735 52.5512C654.735 60.9956 659.04 70.0144 667.83 73.6909L663.866 79.4353C657.69 76.8214 653.441 71.6229 651.115 65.2464C648.733 72.1685 644.395 77.9129 638.249 80.7565L634.056 74.9547C642.728 71.1059 647.209 61.3976 647.209 52.5512V49.3341H636.123V43.36H665.645V49.3341H654.735V52.5512ZM678.225 38.3047V90.5797H670.815V38.3047H678.225ZM727.391 41.3494V46.06C727.391 50.9426 727.391 56.285 726.067 63.5806H732.961V69.4973H712.57V90.637H705.218V69.4973H685.289V63.5806H718.66C719.98 56.8309 720.095 51.7182 720.095 47.2088H690.747V41.3494H727.391Z" fill="black"/>
</svg>
