<svg width="207" height="46" viewBox="0 0 207 46" fill="none" xmlns="http://www.w3.org/2000/svg">
<mask id="mask0_244_448" style="mask-type:luminance" maskUnits="userSpaceOnUse" x="38" y="9" width="7" height="8">
<path d="M42.7839 9.50003L38.7188 11.3376L40.9341 16.3097L44.9993 14.4721L42.7839 9.50003Z" fill="white"/>
</mask>
<g mask="url(#mask0_244_448)">
<path d="M43.8914 11.9861C42.7404 13.0564 42.6022 13.5644 42.9664 15.3911C41.8538 13.9027 41.3851 13.6687 39.8262 13.8237C40.9772 12.7534 41.1153 12.2452 40.7512 10.4187C41.8639 11.9068 42.3322 12.1409 43.8914 11.9861Z" fill="#001E44"/>
</g>
<path d="M13.54 2.5C11.6468 5.80466 10.5635 9.63996 10.5635 13.7295C10.5637 26.1556 20.5647 36.2293 32.9014 36.2295C36.0253 36.2295 38.9993 35.5816 41.6992 34.4151C37.8399 41.1523 30.615 45.6875 22.3379 45.6875C10.0011 45.6874 0.000131001 35.6137 0 23.1875C0 13.9078 5.57752 5.94016 13.54 2.5Z" fill="#001E44"/>
<path d="M22.3379 1C34.3954 1 44.1768 10.8463 44.1768 23C44.1768 35.1537 34.3954 45 22.3379 45C10.2805 44.9999 0.5 35.1536 0.5 23C0.5 10.8464 10.2805 1.00015 22.3379 1Z" stroke="url(#paint0_linear_244_448)"/>
<mask id="mask1_244_448" style="mask-type:luminance" maskUnits="userSpaceOnUse" x="16" y="5" width="22" height="27">
<path d="M37.843 5.63525H16.3984V31.0471H37.843V5.63525Z" fill="white"/>
</mask>
<g mask="url(#mask1_244_448)">
<path d="M16.6053 6.77645H21.6051V7.78795H16.6053V6.77645ZM16.8243 10.8816H21.3111V11.8931H16.8243V10.8816ZM16.3984 15.9716C16.8483 15.8743 17.3641 15.7593 17.943 15.6236C18.5218 15.488 19.1337 15.3435 19.7815 15.1901C20.4294 15.025 21.0802 14.8687 21.737 14.7124L21.839 15.6944C20.9362 15.9362 20.0245 16.1721 19.1037 16.4022C18.1829 16.6322 17.3641 16.8357 16.6473 17.0097L16.3984 15.9686V15.9716ZM22.9877 9.95845H27.9155V10.9258H22.9877V9.95845ZM21.692 12.4446H28.5033V13.4561H21.692V12.4446ZM24.2084 12.8043H25.2971V18.9059H24.2084V12.8043ZM25.4141 6.70575C25.1502 7.21585 24.8053 7.74675 24.3854 8.29525C23.9745 8.83485 23.5066 9.35396 22.9877 9.85526C22.4778 10.3566 21.938 10.7961 21.3711 11.1706C21.3111 11.0349 21.2242 10.8875 21.1072 10.7223C20.9902 10.5483 20.8822 10.4038 20.7833 10.2888C21.3531 9.92305 21.896 9.48365 22.4149 8.97355C22.9457 8.46335 23.4196 7.91775 23.8425 7.33975C24.2744 6.75285 24.6133 6.18375 24.8563 5.63525H25.9C26.2329 6.23385 26.6348 6.82075 27.1057 7.39875C27.5766 7.97675 28.0774 8.50755 28.6053 8.98825C29.1452 9.46005 29.673 9.85525 30.1949 10.1738C30.0869 10.3095 29.973 10.4687 29.856 10.6515C29.748 10.8255 29.6551 10.9848 29.5771 11.1293C29.0462 10.7725 28.5183 10.3537 27.9875 9.87295C27.4686 9.38045 26.9827 8.86145 26.5298 8.31295C26.0889 7.76445 25.717 7.22765 25.4111 6.70865L25.4141 6.70575ZM28.0175 12.4446H29.0912V16.4493C29.0912 16.7088 29.0582 16.9212 28.9892 17.0863C28.9202 17.2515 28.7823 17.3812 28.5783 17.4756C28.3714 17.5611 28.0984 17.6142 27.7535 17.6348C27.4206 17.6437 26.9947 17.6496 26.4728 17.6496C26.4519 17.5051 26.4039 17.337 26.3259 17.1424C26.2569 16.9507 26.1849 16.7796 26.1039 16.6351C26.4968 16.644 26.8448 16.6499 27.1477 16.6499H27.7655C27.8645 16.641 27.9275 16.6204 27.9575 16.5909C27.9965 16.5614 28.0175 16.5054 28.0175 16.4169V12.4416V12.4446ZM18.5458 7.18345H19.6046V15.6973L18.5458 15.9156V7.18345Z" fill="#001E44"/>
<path d="M30.1705 17.7764H31.1272V19.7404H30.1705V17.7764ZM33.4396 17.7764H34.4414V21.3152H33.4396V17.7764ZM28.4639 19.1329H32.9987V19.9999H28.4639V19.1329ZM33.9855 18.9176H37.7406V19.7994H33.9855V18.9176ZM28.2569 21.9787H33.1307V22.8752H28.2569V21.9787ZM29.2137 25.5883H32.1889V26.3403H29.2137V25.5883ZM33.9105 24.7213H37.2397V25.4733H33.9105V24.7213ZM33.9105 26.3256H37.0777V27.0923H33.9105V26.3256ZM33.9105 27.9564H37.3986V28.7232H33.9105V27.9564ZM29.2137 27.3931H32.1889V28.1451H29.2137V27.3931ZM29.0367 20.1444L29.7716 19.9557C29.8885 20.2536 29.9935 20.5868 30.0805 20.9525C30.1675 21.3093 30.2274 21.6131 30.2574 21.8608L29.4626 22.076C29.4536 21.8165 29.4026 21.5069 29.3157 21.153C29.2377 20.7873 29.1447 20.4511 29.0367 20.1415V20.1444ZM31.6281 19.9144L32.4529 20.1592C32.3239 20.4954 32.2039 20.8375 32.084 21.1854C31.976 21.5334 31.868 21.8342 31.7601 22.0937L31.0822 21.8637C31.1692 21.5954 31.2682 21.271 31.3762 20.8964C31.4841 20.5219 31.5681 20.1946 31.6251 19.9144H31.6281ZM28.7878 23.698H32.1889V24.5208H29.6996V31.047H28.7878V23.698ZM31.7751 23.698H32.7018V29.9794C32.7018 30.2006 32.6718 30.3835 32.6148 30.528C32.5669 30.6725 32.4619 30.7875 32.3059 30.8759C32.138 30.9438 31.934 30.988 31.6881 31.0057C31.4511 31.0263 31.1542 31.0352 30.7913 31.0352C30.7613 30.9113 30.7133 30.7609 30.6443 30.5869C30.5844 30.4218 30.5214 30.2802 30.4524 30.1534C30.7283 30.1623 30.9683 30.1682 31.1752 30.1682C31.3822 30.1682 31.5201 30.1623 31.5861 30.1534C31.7151 30.1534 31.7781 30.0915 31.7781 29.9647V23.698H31.7751ZM33.4396 23.3795H34.4414V29.4575C34.4414 29.6609 34.4714 29.7907 34.5284 29.8467C34.5973 29.9057 34.7383 29.9323 34.9543 29.9323H36.4989C36.6668 29.9323 36.7748 29.8733 36.8228 29.7583C36.8828 29.6433 36.9218 29.3926 36.9398 29.0063C37.0387 29.0829 37.1767 29.1567 37.3507 29.2215C37.5276 29.2894 37.6896 29.3425 37.8365 29.3808C37.7766 29.9588 37.6596 30.3481 37.4826 30.5516C37.3057 30.7639 37.0117 30.87 36.5978 30.87H34.8163C34.4624 30.87 34.1835 30.8317 33.9765 30.755C33.7696 30.6784 33.6286 30.5339 33.5506 30.3215C33.4726 30.118 33.4336 29.832 33.4336 29.4545V23.3766L33.4396 23.3795ZM24.2079 18.9029H28.185V19.8849H24.2079V18.9029ZM24.4149 23.061H28.065V24.0283H24.4149V23.061ZM24.046 28.1599C24.5949 28.0242 25.2427 27.8532 25.9895 27.6409C26.7453 27.4285 27.5161 27.2074 28.3019 26.9773L28.4189 27.9299C27.6931 28.151 26.9673 28.3722 26.2384 28.5934C25.5216 28.8057 24.8648 28.9974 24.2649 29.1714L24.043 28.1599H24.046ZM33.4396 20.8522H37.3567V23.8691H33.4396V23.0315H36.3699V21.675H33.4396V20.8522ZM25.7406 19.2066H26.7273V27.9151L25.7406 28.1746V19.2066Z" fill="#001E44"/>
</g>
<path d="M56.872 1.57688H57.416V2.87288C57.416 3.27288 57.3653 3.66488 57.264 4.04888C57.168 4.43288 57.0293 4.79288 56.848 5.12888C56.6667 5.46488 56.4533 5.76355 56.208 6.02488C55.9627 6.28621 55.696 6.49421 55.408 6.64888L55 6.11288C55.2667 5.97955 55.512 5.80088 55.736 5.57688C55.9653 5.34755 56.1653 5.08621 56.336 4.79288C56.5067 4.49955 56.6373 4.19021 56.728 3.86488C56.824 3.53421 56.872 3.20355 56.872 2.87288V1.57688ZM56.992 1.57688H57.528V2.87288C57.528 3.19288 57.5733 3.51021 57.664 3.82488C57.76 4.13955 57.8933 4.43555 58.064 4.71288C58.2347 4.99021 58.4293 5.23821 58.648 5.45688C58.872 5.67555 59.112 5.84888 59.368 5.97688L58.96 6.50488C58.6773 6.36088 58.416 6.16355 58.176 5.91288C57.9413 5.66221 57.7333 5.37688 57.552 5.05688C57.376 4.73155 57.2373 4.38488 57.136 4.01688C57.04 3.64355 56.992 3.26221 56.992 2.87288V1.57688ZM60 0.952881H60.664V8.19288H60V0.952881ZM60.512 3.88088H61.848V4.44888H60.512V3.88088Z" fill="#001E44"/>
<path d="M78.5918 0.952881H79.2238V8.19288H78.5918V0.952881ZM77.3678 3.85688H78.7598V4.40088H77.3678V3.85688ZM76.9518 1.11288H77.5678V7.81688H76.9518V1.11288ZM73.3438 5.84888H73.8158C74.1731 5.84888 74.4958 5.84621 74.7838 5.84088C75.0771 5.83021 75.3544 5.80888 75.6158 5.77688C75.8824 5.74488 76.1544 5.69955 76.4318 5.64088L76.4958 6.19288C76.2078 6.25155 75.9278 6.29688 75.6558 6.32888C75.3891 6.36088 75.1064 6.38221 74.8078 6.39288C74.5144 6.40355 74.1838 6.40888 73.8158 6.40888H73.3438V5.84888ZM73.3438 1.83288H76.0318V2.37688H74.0078V6.10488H73.3438V1.83288Z" fill="#001E44"/>
<path d="M96.4727 0.952881H97.1047V8.19288H96.4727V0.952881ZM95.4647 3.90488H96.7047V4.44888H95.4647V3.90488ZM95.0727 1.10488H95.6967V7.82488H95.0727V1.10488ZM91.7127 2.16088H92.1767V3.12088C92.1767 3.39288 92.1607 3.68621 92.1287 4.00088C92.102 4.31021 92.0487 4.61955 91.9687 4.92888C91.894 5.23821 91.7847 5.52621 91.6407 5.79288C91.502 6.05421 91.3234 6.27555 91.1047 6.45688L90.7207 6.00088C90.9287 5.83555 91.0967 5.63555 91.2247 5.40088C91.358 5.16621 91.4594 4.91555 91.5287 4.64888C91.598 4.38221 91.646 4.11821 91.6727 3.85688C91.6994 3.59021 91.7127 3.34488 91.7127 3.12088V2.16088ZM91.8407 2.16088H92.2967V3.12088C92.2967 3.30221 92.3047 3.52088 92.3207 3.77688C92.3367 4.02755 92.3714 4.29155 92.4247 4.56888C92.478 4.84621 92.566 5.11555 92.6887 5.37688C92.8114 5.63821 92.974 5.86488 93.1767 6.05688L92.8407 6.52888C92.654 6.36888 92.4994 6.17955 92.3767 5.96088C92.2594 5.73688 92.1634 5.49955 92.0887 5.24888C92.0194 4.99288 91.966 4.73688 91.9287 4.48088C91.8914 4.21955 91.8674 3.97421 91.8567 3.74488C91.846 3.51021 91.8407 3.30221 91.8407 3.12088V2.16088ZM93.3847 2.16088H93.8407V3.12088C93.8407 3.37688 93.83 3.66221 93.8087 3.97688C93.7927 4.29155 93.7527 4.60888 93.6887 4.92888C93.6247 5.24888 93.5234 5.54755 93.3847 5.82488C93.2514 6.10221 93.07 6.33688 92.8407 6.52888L92.5047 6.05688C92.7127 5.87555 92.8754 5.66221 92.9927 5.41688C93.11 5.16621 93.1954 4.90488 93.2487 4.63288C93.3074 4.36088 93.3447 4.09421 93.3607 3.83288C93.3767 3.57155 93.3847 3.33421 93.3847 3.12088V2.16088ZM93.5047 2.16088H93.9687V3.12088C93.9687 3.35555 93.982 3.60621 94.0087 3.87288C94.0354 4.13421 94.0834 4.39821 94.1527 4.66488C94.2274 4.92621 94.3287 5.17421 94.4567 5.40888C94.5847 5.63821 94.7527 5.83555 94.9607 6.00088L94.5847 6.45688C94.3607 6.28088 94.1767 6.06221 94.0327 5.80088C93.894 5.53955 93.7847 5.25688 93.7047 4.95288C93.63 4.64355 93.5767 4.33155 93.5447 4.01688C93.518 3.70221 93.5047 3.40355 93.5047 3.12088V2.16088ZM90.9687 1.83288H92.7367V2.36888H90.9687V1.83288ZM92.9527 1.83288H94.6647V2.36888H92.9527V1.83288Z" fill="#001E44"/>
<path d="M113.592 0.948975H114.256V8.19697H113.592V0.948975ZM110.44 1.50897C110.797 1.50897 111.112 1.61297 111.384 1.82097C111.661 2.02364 111.877 2.31431 112.032 2.69297C112.192 3.07164 112.272 3.51697 112.272 4.02897C112.272 4.54097 112.192 4.98631 112.032 5.36497C111.877 5.74364 111.661 6.03697 111.384 6.24497C111.112 6.45297 110.797 6.55697 110.44 6.55697C110.082 6.55697 109.765 6.45297 109.488 6.24497C109.21 6.03697 108.992 5.74364 108.832 5.36497C108.677 4.98631 108.6 4.54097 108.6 4.02897C108.6 3.51697 108.677 3.07164 108.832 2.69297C108.992 2.31431 109.21 2.02364 109.488 1.82097C109.765 1.61297 110.082 1.50897 110.44 1.50897ZM110.44 2.10097C110.2 2.10097 109.989 2.18097 109.808 2.34097C109.632 2.49564 109.493 2.71964 109.392 3.01297C109.29 3.30097 109.24 3.63964 109.24 4.02897C109.24 4.41831 109.29 4.75964 109.392 5.05297C109.493 5.34097 109.632 5.56497 109.808 5.72497C109.989 5.88497 110.2 5.96497 110.44 5.96497C110.674 5.96497 110.88 5.88497 111.056 5.72497C111.237 5.56497 111.378 5.34097 111.48 5.05297C111.581 4.75964 111.632 4.41831 111.632 4.02897C111.632 3.63964 111.581 3.30097 111.48 3.01297C111.378 2.71964 111.237 2.49564 111.056 2.34097C110.88 2.18097 110.674 2.10097 110.44 2.10097Z" fill="#001E44"/>
<path d="M127.552 1.50897C127.904 1.50897 128.216 1.61297 128.488 1.82097C128.76 2.02364 128.971 2.31431 129.12 2.69297C129.275 3.07164 129.352 3.51697 129.352 4.02897C129.352 4.54097 129.275 4.98631 129.12 5.36497C128.971 5.74364 128.76 6.03697 128.488 6.24497C128.216 6.45297 127.904 6.55697 127.552 6.55697C127.205 6.55697 126.893 6.45297 126.616 6.24497C126.344 6.03697 126.131 5.74364 125.976 5.36497C125.827 4.98631 125.752 4.54097 125.752 4.02897C125.752 3.51697 125.827 3.07164 125.976 2.69297C126.131 2.31431 126.344 2.02364 126.616 1.82097C126.893 1.61297 127.205 1.50897 127.552 1.50897ZM127.552 2.10097C127.323 2.10097 127.12 2.18097 126.944 2.34097C126.768 2.49564 126.629 2.71964 126.528 3.01297C126.432 3.30097 126.384 3.63964 126.384 4.02897C126.384 4.41831 126.432 4.75964 126.528 5.05297C126.629 5.34097 126.768 5.56497 126.944 5.72497C127.12 5.88497 127.323 5.96497 127.552 5.96497C127.787 5.96497 127.992 5.88497 128.168 5.72497C128.344 5.56497 128.48 5.34097 128.576 5.05297C128.677 4.75964 128.728 4.41831 128.728 4.02897C128.728 3.63964 128.677 3.30097 128.576 3.01297C128.48 2.71964 128.344 2.49564 128.168 2.34097C127.992 2.18097 127.787 2.10097 127.552 2.10097ZM130.92 0.948975H131.576V8.19697H130.92V0.948975ZM129.136 3.70897H131.216V4.24497H129.136V3.70897Z" fill="#001E44"/>
<path d="M143.072 4.77311H149.608V5.31711H143.072V4.77311ZM146.008 3.70911H146.672V5.05311H146.008V3.70911ZM143.912 7.46111H148.88V8.00511H143.912V7.46111ZM143.912 5.90911H144.576V7.62911H143.912V5.90911ZM146.336 1.14111C146.854 1.14111 147.302 1.19978 147.68 1.31711C148.064 1.42911 148.36 1.59445 148.568 1.81311C148.776 2.02645 148.88 2.28245 148.88 2.58111C148.88 2.88511 148.776 3.14645 148.568 3.36511C148.36 3.57845 148.064 3.74378 147.68 3.86111C147.302 3.97311 146.854 4.02911 146.336 4.02911C145.819 4.02911 145.368 3.97311 144.984 3.86111C144.606 3.74378 144.312 3.57845 144.104 3.36511C143.896 3.14645 143.792 2.88511 143.792 2.58111C143.792 2.28245 143.896 2.02645 144.104 1.81311C144.312 1.59445 144.606 1.42911 144.984 1.31711C145.368 1.19978 145.819 1.14111 146.336 1.14111ZM146.336 1.67711C145.963 1.67711 145.635 1.71445 145.352 1.78911C145.075 1.85845 144.859 1.96245 144.704 2.10111C144.55 2.23445 144.472 2.39445 144.472 2.58111C144.472 2.77311 144.55 2.93578 144.704 3.06911C144.859 3.20245 145.075 3.30645 145.352 3.38111C145.635 3.45045 145.963 3.48511 146.336 3.48511C146.72 3.48511 147.051 3.45045 147.328 3.38111C147.606 3.30645 147.819 3.20245 147.968 3.06911C148.123 2.93578 148.2 2.77311 148.2 2.58111C148.2 2.39445 148.123 2.23445 147.968 2.10111C147.819 1.96245 147.606 1.85845 147.328 1.78911C147.051 1.71445 146.72 1.67711 146.336 1.67711Z" fill="#001E44"/>
<path d="M161.904 4.401H166.912V4.945H161.904V4.401ZM161.104 6.873H167.664V7.417H161.104V6.873ZM164.04 4.729H164.704V7.041H164.04V4.729ZM161.904 1.729H162.576V4.633H161.904V1.729Z" fill="#001E44"/>
<path d="M184.104 0.952881H184.76V8.19288H184.104V0.952881ZM184.608 3.92888H185.944V4.48888H184.608V3.92888ZM179.16 2.11288H183.424V2.65688H179.16V2.11288ZM181.328 3.24888C181.669 3.24888 181.971 3.32088 182.232 3.46488C182.499 3.60888 182.707 3.80621 182.856 4.05688C183.011 4.30221 183.088 4.58755 183.088 4.91288C183.088 5.23821 183.011 5.52621 182.856 5.77688C182.707 6.02755 182.499 6.22488 182.232 6.36888C181.971 6.50755 181.669 6.57688 181.328 6.57688C180.987 6.57688 180.683 6.50755 180.416 6.36888C180.155 6.22488 179.947 6.02755 179.792 5.77688C179.637 5.52621 179.56 5.23821 179.56 4.91288C179.56 4.58755 179.637 4.30221 179.792 4.05688C179.947 3.80621 180.155 3.60888 180.416 3.46488C180.683 3.32088 180.987 3.24888 181.328 3.24888ZM181.328 3.80088C181.109 3.80088 180.915 3.84888 180.744 3.94488C180.573 4.04088 180.437 4.17155 180.336 4.33688C180.24 4.50221 180.192 4.69421 180.192 4.91288C180.192 5.13155 180.24 5.32621 180.336 5.49688C180.437 5.66221 180.573 5.79288 180.744 5.88888C180.915 5.97955 181.109 6.02488 181.328 6.02488C181.541 6.02488 181.733 5.97955 181.904 5.88888C182.075 5.79288 182.208 5.66221 182.304 5.49688C182.405 5.32621 182.456 5.13155 182.456 4.91288C182.456 4.69421 182.405 4.50221 182.304 4.33688C182.208 4.17155 182.075 4.04088 181.904 3.94488C181.733 3.84888 181.541 3.80088 181.328 3.80088ZM180.984 1.04088H181.648V2.35288H180.984V1.04088Z" fill="#001E44"/>
<path d="M197.439 4.95292H203.999V5.50492H197.439V4.95292ZM200.375 5.28892H201.031V8.04892H200.375V5.28892ZM200.703 1.09692C201.21 1.09692 201.653 1.16359 202.031 1.29692C202.41 1.42492 202.706 1.60892 202.919 1.84892C203.133 2.08359 203.239 2.36359 203.239 2.68892C203.239 3.00892 203.133 3.28892 202.919 3.52892C202.706 3.76892 202.41 3.95292 202.031 4.08092C201.653 4.20892 201.21 4.27292 200.703 4.27292C200.207 4.27292 199.767 4.20892 199.383 4.08092C199.005 3.95292 198.709 3.76892 198.495 3.52892C198.282 3.28892 198.175 3.00892 198.175 2.68892C198.175 2.36359 198.282 2.08359 198.495 1.84892C198.709 1.60892 199.005 1.42492 199.383 1.29692C199.767 1.16359 200.207 1.09692 200.703 1.09692ZM200.703 1.63292C200.341 1.63292 200.018 1.67559 199.735 1.76092C199.458 1.84626 199.242 1.96892 199.087 2.12892C198.933 2.28359 198.855 2.46759 198.855 2.68092C198.855 2.89959 198.933 3.08892 199.087 3.24892C199.242 3.40359 199.458 3.52359 199.735 3.60892C200.018 3.69426 200.341 3.73692 200.703 3.73692C201.077 3.73692 201.402 3.69426 201.679 3.60892C201.957 3.52359 202.173 3.40359 202.327 3.24892C202.482 3.08892 202.559 2.89959 202.559 2.68092C202.559 2.46759 202.482 2.28359 202.327 2.12892C202.173 1.96892 201.957 1.84626 201.679 1.76092C201.402 1.67559 201.077 1.63292 200.703 1.63292Z" fill="#001E44"/>
<path d="M186.591 26.9686C185.781 26.6842 185.07 26.2905 184.458 25.7873C183.867 25.2623 183.397 24.6498 183.047 23.9498C182.719 23.2498 182.555 22.4732 182.555 21.6201C182.555 19.8481 183.189 18.4481 184.458 17.42C185.749 16.3918 187.367 15.8777 189.314 15.8777C191.305 15.8777 192.924 16.3918 194.171 17.42C195.417 18.4481 196.041 19.8481 196.041 21.6201C196.041 23.3263 195.417 24.7154 194.171 25.7873C192.924 26.8374 191.305 27.3624 189.314 27.3624C188.33 27.3624 187.422 27.2311 186.591 26.9686ZM189.314 25.5248C190.561 25.5248 191.535 25.153 192.235 24.4092C192.935 23.6435 193.285 22.7357 193.285 21.6857C193.285 20.57 192.935 19.6294 192.235 18.8637C191.535 18.0762 190.561 17.6825 189.314 17.6825C188.067 17.6825 187.072 18.0762 186.328 18.8637C185.606 19.6294 185.245 20.57 185.245 21.6857C185.245 22.7357 185.606 23.6435 186.328 24.4092C187.072 25.153 188.067 25.5248 189.314 25.5248ZM188.002 31.1031C187.717 31.125 187.477 31.1468 187.28 31.1687C187.105 31.1906 186.952 31.2015 186.82 31.2015C186.645 31.2234 186.492 31.2562 186.361 31.3C186.23 31.3219 186.099 31.3437 185.967 31.3656C185.836 31.4094 185.705 31.464 185.574 31.5297C185.464 31.5734 185.366 31.6062 185.278 31.6281C184.928 31.7594 184.556 31.8687 184.163 31.9562C183.769 32.0219 183.244 31.9453 182.588 31.7265C182.194 31.5953 181.734 31.4312 181.209 31.2343C180.706 31.0156 180.291 30.7968 179.963 30.5781C179.306 30.1843 178.967 29.8234 178.945 29.4952C178.945 29.1671 179.35 29.0359 180.159 29.1015C180.881 29.1671 181.592 29.2109 182.292 29.2327C183.014 29.2546 183.681 29.2656 184.294 29.2656C185.497 29.2656 186.744 29.2327 188.035 29.1671C189.325 29.1015 190.605 29.003 191.874 28.8718C193.142 28.7405 194.378 28.5874 195.582 28.4124C196.807 28.2374 197.955 28.0515 199.027 27.8546C199.267 27.8108 199.453 27.8327 199.585 27.9202C199.738 28.0077 199.814 28.128 199.814 28.2812C199.814 28.4343 199.738 28.5983 199.585 28.7734C199.453 28.9484 199.235 29.0796 198.928 29.1671C198.557 29.2765 198.075 29.3968 197.485 29.5281C196.894 29.6374 196.238 29.7687 195.516 29.9218C194.794 30.0531 194.017 30.1953 193.186 30.3484C192.377 30.4796 191.567 30.6 190.758 30.7093C190.736 32.5031 190.55 33.8157 190.2 34.6469C189.872 35.4782 189.489 35.8938 189.052 35.8938C188.658 35.9157 188.385 35.5657 188.231 34.8438C188.078 34.1219 188.002 33.2031 188.002 32.0875V31.1031ZM199.65 42.3581C200 42.3581 200.383 42.3252 200.799 42.2596C201.236 42.2159 201.674 42.0846 202.111 41.8659C202.177 41.8221 202.286 41.7565 202.439 41.669C202.593 41.6033 202.768 41.5596 202.964 41.5377C203.402 41.5158 203.861 41.5158 204.343 41.5377C204.824 41.5596 205.261 41.5924 205.655 41.6362C206.093 41.7018 206.421 41.844 206.639 42.0627C206.88 42.3034 207 42.5549 207 42.8174C207 43.0799 206.88 43.3096 206.639 43.5065C206.421 43.7253 206.082 43.8347 205.622 43.8347L191.841 43.9659C190.944 43.9878 190.167 43.8456 189.511 43.5393C188.855 43.2331 188.527 42.5549 188.527 41.5049V39.9299C188.527 39.7111 188.483 39.4814 188.395 39.2408C188.33 38.9783 188.199 38.7814 188.002 38.6502C187.783 38.5189 187.488 38.4095 187.116 38.322C186.766 38.2126 186.35 38.1251 185.869 38.0595C185.716 38.0595 185.606 37.9939 185.541 37.8626C185.475 37.7095 185.464 37.5564 185.508 37.4032C185.53 37.2501 185.595 37.1079 185.705 36.9767C185.836 36.8235 186.011 36.736 186.23 36.7142C186.514 36.7142 186.875 36.7142 187.313 36.7142C187.75 36.7142 188.22 36.7251 188.724 36.747C189.205 36.7689 189.675 36.8017 190.135 36.8454C190.616 36.8673 191.042 36.911 191.414 36.9767C191.545 37.0423 191.644 37.1845 191.71 37.4032C191.775 37.6001 191.775 37.8079 191.71 38.0267C191.666 38.158 191.633 38.3986 191.611 38.7486C191.589 39.0986 191.578 39.4049 191.578 39.6674V41.4065C191.578 41.8002 191.699 42.0627 191.939 42.194C192.202 42.3471 192.497 42.4237 192.825 42.4237L199.65 42.3581ZM204.113 32.4484C204.113 34.2422 203.938 35.7079 203.588 36.8454C203.26 37.9829 202.866 38.5517 202.407 38.5517C201.969 38.5736 201.674 38.1361 201.521 37.2392C201.389 36.3423 201.324 35.2704 201.324 34.0235V33.925C200.996 33.925 200.744 33.936 200.569 33.9579C200.394 33.9579 200.23 33.9688 200.077 33.9907C199.836 34.0344 199.563 34.0891 199.257 34.1547C198.95 34.2204 198.644 34.3188 198.338 34.4501C197.878 34.6469 197.452 34.7454 197.058 34.7454C196.664 34.7454 196.314 34.6797 196.008 34.5485C195.746 34.4829 195.406 34.3516 194.991 34.1547C194.597 33.9579 194.203 33.7391 193.81 33.4985C193.35 33.1922 193.164 32.9188 193.252 32.6781C193.361 32.4156 193.689 32.3172 194.236 32.3828C194.564 32.4266 195.056 32.4594 195.713 32.4813C196.391 32.5031 196.992 32.5141 197.517 32.5141C197.846 32.5141 198.163 32.5141 198.469 32.5141C198.775 32.5141 199.092 32.5031 199.421 32.4813C199.727 32.4813 200.033 32.4813 200.339 32.4813C200.646 32.4594 200.974 32.4375 201.324 32.4156V18.5028C201.324 17.9778 201.28 17.5403 201.193 17.1903C201.105 16.8403 200.919 16.5668 200.635 16.3699C200.263 16.1074 199.825 15.8996 199.322 15.7465C198.841 15.5933 198.371 15.473 197.911 15.3855C197.736 15.3637 197.616 15.2762 197.55 15.123C197.485 14.9699 197.474 14.8168 197.517 14.6636C197.539 14.5105 197.616 14.3793 197.747 14.2699C197.878 14.1386 198.064 14.073 198.305 14.073C199.136 14.0949 200.099 14.1824 201.193 14.3355C202.286 14.4668 203.227 14.6527 204.014 14.8933C204.146 14.959 204.255 15.0902 204.343 15.2871C204.43 15.4621 204.441 15.6699 204.375 15.9105C204.266 16.2168 204.189 16.5449 204.146 16.8949C204.124 17.2449 204.113 17.584 204.113 17.9122V32.4484Z" fill="#001E44"/>
<path d="M171.608 37.797C171.608 40.1595 171.466 42.0517 171.182 43.4737C170.919 44.8956 170.515 45.6065 169.968 45.6065C169.727 45.6503 169.53 45.5081 169.377 45.1799C169.246 44.8518 169.126 44.4143 169.016 43.8674C168.929 43.3205 168.863 42.6971 168.819 41.9971C168.776 41.297 168.754 40.5642 168.754 39.7986V34.7125C167.726 34.8875 166.588 35.0844 165.341 35.3031C164.116 35.5 162.869 35.7078 161.601 35.9266C160.332 36.1235 159.096 36.3094 157.893 36.4844C156.69 36.6594 155.629 36.7797 154.71 36.8454C154.404 36.8672 154.086 36.9329 153.758 37.0423C153.452 37.1298 153.189 37.2063 152.971 37.2719C152.796 37.3376 152.632 37.4032 152.479 37.4688C152.347 37.5126 152.205 37.5563 152.052 37.6001C151.877 37.622 151.691 37.6329 151.494 37.6329C151.319 37.611 151.111 37.5673 150.871 37.5016C150.543 37.436 150.05 37.2829 149.394 37.0423C148.76 36.7797 148.147 36.4844 147.557 36.1563C146.857 35.7844 146.561 35.4235 146.671 35.0735C146.802 34.7016 147.207 34.5703 147.885 34.6797C148.41 34.7453 149.066 34.7891 149.853 34.8109C150.641 34.8109 151.352 34.8109 151.986 34.8109C153.036 34.8109 154.272 34.7672 155.694 34.6797C157.138 34.5922 158.636 34.4609 160.19 34.2859C161.721 34.1328 163.23 33.9578 164.718 33.7609C166.227 33.564 167.583 33.3672 168.787 33.1703V18.5684C168.787 18.0434 168.743 17.6058 168.655 17.2558C168.59 16.9058 168.426 16.6214 168.163 16.4027C167.813 16.1402 167.387 15.9324 166.883 15.7792C166.402 15.6261 165.932 15.5058 165.472 15.4183C165.297 15.3964 165.166 15.3089 165.079 15.1558C165.013 15.0027 165.002 14.8386 165.046 14.6636C165.068 14.5105 165.133 14.3792 165.243 14.2698C165.374 14.1386 165.56 14.0839 165.801 14.1058C166.632 14.1276 167.594 14.2151 168.688 14.3683C169.804 14.4995 170.755 14.6855 171.543 14.9261C171.696 14.9917 171.816 15.112 171.904 15.287C171.991 15.462 172.013 15.6808 171.969 15.9433C171.86 16.2714 171.773 16.6105 171.707 16.9605C171.663 17.2887 171.63 17.6168 171.608 17.9449V37.797ZM157.302 28.6749C158.593 28.6749 159.643 28.2155 160.452 27.2967C161.261 26.3779 161.666 25.2951 161.666 24.0482C161.666 23.4357 161.557 22.845 161.338 22.2763C161.141 21.7075 160.846 21.1934 160.452 20.734C160.08 20.2965 159.621 19.9465 159.074 19.684C158.549 19.3996 157.958 19.2574 157.302 19.2574C156.011 19.2574 154.972 19.7387 154.185 20.7012C153.397 21.6419 153.004 22.7575 153.004 24.0482C153.004 24.6607 153.102 25.2513 153.299 25.8201C153.518 26.367 153.813 26.8592 154.185 27.2967C154.557 27.7123 155.005 28.0514 155.53 28.3139C156.055 28.5545 156.646 28.6749 157.302 28.6749ZM160.419 18.0762C161.338 18.4699 162.093 18.984 162.683 19.6184C163.296 20.2309 163.755 20.9309 164.061 21.7184C164.39 22.506 164.554 23.2935 164.554 24.081C164.554 24.9779 164.379 25.8201 164.029 26.6076C163.679 27.3733 163.186 28.0514 162.552 28.6421C161.918 29.2327 161.152 29.6921 160.255 30.0202C159.38 30.3483 158.396 30.5124 157.302 30.5124C156.164 30.5124 155.147 30.3483 154.25 30.0202C153.354 29.6702 152.599 29.1999 151.986 28.6092C151.352 28.0186 150.871 27.3405 150.543 26.5748C150.214 25.7873 150.05 24.956 150.05 24.081C150.05 23.2279 150.203 22.4075 150.51 21.62C150.816 20.8325 151.275 20.1325 151.888 19.52C152.5 18.9074 153.255 18.4152 154.152 18.0434C155.071 17.6715 156.121 17.4855 157.302 17.4855C158.483 17.4855 159.522 17.6824 160.419 18.0762Z" fill="#001E44"/>
<path d="M137.071 32.7122C137.071 34.4841 136.896 35.9279 136.546 37.0436C136.196 38.1592 135.791 38.728 135.332 38.7499C134.895 38.7936 134.599 38.367 134.446 37.4701C134.315 36.5514 134.249 35.4685 134.249 34.2216V18.34C134.249 17.9244 134.195 17.5743 134.085 17.29C133.998 16.9837 133.834 16.7321 133.593 16.5353C133.243 16.2728 132.816 16.0649 132.313 15.9118C131.832 15.7587 131.362 15.6384 130.902 15.5509C130.727 15.529 130.596 15.4415 130.509 15.2884C130.443 15.1352 130.432 14.9712 130.476 14.7962C130.498 14.643 130.563 14.5118 130.673 14.4024C130.804 14.2711 130.99 14.2165 131.23 14.2383C132.062 14.2602 133.024 14.3477 134.118 14.5008C135.234 14.6321 136.185 14.818 136.973 15.0587C137.126 15.1243 137.246 15.2446 137.334 15.4196C137.443 15.5946 137.476 15.8134 137.432 16.0759C137.301 16.404 137.202 16.7431 137.137 17.0931C137.093 17.4431 137.071 17.7822 137.071 18.1103V27.0683C137.552 27.0683 138.023 27.0355 138.482 26.9699C138.963 26.9043 139.335 26.7402 139.598 26.4777C139.773 26.2808 140.156 26.1714 140.746 26.1496C141.337 26.1277 141.884 26.1714 142.387 26.2808C142.934 26.4121 143.327 26.6089 143.568 26.8714C143.831 27.1121 143.951 27.3636 143.929 27.6262C143.885 27.8668 143.699 28.0855 143.371 28.2824C143.065 28.4574 142.627 28.5449 142.059 28.5449H137.071V32.7122ZM130.115 19.6853C130.377 19.7072 130.651 19.7291 130.935 19.751C131.351 19.8166 131.712 19.9369 132.018 20.1119C132.324 20.265 132.477 20.5057 132.477 20.8338C132.477 21.1619 132.302 21.3916 131.952 21.5229C131.624 21.6541 131.23 21.7198 130.771 21.7198C130.662 21.7198 130.388 21.7307 129.951 21.7526C129.535 21.7526 129.054 21.7526 128.507 21.7526C127.938 21.7526 127.369 21.7526 126.801 21.7526C126.232 21.7526 125.751 21.7526 125.357 21.7526C125.007 21.7744 124.569 21.7963 124.044 21.8182C123.541 21.8182 123.027 21.8182 122.502 21.8182C121.977 21.8401 121.485 21.862 121.026 21.8838C120.588 21.8838 120.26 21.8948 120.041 21.9166C119.932 21.9385 119.822 21.9713 119.713 22.0151C119.604 22.037 119.494 22.0588 119.385 22.0807C119.276 22.1245 119.166 22.1682 119.057 22.212C118.969 22.2338 118.882 22.2557 118.794 22.2776C118.619 22.3432 118.455 22.4088 118.302 22.4745C118.171 22.5182 118.007 22.551 117.81 22.5729C117.635 22.5729 117.438 22.562 117.219 22.5401C117.001 22.4963 116.749 22.4088 116.465 22.2776C116.136 22.212 115.765 22.0916 115.349 21.9166C114.933 21.7416 114.518 21.5338 114.102 21.2932C113.511 20.9651 113.249 20.6588 113.315 20.3744C113.38 20.09 113.654 19.9807 114.135 20.0463C114.922 20.1119 115.754 20.1666 116.629 20.2104C117.504 20.2322 118.554 20.2432 119.779 20.2432C120.063 20.2432 120.479 20.2541 121.026 20.276C121.594 20.276 122.185 20.276 122.797 20.276C123.41 20.276 124.001 20.276 124.569 20.276C125.138 20.276 125.576 20.265 125.882 20.2432C126.013 20.2432 126.188 20.2103 126.407 20.1447C126.648 20.0572 126.812 19.9807 126.899 19.915C127.03 19.8494 127.162 19.8057 127.293 19.7838C127.446 19.74 127.599 19.7072 127.752 19.6853C128.037 19.6416 128.31 19.6197 128.573 19.6197C128.835 19.5978 129.098 19.5978 129.36 19.6197C129.601 19.6197 129.852 19.6416 130.115 19.6853ZM122.994 18.5369C122.732 18.515 122.458 18.4712 122.174 18.4056C121.78 18.3837 121.321 18.2525 120.796 18.0119C120.293 17.7712 119.746 17.4212 119.155 16.9618C118.674 16.5681 118.554 16.2399 118.794 15.9774C119.035 15.6931 119.516 15.6712 120.238 15.9118C121.091 16.1087 121.944 16.229 122.797 16.2728C123.672 16.2946 124.646 16.3056 125.718 16.3056C126.33 16.3056 126.779 16.404 127.063 16.6009C127.369 16.7978 127.512 17.0275 127.49 17.29C127.49 17.5306 127.337 17.7603 127.03 17.979C126.746 18.1978 126.341 18.3181 125.816 18.34C125.423 18.3837 125.062 18.4166 124.733 18.4384C124.427 18.4603 124.132 18.4822 123.847 18.5041C123.563 18.5259 123.279 18.5369 122.994 18.5369ZM125.816 23.7214C126.626 24.0058 127.326 24.3886 127.916 24.8698C128.485 25.373 128.923 25.9527 129.229 26.6089C129.557 27.2652 129.721 27.9652 129.721 28.709C129.721 29.4746 129.557 30.1856 129.229 30.8419C128.901 31.4981 128.441 32.0669 127.851 32.5481C127.282 33.0294 126.593 33.4122 125.783 33.6966C124.974 33.9591 124.099 34.0904 123.158 34.0904C122.174 34.0904 121.277 33.9591 120.468 33.6966C119.68 33.4122 119.002 33.0294 118.433 32.5481C117.865 32.0669 117.427 31.4981 117.121 30.8419C116.815 30.1856 116.661 29.4746 116.661 28.709C116.661 27.9652 116.815 27.2652 117.121 26.6089C117.427 25.9527 117.865 25.3839 118.433 24.9026C118.98 24.3995 119.658 24.0058 120.468 23.7214C121.277 23.437 122.174 23.2948 123.158 23.2948C124.143 23.2948 125.029 23.437 125.816 23.7214ZM123.158 32.0559C124.274 32.0559 125.149 31.7059 125.783 31.0059C126.44 30.3059 126.768 29.5074 126.768 28.6106C126.768 28.1949 126.68 27.7793 126.505 27.3636C126.352 26.948 126.123 26.5652 125.816 26.2152C125.51 25.8652 125.127 25.5808 124.668 25.362C124.23 25.1433 123.727 25.0339 123.158 25.0339C122.043 25.0339 121.168 25.4058 120.533 26.1496C119.921 26.8714 119.615 27.6918 119.615 28.6106C119.615 29.4856 119.921 30.284 120.533 31.0059C121.168 31.7059 122.043 32.0559 123.158 32.0559ZM132.51 42.4578C132.86 42.4578 133.254 42.4359 133.691 42.3921C134.129 42.3703 134.566 42.2499 135.004 42.0312C135.07 41.9874 135.179 41.9218 135.332 41.8343C135.485 41.7687 135.66 41.7249 135.857 41.7031C136.054 41.6812 136.262 41.6702 136.48 41.6702C136.721 41.6702 136.951 41.6702 137.17 41.6702C137.41 41.6921 137.64 41.714 137.859 41.7359C138.077 41.7577 138.285 41.7796 138.482 41.8015C138.92 41.8671 139.248 42.0093 139.466 42.2281C139.707 42.4687 139.827 42.7203 139.827 42.9828C139.827 43.2453 139.707 43.4859 139.466 43.7047C139.248 43.9234 138.909 44.0328 138.449 44.0328L126.046 44.1969C125.193 44.2187 124.427 44.0656 123.749 43.7375C123.093 43.4093 122.765 42.7312 122.765 41.7031V39.2749C122.765 39.078 122.721 38.8592 122.633 38.6186C122.568 38.378 122.447 38.1811 122.272 38.028C122.054 37.8748 121.758 37.7545 121.387 37.667C121.037 37.5795 120.621 37.503 120.14 37.4373C119.987 37.4373 119.877 37.3717 119.811 37.2404C119.746 37.0873 119.724 36.9342 119.746 36.7811C119.768 36.6279 119.833 36.4857 119.943 36.3545C120.074 36.2014 120.26 36.1139 120.501 36.092C120.785 36.0701 121.146 36.0592 121.583 36.0592C122.021 36.0592 122.48 36.0701 122.962 36.092C123.443 36.1139 123.913 36.1467 124.373 36.1904C124.832 36.2342 125.248 36.2889 125.619 36.3545C125.751 36.3982 125.849 36.5295 125.915 36.7482C126.002 36.9451 126.024 37.1639 125.98 37.4045C125.937 37.5358 125.904 37.7873 125.882 38.1592C125.86 38.5092 125.849 38.8155 125.849 39.078V41.6046C125.849 41.9765 125.969 42.2171 126.21 42.3265C126.451 42.4578 126.735 42.5234 127.063 42.5234L132.51 42.4578Z" fill="#001E44"/>
<path d="M97.5802 30.217C98.0614 30.217 98.5099 30.217 98.9255 30.217C99.363 30.1951 99.7787 30.1842 100.172 30.1842C100.544 30.1623 100.894 30.1514 101.222 30.1514C101.572 30.1514 101.901 30.1404 102.207 30.1186C102.666 30.1186 103.104 30.0639 103.519 29.9545C103.935 29.8232 104.23 29.7248 104.405 29.6592C104.558 29.5936 104.733 29.5389 104.93 29.4951C105.127 29.4514 105.302 29.4185 105.455 29.3967C106.024 29.3529 106.593 29.342 107.162 29.3639C107.73 29.3639 108.299 29.3857 108.868 29.4295C109.524 29.4951 110.027 29.6264 110.377 29.8232C110.749 29.9982 110.935 30.2717 110.935 30.6436C110.913 31.0811 110.705 31.3764 110.312 31.5295C109.94 31.6608 109.448 31.7264 108.835 31.7264C108.157 31.7264 107.315 31.7264 106.308 31.7264C105.324 31.7045 104.285 31.6936 103.191 31.6936C102.097 31.6936 101.004 31.6936 99.9099 31.6936C98.838 31.6717 97.8864 31.6498 97.0552 31.628C96.4208 31.628 95.7208 31.6389 94.9551 31.6608C94.1895 31.6827 93.4239 31.7045 92.6582 31.7264C91.9145 31.7702 91.2035 31.8139 90.5254 31.8577C89.8473 31.9014 89.3004 31.9342 88.8847 31.9561C88.6879 31.978 88.5019 32.0108 88.3269 32.0545C88.1519 32.0764 87.9879 32.1092 87.8347 32.153C87.7035 32.1967 87.5613 32.2514 87.4082 32.3171C87.2769 32.3608 87.1457 32.3936 87.0144 32.4155C86.7081 32.5249 86.3581 32.6014 85.9644 32.6452C85.5925 32.6671 85.0894 32.6014 84.455 32.4483C84.0612 32.3827 83.6019 32.2514 83.0768 32.0545C82.5518 31.8577 81.994 31.5952 81.4034 31.267C80.769 30.9389 80.4846 30.6108 80.5502 30.2826C80.6377 29.9326 81.1081 29.8123 81.9612 29.9217C82.9456 30.0529 84.0175 30.1404 85.1769 30.1842C86.3363 30.2279 87.441 30.2498 88.491 30.2498H94.4958V27.0341L90.9191 27.0669C90.4816 27.0669 90.0551 27.056 89.6394 27.0341C89.2457 26.9904 88.8957 26.9029 88.5894 26.7716C88.2613 26.6185 87.9988 26.3997 87.8019 26.1153C87.6269 25.8091 87.5394 25.3935 87.5394 24.8684V23.2606C87.5394 22.6699 87.3644 22.2871 87.0144 22.1121C86.6863 21.9371 86.2597 21.8059 85.7347 21.7184C85.2972 21.6527 85.1112 21.434 85.1769 21.0621C85.2425 20.6902 85.5159 20.4715 85.9972 20.4058C86.6097 20.3621 87.3644 20.384 88.2613 20.4715C89.1582 20.5371 89.9676 20.6246 90.6895 20.734C91.302 20.7777 92.0567 20.7996 92.9536 20.7996C93.8504 20.7996 94.7801 20.7996 95.7427 20.7996C96.7052 20.7777 97.6458 20.7558 98.5646 20.734C99.5052 20.7121 100.304 20.6793 100.96 20.6355L101.058 17.4198C100.424 17.4198 99.6911 17.4308 98.8599 17.4526C98.0286 17.4526 97.2083 17.4526 96.3989 17.4526C95.5895 17.4745 94.8676 17.4964 94.2333 17.5183C93.5989 17.5183 93.1723 17.5183 92.9536 17.5183C92.5598 17.562 92.1879 17.6276 91.8379 17.7151C91.4879 17.8026 91.2254 17.8792 91.0504 17.9448C90.941 17.9886 90.8207 18.0433 90.6895 18.1089C90.5801 18.1527 90.4379 18.1855 90.2629 18.2073C90.1098 18.2292 89.9348 18.2402 89.7379 18.2402C89.541 18.2183 89.3222 18.1636 89.0816 18.0761C88.7316 17.9667 88.2941 17.8136 87.7691 17.6167C87.266 17.3979 86.741 17.1136 86.1941 16.7636C85.8222 16.501 85.6909 16.2604 85.8003 16.0417C85.9097 15.8229 86.2706 15.7354 86.8831 15.7792C87.4738 15.8448 88.2066 15.9104 89.0816 15.976C89.9785 16.0198 90.7879 16.0417 91.5098 16.0417C92.0348 16.0635 92.6692 16.0854 93.4129 16.1073C94.1786 16.1073 94.9551 16.0964 95.7427 16.0745C96.552 16.0745 97.3286 16.0635 98.0724 16.0417C98.838 16.0198 99.5052 15.976 100.074 15.9104C100.14 15.9104 100.205 15.9104 100.271 15.9104C100.336 15.8885 100.391 15.8667 100.435 15.8448C100.479 15.8448 100.522 15.8448 100.566 15.8448C100.61 15.8229 100.654 15.801 100.697 15.7792C100.763 15.7792 100.818 15.7682 100.861 15.7463C100.927 15.7026 100.982 15.6698 101.026 15.6479C101.069 15.626 101.124 15.6042 101.19 15.5823C101.255 15.5604 101.321 15.5385 101.386 15.5167C101.846 15.4948 102.327 15.4948 102.83 15.5167C103.355 15.5385 103.793 15.5823 104.143 15.6479C104.493 15.7354 104.69 15.8995 104.733 16.1401C104.777 16.3589 104.766 16.5448 104.701 16.6979C104.635 16.8729 104.558 17.0698 104.471 17.2886C104.383 17.5073 104.318 17.7151 104.274 17.912L103.388 20.6683C103.738 20.6683 104.022 20.7449 104.241 20.898C104.482 21.0293 104.602 21.2043 104.602 21.423C104.602 21.6418 104.515 21.8277 104.34 21.9809C104.165 22.134 103.847 22.2106 103.388 22.2106C102.863 22.2324 101.966 22.2543 100.697 22.2762C99.4505 22.2762 98.138 22.2762 96.7599 22.2762C95.3817 22.2762 94.0911 22.2762 92.8879 22.2762C91.6848 22.2762 90.8754 22.2762 90.4598 22.2762V24.5075C90.4598 24.9013 90.591 25.1747 90.8535 25.3278C91.116 25.4591 91.4223 25.5247 91.7723 25.5247L97.9411 25.4919C98.1161 25.4919 98.3021 25.5028 98.4989 25.5247C98.7177 25.5247 98.9364 25.5138 99.1552 25.4919C99.374 25.47 99.5818 25.4372 99.7787 25.3934C99.9755 25.3278 100.172 25.2403 100.369 25.1309C100.435 25.0653 100.544 24.9997 100.697 24.9341C100.851 24.8684 101.026 24.8247 101.222 24.8028C101.726 24.7809 102.272 24.7809 102.863 24.8028C103.454 24.8028 103.935 24.8247 104.307 24.8684C104.788 24.9341 105.149 25.0872 105.39 25.3278C105.63 25.5685 105.751 25.8091 105.751 26.0497C105.729 26.3122 105.576 26.5419 105.291 26.7388C105.007 26.9357 104.591 27.0341 104.044 27.0341H97.5802V30.217ZM102.962 41.636C102.59 42.3798 102.065 43.0032 101.386 43.5064C100.73 44.0314 99.9318 44.4361 98.9911 44.7205C98.0724 45.0049 97.077 45.147 96.0052 45.147C94.8895 45.147 93.8723 45.0049 92.9536 44.7205C92.0348 44.4361 91.2363 44.0314 90.5582 43.5064C89.9019 43.0032 89.3879 42.3798 89.016 41.636C88.6441 40.9141 88.4582 40.1047 88.4582 39.2078C88.4582 38.3109 88.6441 37.5016 89.016 36.7797C89.4098 36.0578 89.9348 35.4343 90.591 34.9093C91.2691 34.4062 92.0676 34.0124 92.9864 33.728C93.9051 33.4436 94.9114 33.3015 96.0052 33.3015C97.0552 33.3015 98.0396 33.4436 98.9583 33.728C99.8771 34.0124 100.676 34.4062 101.354 34.9093C102.032 35.4343 102.568 36.0578 102.962 36.7797C103.355 37.5016 103.552 38.3109 103.552 39.2078C103.552 40.1047 103.355 40.9141 102.962 41.636ZM99.3849 42.0626C100.216 41.2751 100.632 40.3235 100.632 39.2078C100.632 38.0484 100.216 37.0969 99.3849 36.3531C98.5755 35.5874 97.4489 35.2046 96.0052 35.2046C94.5614 35.2046 93.4239 35.5874 92.5926 36.3531C91.7613 37.0969 91.3457 38.0484 91.3457 39.2078C91.3457 40.3235 91.7613 41.2751 92.5926 42.0626C93.4239 42.8501 94.5614 43.2439 96.0052 43.2439C97.4489 43.2439 98.5755 42.8501 99.3849 42.0626Z" fill="#001E44"/>
<path d="M74.0019 28.1171C74.0019 29.8234 73.816 31.2234 73.4441 32.3172C73.0722 33.3891 72.6894 33.925 72.2956 33.925C71.9019 33.9469 71.6175 33.575 71.4425 32.8094C71.2894 32.0437 71.2128 31.1468 71.2128 30.1187V28.0515C70.8847 28.0515 70.5893 28.0624 70.3268 28.0843C70.0862 28.1061 69.9221 28.1171 69.8346 28.1171C69.6159 28.1608 69.3425 28.2265 69.0143 28.314C68.6862 28.3796 68.3581 28.478 68.0299 28.6093C67.5706 28.8062 67.1659 28.9046 66.8159 28.9046C66.4877 28.9046 66.1815 28.839 65.8971 28.7077C65.5471 28.6202 65.2299 28.5218 64.9455 28.4124C64.683 28.303 64.4533 28.1827 64.2564 28.0515C63.6439 28.9265 62.8236 29.6265 61.7955 30.1515C60.7673 30.6546 59.597 30.9062 58.2845 30.9062C57.2126 30.9062 56.2282 30.7421 55.3313 30.414C54.4563 30.0859 53.6907 29.6265 53.0344 29.0359C52.4 28.4452 51.8969 27.7452 51.525 26.9358C51.175 26.1045 51 25.1967 51 24.2123C51 23.206 51.175 22.2873 51.525 21.456C51.8969 20.6247 52.4 19.9138 53.0344 19.3231C53.6907 18.7325 54.4563 18.2731 55.3313 17.945C56.2282 17.6168 57.2126 17.4528 58.2845 17.4528C59.4001 17.4528 60.4064 17.6278 61.3033 17.9778C62.2002 18.3278 62.9658 18.809 63.6002 19.4216H64.1908C64.4971 19.4653 64.9783 19.4981 65.6346 19.52C66.2908 19.5419 66.8815 19.5528 67.4065 19.5528C67.8659 19.5528 68.4346 19.5528 69.1128 19.5528C69.7909 19.5309 70.4909 19.5091 71.2128 19.4872V18.47C71.2128 17.9668 71.169 17.5403 71.0815 17.1903C70.994 16.8403 70.8081 16.5668 70.5237 16.3699C70.1518 16.1074 69.7143 15.8996 69.2112 15.7465C68.7299 15.5933 68.2596 15.473 67.8002 15.3855C67.6252 15.3637 67.5049 15.2762 67.4393 15.123C67.3956 14.9699 67.3956 14.8168 67.4393 14.6636C67.4612 14.5105 67.5377 14.3793 67.669 14.2699C67.8221 14.1386 68.019 14.073 68.2596 14.073C69.0909 14.0949 70.0534 14.1824 71.1472 14.3355C72.2628 14.4668 73.2144 14.6527 74.0019 14.8933C74.1331 14.959 74.2425 15.0902 74.33 15.2871C74.4175 15.4621 74.4285 15.6699 74.3628 15.9105C74.2535 16.2387 74.166 16.5777 74.1003 16.9278C74.0566 17.2559 74.0238 17.584 74.0019 17.9122V28.1171ZM67.308 26.6405C67.5487 26.6405 67.8221 26.6405 68.1284 26.6405C68.4346 26.6405 68.7518 26.6295 69.0799 26.6077C69.43 26.6077 69.78 26.6077 70.13 26.6077C70.48 26.5858 70.8409 26.5639 71.2128 26.542V20.9966C70.8847 20.9966 70.6112 21.0075 70.3925 21.0294C70.1956 21.0294 70.0534 21.0294 69.9659 21.0294C69.7471 21.0732 69.4737 21.1388 69.1456 21.2263C68.8174 21.2919 68.4893 21.3904 68.1612 21.5216C67.7018 21.7185 67.2971 21.8169 66.9471 21.8169C66.619 21.8169 66.3127 21.7513 66.0283 21.6201C65.8971 21.5982 65.7221 21.5544 65.5033 21.4888C65.2846 21.4013 65.0549 21.3138 64.8143 21.2263C65.0111 21.6638 65.1533 22.1451 65.2408 22.6701C65.3502 23.1732 65.4049 23.6873 65.4049 24.2123C65.4049 24.6717 65.3721 25.1092 65.3065 25.5248C65.2408 25.9186 65.1424 26.2905 65.0111 26.6405H67.308ZM58.2845 29.003C59.6407 29.003 60.7126 28.5327 61.5002 27.5921C62.3095 26.6514 62.7142 25.5139 62.7142 24.1795C62.7142 22.8232 62.3095 21.6747 61.5002 20.7341C60.7126 19.7716 59.6407 19.2903 58.2845 19.2903C56.9063 19.2903 55.8235 19.7716 55.036 20.7341C54.2485 21.6747 53.8547 22.8232 53.8547 24.1795C53.8547 25.5139 54.2485 26.6514 55.036 27.5921C55.8235 28.5327 56.9063 29.003 58.2845 29.003ZM73.7394 39.1424C73.7394 40.9143 73.0941 42.3581 71.8034 43.4737C70.5128 44.5894 68.8284 45.1472 66.7502 45.1472C65.7221 45.1472 64.7815 45.005 63.9283 44.7206C63.0752 44.4362 62.3314 44.0206 61.697 43.4737C61.0626 42.9487 60.5705 42.3143 60.2204 41.5705C59.8704 40.8486 59.6954 40.0393 59.6954 39.1424C59.6954 38.2236 59.8704 37.4032 60.2204 36.6814C60.5705 35.9595 61.0626 35.3469 61.697 34.8438C62.3314 34.3407 63.0752 33.9579 63.9283 33.6953C64.8033 33.411 65.744 33.2688 66.7502 33.2688C68.8284 33.2688 70.5128 33.7938 71.8034 34.8438C73.0941 35.872 73.7394 37.3048 73.7394 39.1424ZM66.7502 43.3096C68.0409 43.3096 69.0471 42.9049 69.769 42.0956C70.4909 41.308 70.8519 40.3455 70.8519 39.208C70.8519 38.0267 70.4909 37.0314 69.769 36.222C69.0471 35.3907 68.0409 34.9751 66.7502 34.9751C65.4596 34.9751 64.4314 35.3907 63.6658 36.222C62.9002 37.0314 62.5174 38.0267 62.5174 39.208C62.5174 40.3455 62.9002 41.308 63.6658 42.0956C64.4314 42.9049 65.4596 43.3096 66.7502 43.3096Z" fill="#001E44"/>
<defs>
<linearGradient id="paint0_linear_244_448" x1="39.9699" y1="10.0294" x2="22.2218" y2="22.8252" gradientUnits="userSpaceOnUse">
<stop stop-color="#001E44"/>
<stop offset="1" stop-color="#001E44" stop-opacity="0"/>
</linearGradient>
</defs>
</svg>
