<?xml version="1.0" encoding="UTF-8"?>
<svg id="_레이어_1" xmlns="http://www.w3.org/2000/svg" version="1.1" xmlns:xlink="http://www.w3.org/1999/xlink" viewBox="0 0 8192 1748.85">
  <!-- Generator: Adobe Illustrator 29.5.1, SVG Export Plug-In . SVG Version: 2.1.0 Build 141)  -->
  <defs>
    <style>
      .st0 {
        fill: url(#_무제_그라디언트);
      }

      .st1 {
        fill: none;
      }

      .st2 {
        fill: #001e44;
      }

      .st3 {
        clip-path: url(#clippath-1);
      }

      .st4 {
        clip-path: url(#clippath);
      }
    </style>
    <clipPath id="clippath">
      <polygon class="st1" points="1504.76 421.17 1662.75 349.76 1748.85 542.99 1590.86 614.4 1504.76 421.17"/>
    </clipPath>
    <linearGradient id="_무제_그라디언트" data-name="무제 그라디언트" x1="197.56" y1="-2704.3" x2="-910.54" y2="-1905.39" gradientTransform="translate(1434.91 2059.76) scale(.62)" gradientUnits="userSpaceOnUse">
      <stop offset="0" stop-color="#001e44"/>
      <stop offset="1" stop-color="#001e44" stop-opacity="0"/>
    </linearGradient>
    <clipPath id="clippath-1">
      <rect class="st1" x="637.32" y="199.56" width="833.4" height="987.58"/>
    </clipPath>
  </defs>
  <g class="st4">
    <path class="st2" d="M1705.8,446.39c-44.73,41.59-50.11,61.34-35.95,132.33-43.24-57.85-61.45-66.94-122.04-60.91,44.73-41.59,50.1-61.35,35.95-132.33,43.24,57.83,61.45,66.93,122.04,60.91h0Z"/>
  </g>
  <path class="st2" d="M526.21,70.44c-73.57,128.43-115.68,277.48-115.68,436.41,0,482.91,388.68,874.41,868.12,874.42,121.4,0,236.98-25.18,341.91-70.51-149.99,261.83-430.77,438.08-752.44,438.08-479.44,0-868.11-391.5-868.11-874.42C0,513.78,216.76,204.14,526.21,70.44Z"/>
  <path class="st0" d="M868.12,1748.84C389.43,1748.84,0,1356.57,0,874.42S389.43,0,868.12,0s868.16,392.25,868.16,874.42-389.45,874.42-868.16,874.42h0ZM868.12,38.86C410.87,38.86,38.86,413.7,38.86,874.42s372.01,835.56,829.26,835.56,829.3-374.81,829.3-835.56S1325.39,38.86,868.12,38.86Z"/>
  <g class="st3">
    <g>
      <path class="st2" d="M645.36,243.92h194.31v39.31h-194.31v-39.31ZM653.87,403.45h174.37v39.31h-174.37v-39.31ZM637.32,601.27c17.48-3.78,37.53-8.25,60.03-13.53,22.49-5.27,46.27-10.89,71.45-16.85,25.18-6.41,50.47-12.49,75.99-18.57l3.96,38.17c-35.09,9.4-70.52,18.57-106.3,27.51s-67.61,16.85-95.46,23.61l-9.68-40.46v.12h0ZM893.41,367.58h191.51v37.59h-191.51v-37.59h0ZM843.05,464.2h264.71v39.31h-264.71v-39.31ZM940.85,478.18h42.31v237.13h-42.31v-237.13h0ZM987.71,241.17c-10.25,19.83-23.66,40.45-39.98,61.77-15.97,20.97-34.15,41.15-54.32,60.63-19.82,19.48-40.8,36.56-62.83,51.12-2.33-5.28-5.71-11-10.25-17.42-4.55-6.76-8.74-12.38-12.59-16.85,22.14-14.21,43.24-31.29,63.41-51.11,20.63-19.83,39.05-41.03,55.48-63.49,16.79-22.81,29.96-44.93,39.4-66.24h40.56c12.94,23.26,28.56,46.07,46.86,68.53,18.3,22.46,37.76,43.09,58.28,61.77,20.98,18.34,41.49,33.69,61.78,46.07-4.2,5.27-8.62,11.46-13.17,18.57-4.2,6.76-7.81,12.95-10.84,18.57-20.63-13.87-41.15-30.15-61.78-48.82-20.17-19.14-39.05-39.31-56.65-60.63-17.14-21.32-31.59-42.18-43.48-62.35l.12-.11h0ZM1088.88,464.2h41.73v155.64c0,10.09-1.28,18.34-3.96,24.76-2.68,6.42-8.04,11.46-15.97,15.13-8.04,3.32-18.65,5.39-32.06,6.18-12.94.35-29.49.57-49.77.57-.82-5.62-2.68-12.15-5.71-19.71-2.68-7.45-5.48-14.1-8.63-19.72,15.27.35,28.8.57,40.57.57h24.01c3.85-.35,6.3-1.14,7.46-2.3,1.52-1.14,2.33-3.32,2.33-6.76v-154.49.12h0ZM720.78,259.73h41.15v330.88l-41.15,8.49v-339.36Z"/>
      <path class="st2" d="M1172.56,671.41h37.18v76.32h-37.18v-76.32ZM1299.62,671.41h38.93v137.53h-38.93v-137.53ZM1106.25,724.13h176.24v33.69h-176.24v-33.69ZM1320.83,715.76h145.94v34.27h-145.94v-34.27ZM1098.2,834.72h189.41v34.84h-189.41v-34.84ZM1135.38,975h115.63v29.22h-115.63v-29.22ZM1317.92,941.31h129.38v29.22h-129.38v-29.22ZM1317.92,1003.66h123.09v29.8h-123.09v-29.8ZM1317.92,1067.03h135.56v29.8h-135.56v-29.8h0ZM1135.38,1045.15h115.63v29.22h-115.63v-29.22ZM1128.5,763.44l28.56-7.34c4.54,11.58,8.62,24.53,12,38.74,3.38,13.87,5.71,25.67,6.88,35.3l-30.89,8.36c-.35-10.09-2.33-22.12-5.71-35.87-3.03-14.21-6.65-27.28-10.84-39.31v.11h0ZM1229.22,754.5l32.06,9.51c-5.01,13.07-9.68,26.36-14.34,39.88-4.2,13.53-8.39,25.22-12.59,35.3l-26.34-8.94c3.38-10.43,7.23-23.03,11.42-37.59,4.19-14.55,7.46-27.28,9.68-38.17h.12,0ZM1118.83,901.54h132.18v31.97h-96.74v253.63h-35.43v-285.6ZM1234.93,901.54h36.01v244.12c0,8.6-1.16,15.7-3.38,21.32-1.86,5.62-5.94,10.09-12,13.52-6.53,2.64-14.45,4.36-24.01,5.05-9.21.8-20.75,1.14-34.86,1.14-1.16-4.82-3.03-10.66-5.71-17.42-2.33-6.41-4.78-11.92-7.46-16.85,10.72.35,20.05.57,28.09.57s13.4-.23,15.97-.57c5.01,0,7.46-2.41,7.46-7.34v-243.54h-.12ZM1299.62,889.16h38.93v236.21c0,7.9,1.16,12.95,3.38,15.13,2.68,2.3,8.16,3.33,16.55,3.33h60.03c6.53,0,10.72-2.3,12.59-6.76,2.33-4.47,3.85-14.21,4.55-29.22,3.85,2.97,9.21,5.84,15.97,8.36,6.88,2.64,13.17,4.7,18.88,6.19-2.33,22.46-6.88,37.59-13.76,45.5-6.88,8.25-18.3,12.38-34.39,12.38h-69.24c-13.76,0-24.6-1.49-32.64-4.47-8.04-2.97-13.52-8.59-16.55-16.85-3.03-7.91-4.55-19.02-4.55-33.69v-236.21l.23.11h.02ZM940.84,715.19h154.57v38.17h-154.57v-38.17ZM948.89,876.79h141.85v37.59h-141.85v-37.59ZM934.55,1074.94c21.33-5.28,46.51-11.92,75.53-20.17,29.37-8.26,59.33-16.85,89.87-25.79l4.55,37.02c-28.2,8.59-56.41,17.19-84.74,25.78-27.86,8.25-53.38,15.7-76.7,22.46l-8.62-39.31h.12,0ZM1299.62,790.94h152.23v117.25h-152.23v-32.55h113.88v-52.72h-113.88v-31.97ZM1000.4,726.99h38.35v338.44l-38.35,10.09v-348.53h0Z"/>
    </g>
  </g>
  <g>
    <path class="st2" d="M8177.31,689.58h-111.65V114.12h111.65v575.46ZM7990.11,602.52c-30.08,12.81-72.95,23.36-128.59,31.65-54.91,7.54-116.16,11.31-183.86,11.31h-355.28V137.86h597.8v91.57h-487.26v116.45h468.11v89.31h-468.11v118.71h253.77c65.45,0,124.48-3.77,177.1-11.31,53.4-7.54,95.49-18.09,126.34-31.66v91.57h0ZM7773.52,720.09c127.82,0,229.37,14.32,304.53,42.96,75.98,27.89,113.95,73.49,113.95,136.8s-37.97,108.16-113.95,136.8c-75.94,28.64-177.45,42.96-304.53,42.96s-228.59-14.32-304.53-42.96-113.95-74.24-113.95-136.8,38.01-108.91,113.95-136.8c75.94-28.64,177.45-42.96,304.53-42.96ZM7773.52,990.31c90.24,0,162.8-7.54,217.71-22.61,54.88-14.32,82.31-36.93,82.31-67.84s-27.44-53.51-82.31-67.84c-54.91-15.07-127.47-22.61-217.71-22.61s-162.8,7.54-217.67,22.61c-54.91,14.32-82.35,36.93-82.35,67.84s27.44,53.51,82.35,67.84c54.88,15.07,127.43,22.61,217.67,22.61Z"/>
    <path class="st2" d="M7175.8,114.12v965.51h-106.02V114.12h106.02ZM6832.91,119.77h104.89v942.89h-104.89v-452.23h-161.28c-19.55,125.87-64.67,224.98-135.36,297.34-69.92,71.61-158.29,108.91-265.05,111.93v-102.88c83.44-4.52,150.36-34.3,200.77-89.32,50.37-55.77,82.35-131.15,95.87-226.11h-296.64v-100.62h304.53v-250.99h-304.53v-100.62h410.55v356.13h151.14V119.77h0Z"/>
    <path class="st2" d="M6228.44,612.69h-135.36v466.92h-111.65V114.12h111.65v391.18h135.36v107.4h0ZM5266.3,149.16h535.77v872.79h-535.77V149.16ZM5378,917.95h312.42V253.18h-312.42v664.78h0Z"/>
    <path class="st2" d="M4843.44,297.26h-654.22v-91.57h270.72v-108.54h112.78v108.54h270.72v91.57h0ZM5199.85,378.66v107.41h-135.36v351.6h-111.65V114.11h111.65v264.55h135.36ZM4516.33,747.23c-54.14,0-103.03-7.54-146.63-22.61-42.87-15.83-76.68-38.82-101.51-68.96-24.79-30.15-37.23-65.57-37.23-106.27s12.44-76.13,37.23-106.28c24.83-30.15,58.64-52.76,101.51-67.83,43.6-15.83,92.5-23.74,146.63-23.74s102.64,7.91,145.51,23.74c42.86,15.07,76.72,37.69,101.51,67.83,24.83,29.4,37.23,64.82,37.23,106.28s-12.4,77.25-37.23,107.4c-24.79,29.4-58.64,52.01-101.51,67.84-42.87,15.07-91.37,22.61-145.51,22.61h0ZM4516.33,437.45c-53.4,0-96.22,10.55-128.56,31.65-32.34,21.1-48.5,47.86-48.5,80.27s16.16,60.3,48.5,81.4c32.34,20.35,75.16,30.52,128.56,30.52s96.27-10.18,128.6-30.52c32.34-21.1,48.5-48.24,48.5-81.4s-16.16-59.17-48.5-80.27c-32.34-21.1-75.2-31.65-128.6-31.65h0ZM4371.95,967.68h718.5v99.49h-831.28v-264.55h112.78v165.06h0Z"/>
    <path class="st2" d="M4126.18,610.43v85.92h-962.13v-85.92h425.23v-88.18h-355.3v-238.55h713.97v-74.62h-713.97v-83.66h823.37v238.55h-713.97v74.62h727.53v83.66h-371.1v88.18h426.36,0ZM3644.54,763.06c125.58,0,227.47,12.81,305.66,38.44,78.23,25.63,117.33,65.95,117.33,120.97s-39.48,95.34-118.45,120.97c-78.2,26.38-179.71,39.57-304.54,39.57s-226.71-13.19-305.67-39.57c-78.2-25.63-117.3-65.95-117.3-120.97s39.1-95.34,117.3-120.97c78.2-25.63,180.09-38.44,305.67-38.44ZM3644.54,999.34c86.48,0,159.04-6.41,217.69-19.22,58.67-12.81,87.97-32.03,87.97-57.66s-29.69-44.84-89.1-57.66c-58.65-12.81-130.84-19.22-216.57-19.22s-158.29,6.41-217.69,19.22c-58.65,12.81-87.98,32.03-87.98,57.66s29.32,44.84,87.98,57.66c58.65,12.81,131.21,19.22,217.69,19.22Z"/>
    <path class="st2" d="M2931.78,439.72v-143.58h-161.29l-6.76-96.1h168.06v-85.92h110.54v533.62h-110.54v-111.93h-168.06l6.76-96.1h161.29ZM2737.77,369.63c0,48.24-12.03,91.19-36.09,128.88-24.07,36.93-58.65,65.57-103.77,85.92-44.37,20.35-96.63,30.52-156.79,30.52s-111.66-10.17-156.78-30.52c-44.37-20.35-78.58-48.99-102.64-85.92-24.07-37.69-36.09-80.64-36.09-128.88s12.03-90.82,36.09-127.75c24.06-36.93,58.27-65.57,102.64-85.92,45.12-21.1,97.38-31.66,156.78-31.66s112.42,10.55,156.79,31.66c45.12,20.35,79.7,48.99,103.77,85.92,24.07,36.93,36.09,79.52,36.09,127.75h0ZM2256.14,369.63c0,47.49,16.54,84.79,49.63,111.93,33.84,26.38,78.96,39.57,135.35,39.57s101.14-13.19,134.23-39.57c33.84-27.13,50.75-64.44,50.75-111.93s-16.92-84.41-50.75-110.79c-33.09-27.13-77.83-40.7-134.23-40.7s-101.52,13.56-135.35,40.7c-33.08,26.38-49.63,63.31-49.63,110.79h0ZM2639.64,679.4c124.07,0,223.71,16.2,298.9,48.61,75.2,32.41,112.79,82.91,112.79,151.5s-37.6,119.08-112.79,151.49c-75.2,32.41-174.83,48.62-298.9,48.62s-223.71-16.21-298.9-48.62c-74.45-32.41-111.66-82.91-111.66-151.49s37.22-119.09,111.66-151.5c75.19-32.41,174.83-48.61,298.9-48.61ZM2639.64,986.91c86.47,0,156.79-9.04,210.92-27.13,54.14-18.09,81.21-44.84,81.21-80.27s-27.44-62.18-82.34-80.27c-54.14-18.09-124.07-27.13-209.8-27.13s-156.03,9.05-210.92,27.13c-54.14,18.09-81.21,44.84-81.21,80.27s27.07,62.18,81.21,80.27c54.14,18.09,124.44,27.13,210.92,27.13h0Z"/>
    <path class="st2" d="M2144.68,1395.62h28.44l56.87,95.95h2.41l56.87-95.95h28.44l-74.1,120.84v84.71h-24.83v-84.71l-74.1-120.84h0ZM2572.45,1498.41c0,21.68-3.91,40.41-11.72,56.2-7.81,15.79-18.53,27.97-32.14,36.54-13.62,8.56-29.17,12.84-46.66,12.84s-33.04-4.28-46.66-12.84c-13.62-8.57-24.33-20.74-32.14-36.54-7.81-15.79-11.72-34.53-11.72-56.2s3.91-40.42,11.72-56.21c7.81-15.79,18.53-27.97,32.14-36.54,13.62-8.57,29.17-12.85,46.66-12.85s33.04,4.28,46.66,12.85c13.62,8.56,24.33,20.74,32.14,36.54,7.81,15.79,11.72,34.52,11.72,56.21ZM2548.42,1498.41c0-17.8-2.97-32.83-8.91-45.07-5.87-12.24-13.86-21.51-23.93-27.8-10.02-6.29-21.23-9.44-33.65-9.44s-23.66,3.14-33.75,9.44c-10.02,6.29-17.99,15.55-23.93,27.8-5.87,12.24-8.82,27.26-8.82,45.07s2.94,32.82,8.82,45.06c5.94,12.24,13.92,21.52,23.93,27.81,10.08,6.29,21.33,9.44,33.75,9.44s23.63-3.14,33.65-9.44c10.08-6.29,18.06-15.55,23.93-27.81,5.94-12.24,8.91-27.26,8.91-45.06ZM2808,1395.62h24.83v136.1c0,14.06-3.3,26.6-9.91,37.64-6.54,10.97-15.79,19.64-27.74,26-11.95,6.29-25.97,9.44-42.06,9.44s-30.11-3.15-42.06-9.44c-11.95-6.35-21.23-15.03-27.84-26-6.54-11.04-9.81-23.59-9.81-37.64v-136.1h24.83v134.09c0,10.04,2.2,18.97,6.61,26.8,4.41,7.76,10.68,13.89,18.83,18.37,8.21,4.42,18.02,6.63,29.44,6.63s21.23-2.21,29.44-6.63c8.21-4.48,14.49-10.61,18.83-18.37,4.41-7.83,6.61-16.76,6.61-26.8v-134.09h.01ZM3104.27,1395.62v205.56h-24.04l-111.75-161.4h-2v161.4h-24.84v-205.56h24.04l112.15,161.79h2v-161.79h24.43ZM3353.37,1459.86c-2.2-6.76-5.11-12.81-8.71-18.17-3.53-5.42-7.78-10.04-12.72-13.85-4.87-3.81-10.42-6.73-16.62-8.73-6.21-2-13.02-3.01-20.43-3.01-12.15,0-23.2,3.14-33.14,9.44-9.94,6.29-17.86,15.55-23.74,27.8s-8.82,27.26-8.82,45.07,2.97,32.82,8.92,45.06c5.94,12.24,13.98,21.52,24.13,27.81,10.15,6.29,21.56,9.44,34.24,9.44,11.75,0,22.1-2.51,31.05-7.53,9.01-5.08,16.02-12.24,21.02-21.48,5.08-9.3,7.61-20.25,7.61-32.83l7.62,1.61h-61.68v-22.08h78.1v22.08c0,16.93-3.6,31.65-10.81,44.16-7.14,12.51-17.02,22.21-29.64,29.11-12.55,6.83-26.97,10.24-43.26,10.24-18.16,0-34.11-4.28-47.86-12.84-13.69-8.57-24.37-20.74-32.04-36.54-7.62-15.79-11.42-34.53-11.42-56.2,0-16.26,2.17-30.89,6.51-43.86,4.41-13.05,10.61-24.16,18.63-33.32,8.01-9.16,17.48-16.2,28.43-21.08,10.95-4.88,23-7.32,36.15-7.32,10.81,0,20.9,1.64,30.24,4.92,9.41,3.21,17.79,7.8,25.13,13.75,7.41,5.89,13.59,12.95,18.53,21.18,4.94,8.16,8.35,17.23,10.21,27.2h-25.63v-.02ZM3481.96,1601.18v-205.56h24.83v183.47h95.33v22.09h-120.16,0ZM3864.84,1498.41c0,21.68-3.91,40.41-11.72,56.2-7.81,15.79-18.53,27.97-32.14,36.54-13.62,8.56-29.17,12.84-46.66,12.84s-33.05-4.28-46.66-12.84c-13.62-8.57-24.33-20.74-32.15-36.54-7.81-15.79-11.72-34.53-11.72-56.2s3.91-40.42,11.72-56.21c7.81-15.79,18.53-27.97,32.15-36.54,13.61-8.57,29.17-12.85,46.66-12.85s33.04,4.28,46.66,12.85c13.62,8.56,24.33,20.74,32.14,36.54,7.81,15.79,11.72,34.52,11.72,56.21ZM3840.8,1498.41c0-17.8-2.97-32.83-8.91-45.07-5.87-12.24-13.85-21.51-23.93-27.8-10.02-6.29-21.23-9.44-33.65-9.44s-23.67,3.14-33.75,9.44c-10.01,6.29-17.99,15.55-23.93,27.8-5.87,12.24-8.81,27.26-8.81,45.07s2.94,32.82,8.81,45.06c5.94,12.24,13.92,21.52,23.93,27.81,10.08,6.29,21.33,9.44,33.75,9.44s23.63-3.14,33.65-9.44c10.08-6.29,18.06-15.55,23.93-27.81,5.94-12.24,8.91-27.26,8.91-45.06ZM4128.43,1395.62v205.56h-24.02l-111.77-161.4h-1.98v161.4h-24.83v-205.56h24.02l112.16,161.79h1.98v-161.79h24.45ZM4377.55,1459.86c-2.22-6.76-5.13-12.81-8.7-18.17-3.53-5.42-7.77-10.04-12.75-13.85-4.86-3.81-10.42-6.73-16.59-8.73-6.22-2-13.02-3.01-20.44-3.01-12.16,0-23.2,3.14-33.15,9.44-9.95,6.29-17.84,15.55-23.74,27.8-5.87,12.24-8.79,27.26-8.79,45.07s2.96,32.82,8.9,45.06c5.95,12.24,13.99,21.52,24.13,27.81,10.14,6.29,21.57,9.44,34.24,9.44,11.78,0,22.11-2.51,31.05-7.53,9.02-5.08,16.01-12.24,21.02-21.48,5.09-9.3,7.62-20.25,7.62-32.83l7.62,1.61h-61.68v-22.08h78.08v22.08c0,16.93-3.61,31.65-10.8,44.16-7.15,12.51-17.02,22.21-29.65,29.11-12.55,6.83-26.97,10.24-43.25,10.24-18.15,0-34.08-4.28-47.84-12.84-13.72-8.57-24.37-20.74-32.06-36.54-7.62-15.79-11.42-34.53-11.42-56.2,0-16.26,2.18-30.89,6.53-43.86,4.39-13.05,10.61-24.16,18.62-33.32s17.49-16.2,28.45-21.08c10.96-4.88,23.01-7.32,36.14-7.32,10.8,0,20.91,1.64,30.24,4.92,9.41,3.21,17.8,7.8,25.14,13.75,7.42,5.89,13.56,12.95,18.54,21.18,4.93,8.16,8.32,17.23,10.19,27.2h-25.61v-.02ZM4644.65,1395.62h29.65l69.68,170.63h2.41l69.68-170.63h29.65v205.56h-23.24v-156.18h-2.02l-64.09,156.18h-22.42l-64.09-156.18h-1.98v156.18h-23.24v-205.56h0ZM4963.13,1601.18h-26.04l75.32-205.56h25.65l75.28,205.56h-26.04l-61.29-173.04h-1.59l-61.29,173.04h0ZM4972.77,1520.88h104.93v22.08h-104.93v-22.08ZM5204.51,1601.18v-205.56h69.29c16.01,0,29.15,2.74,39.45,8.23,10.3,5.42,17.88,12.88,22.85,22.38,4.93,9.5,7.39,20.31,7.39,32.42s-2.45,22.85-7.39,32.22c-4.97,9.36-12.55,16.72-22.73,22.08-10.22,5.28-23.28,7.93-39.17,7.93h-56.08v-22.48h55.26c10.96,0,19.78-1.61,26.47-4.82,6.73-3.22,11.62-7.76,14.62-13.65,3.07-5.95,4.59-13.05,4.59-21.28s-1.52-15.42-4.59-21.58-7.96-10.91-14.73-14.25c-6.73-3.42-15.66-5.12-26.74-5.12h-43.64v183.48h-24.85ZM5301.05,1508.84l50.45,92.34h-28.84l-49.67-92.34h28.06ZM5444.11,1601.18v-205.56h24.83v101.98h2.41l92.1-101.98h32.45l-86.12,92.74,86.12,112.82h-30.04l-71.32-95.55-25.61,28.91v66.65h-24.83ZM5687.27,1601.18v-205.56h123.74v22.08h-98.9v69.46h92.5v22.09h-92.5v69.85h100.54v22.09h-125.38ZM5903.78,1417.7v-22.08h153.82v22.08h-64.47v183.48h-24.83v-183.48h-64.52,0ZM6179.98,1395.62v205.56h-24.83v-205.56h24.83ZM6451.59,1395.62v205.56h-24.02l-111.77-161.4h-1.99v161.4h-24.83v-205.56h24.02l112.16,161.79h2.02v-161.79h24.41ZM6700.71,1459.86c-2.21-6.76-5.09-12.81-8.7-18.17-3.53-5.42-7.77-10.04-12.71-13.85-4.9-3.81-10.42-6.73-16.63-8.73s-13.02-3.01-20.44-3.01c-12.13,0-23.2,3.14-33.15,9.44-9.95,6.29-17.84,15.55-23.71,27.8s-8.82,27.26-8.82,45.07,2.96,32.82,8.9,45.06c5.95,12.24,13.99,21.52,24.13,27.81,10.14,6.29,21.57,9.44,34.24,9.44,11.78,0,22.11-2.51,31.05-7.53,9.02-5.08,16.05-12.24,21.02-21.48,5.09-9.3,7.62-20.25,7.62-32.83l7.62,1.61h-61.68v-22.08h78.12v22.08c0,16.93-3.61,31.65-10.84,44.16-7.11,12.51-17.02,22.21-29.62,29.11-12.55,6.83-26.97,10.24-43.29,10.24-18.15,0-34.08-4.28-47.84-12.84-13.68-8.57-24.37-20.74-32.06-36.54-7.62-15.79-11.39-34.53-11.39-56.2,0-16.26,2.14-30.89,6.49-43.86,4.39-13.05,10.61-24.16,18.62-33.32s17.49-16.2,28.45-21.08c10.96-4.88,23.01-7.32,36.14-7.32,10.84,0,20.91,1.64,30.24,4.92,9.44,3.21,17.8,7.8,25.14,13.75,7.42,5.89,13.6,12.95,18.54,21.18,4.93,8.16,8.36,17.23,10.22,27.2h-25.65v-.02ZM7107.99,1459.86c-2.21-6.76-5.13-12.81-8.67-18.17-3.58-5.42-7.81-10.04-12.75-13.85-4.9-3.81-10.38-6.73-16.63-8.73-6.22-2-13.02-3.01-20.4-3.01-12.16,0-23.24,3.14-33.15,9.44-9.95,6.29-17.84,15.55-23.71,27.8-5.9,12.24-8.86,27.26-8.86,45.07s2.96,32.82,8.94,45.06c5.9,12.24,13.95,21.52,24.1,27.81,10.19,6.29,21.57,9.44,34.28,9.44,11.73,0,22.08-2.51,31.01-7.53,9.02-5.08,16.05-12.24,21.06-21.48,5.09-9.3,7.62-20.25,7.62-32.83l7.62,1.61h-61.72v-22.08h78.12v22.08c0,16.93-3.61,31.65-10.8,44.16-7.15,12.51-17.02,22.21-29.65,29.11-12.55,6.83-26.93,10.24-43.25,10.24-18.15,0-34.12-4.28-47.88-12.84-13.68-8.57-24.37-20.74-32.02-36.54-7.62-15.79-11.42-34.53-11.42-56.2,0-16.26,2.18-30.89,6.49-43.86,4.43-13.05,10.65-24.16,18.65-33.32s17.49-16.2,28.45-21.08c10.96-4.88,22.97-7.32,36.14-7.32,10.8,0,20.87,1.64,30.2,4.92,9.48,3.21,17.84,7.8,25.14,13.75,7.46,5.89,13.6,12.95,18.54,21.18,4.93,8.16,8.36,17.23,10.26,27.2h-25.69v-.02ZM7236.59,1601.18v-205.56h69.33c16.01,0,29.11,2.74,39.41,8.23,10.3,5.42,17.91,12.88,22.85,22.38,4.93,9.5,7.42,20.31,7.42,32.42s-2.49,22.85-7.42,32.22c-4.93,9.36-12.51,16.72-22.73,22.08-10.22,5.28-23.28,7.93-39.17,7.93h-56.04v-22.48h55.26c10.96,0,19.78-1.61,26.47-4.82,6.73-3.22,11.58-7.76,14.62-13.65,3.03-5.95,4.59-13.05,4.59-21.28s-1.56-15.42-4.59-21.58c-3.11-6.15-8.01-10.91-14.77-14.25-6.73-3.42-15.66-5.12-26.7-5.12h-43.64v183.48h-24.88ZM7333.13,1508.84l50.48,92.34h-28.88l-49.63-92.34h28.02ZM7649.24,1498.41c0,21.68-3.93,40.41-11.73,56.2-7.81,15.79-18.54,27.97-32.14,36.54-13.6,8.56-29.19,12.84-46.68,12.84s-33.03-4.28-46.63-12.84c-13.64-8.57-24.37-20.74-32.18-36.54-7.77-15.79-11.7-34.53-11.7-56.2s3.93-40.42,11.7-56.21c7.81-15.79,18.54-27.97,32.18-36.54,13.6-8.57,29.19-12.85,46.63-12.85s33.07,4.28,46.68,12.85c13.6,8.56,24.33,20.74,32.14,36.54,7.81,15.79,11.73,34.52,11.73,56.21ZM7625.22,1498.41c0-17.8-3.03-32.83-8.94-45.07-5.87-12.24-13.87-21.51-23.94-27.8-9.99-6.29-21.22-9.44-33.65-9.44s-23.67,3.14-33.74,9.44c-9.99,6.29-17.99,15.55-23.98,27.8-5.87,12.24-8.79,27.26-8.79,45.07s2.91,32.82,8.79,45.06c5.99,12.24,13.99,21.52,23.98,27.81,10.07,6.29,21.33,9.44,33.74,9.44s23.67-3.14,33.65-9.44c10.07-6.29,18.07-15.55,23.94-27.81,5.9-12.24,8.94-27.26,8.94-45.06ZM7884.79,1395.62h24.79v136.1c0,14.06-3.3,26.6-9.91,37.64-6.53,10.97-15.74,19.64-27.75,26-11.93,6.29-25.92,9.44-42.05,9.44s-30.08-3.15-42.01-9.44c-11.97-6.35-21.26-15.03-27.86-26-6.53-11.04-9.83-23.59-9.83-37.64v-136.1h24.88v134.09c0,10.04,2.21,18.97,6.57,26.8,4.43,7.76,10.73,13.89,18.85,18.37,8.24,4.42,18.03,6.63,29.42,6.63s21.26-2.21,29.46-6.63c8.24-4.48,14.5-10.61,18.81-18.37,4.43-7.83,6.64-16.76,6.64-26.8v-134.09h0ZM8018.44,1601.18v-205.56h69.26c16.09,0,29.26,2.91,39.48,8.74,10.26,5.76,17.88,13.55,22.82,23.39,4.93,9.84,7.42,20.81,7.42,32.92s-2.49,23.12-7.42,33.02c-4.86,9.91-12.44,17.8-22.62,23.69-10.26,5.82-23.32,8.73-39.25,8.73h-49.67v-22.08h48.89c11,0,19.82-1.91,26.51-5.72,6.64-3.81,11.5-8.97,14.5-15.46,3.07-6.56,4.62-13.95,4.62-22.18s-1.56-15.59-4.62-22.08c-2.99-6.49-7.85-11.58-14.62-15.26-6.73-3.75-15.7-5.62-26.82-5.62h-43.68v183.48h-24.79v-.02Z"/>
  </g>
</svg>