<svg width="487" height="100" viewBox="0 0 487 100" fill="none" xmlns="http://www.w3.org/2000/svg">
<g clip-path="url(#clip0_183_311)">
<path d="M198.699 31.2888C197.798 31.0772 196.639 30.6908 195.231 30.1296C193.823 29.5685 192.398 28.8693 190.962 28.0322C189.776 27.3238 188.662 26.5051 187.641 25.5852C186.62 24.6652 185.755 23.7912 185.065 22.9449C184.495 23.9108 183.62 24.9872 182.452 26.1739C181.284 27.3698 179.986 28.4002 178.551 29.2741C176.868 30.3228 175.377 31.1324 174.071 31.7211C172.764 32.3099 171.697 32.7238 170.878 32.9722L166.149 27.5814C167.253 27.287 168.799 26.6798 170.786 25.7599C172.774 24.84 174.439 23.8648 175.791 22.8161C177.392 21.6018 178.615 20.4427 179.48 19.3388C180.336 18.2256 180.934 16.9837 181.265 15.6038H170.142V9.52302H199.877V15.6038H188.699C189.233 16.9009 189.923 18.0601 190.787 19.0812C191.652 20.1023 192.71 21.0406 193.98 21.8686C195.701 22.9541 197.274 23.8005 198.709 24.4076C200.144 25.0148 201.377 25.4195 202.398 25.6312L198.709 31.2795L198.699 31.2888ZM211.387 53.1098C207.596 55.198 202.278 56.2467 195.443 56.2467C188.607 56.2467 183.335 55.2163 179.526 53.1741C175.717 51.1228 173.813 48.5098 173.813 45.3363C173.813 42.1624 175.717 39.6326 179.526 37.4983C183.335 35.3641 188.644 34.3062 195.443 34.3062C202.242 34.3062 207.596 35.3733 211.387 37.4983C215.177 39.6326 217.072 42.2452 217.072 45.3363C217.072 48.4272 215.177 51.0215 211.387 53.1098ZM176.095 6.27563V0.378849H194.099V6.27563H176.095ZM185.774 49.0345C188.294 50.0372 191.533 50.5337 195.507 50.5337C199.482 50.5337 202.628 50.028 205.186 49.0345C207.743 48.0315 209.022 46.8172 209.022 45.4006C209.022 43.8089 207.743 42.5488 205.186 41.6105C202.628 40.6721 199.399 40.2029 195.507 40.2029C191.615 40.2029 188.285 40.6721 185.774 41.6105C183.252 42.5488 181.992 43.7906 181.992 45.3363C181.992 46.7989 183.252 48.0315 185.774 49.0345ZM209.096 33.5426V21.887H199.509V15.8706H209.096V0.314453H216.226V33.5426H209.096Z" fill="#221E1F"/>
<path d="M249.437 32.4755V55.483H242.123V32.4755H220.061V26.1463H257.358C257.846 24.6468 258.407 22.2182 259.042 18.8696C259.677 15.5302 260.072 12.3933 260.238 9.46782H226.077V3.13867H268.417C268.417 4.05861 268.233 5.97208 267.865 8.87908C267.497 11.7861 267.147 14.2423 266.816 16.2478C266.494 18.2993 266.098 20.2311 265.647 22.0526C265.197 23.8741 264.865 25.2356 264.663 26.1555H274.121V32.4847H249.418L249.437 32.4755Z" fill="#221E1F"/>
<path d="M271.933 48.9009V42.5716H290.002V23.8877H297.317V42.5716H326.012V48.9009H271.943H271.933ZM319.25 13.2256C318.918 16.197 318.551 18.9936 318.146 21.6246C317.529 25.6816 316.968 28.9933 316.462 31.56C315.947 34.1266 315.671 35.4973 315.634 35.6629H308.633C308.716 35.2857 309.231 32.3511 310.197 26.8499C311.163 21.3578 311.706 16.5742 311.825 12.5264H277.72V6.19727H319.747C319.747 7.90835 319.59 10.2542 319.259 13.2164L319.25 13.2256Z" fill="#221E1F"/>
<path d="M325.403 30.836V24.6265H379.472V30.836H325.403ZM368.598 53.0987C364.872 55.2326 359.48 56.3 352.442 56.3C345.404 56.3 340.059 55.2326 336.305 53.0987C332.561 50.9643 330.683 48.2874 330.683 45.0765C330.683 41.8661 332.561 39.2075 336.305 37.11C340.059 35.0218 345.432 33.973 352.442 33.973C359.453 33.973 364.872 35.0309 368.598 37.1376C372.324 39.2442 374.182 41.9121 374.182 45.1317C374.182 48.3517 372.324 50.9643 368.598 53.0987ZM332.165 20.6799V1.86719H372.71V8.07676H339.286V14.4703H373.326V20.6799H332.156H332.165ZM362.295 41.2773C359.857 40.339 356.573 39.8698 352.442 39.8698C348.311 39.8698 344.953 40.3298 342.515 41.2497C340.077 42.1697 338.862 43.4392 338.862 45.0765C338.862 46.7143 340.077 48.0021 342.515 48.9678C344.953 49.9248 348.265 50.403 352.442 50.403C356.619 50.403 359.857 49.943 362.295 49.023C364.733 48.1035 365.948 46.8243 365.948 45.1961C365.948 43.5678 364.724 42.2157 362.295 41.2773Z" fill="#221E1F"/>
<path d="M381.454 14.167V8.39904H415.798V14.167H381.454ZM409.873 31.6918C407.113 33.4673 403.35 34.3597 398.603 34.3597C394.132 34.3597 390.443 33.4673 387.535 31.6918C384.628 29.9163 383.174 27.7085 383.174 25.0775C383.174 22.4465 384.619 20.2846 387.508 18.592C390.397 16.8993 394.132 16.0529 398.723 16.0529C403.313 16.0529 407.215 16.8993 409.938 18.592C412.661 20.2846 414.023 22.4465 414.023 25.0775C414.023 27.7085 412.633 29.9163 409.873 31.6918ZM420.417 55.4813V44.387H387.609V38.113H427.731V55.4813H420.417ZM389.568 5.768V0H407.638V5.768H389.568ZM404.408 22.3821C403.038 21.7565 401.142 21.4437 398.723 21.4437C396.303 21.4437 394.435 21.7657 392.982 22.4097C391.528 23.0537 390.801 23.946 390.801 25.0775C390.801 26.209 391.528 27.175 392.982 27.8649C394.435 28.5549 396.349 28.9044 398.723 28.9044C401.096 28.9044 403.038 28.5457 404.408 27.8373C405.779 27.129 406.469 26.1906 406.469 25.0131C406.469 23.8356 405.779 23.0077 404.408 22.3821ZM427.731 21.7565V35.4268H420.601V0.312779H427.731V15.2986H435.1V21.7565H427.731Z" fill="#221E1F"/>
<path d="M432.919 48.8972V42.5682H445.027V23.9487H452.275V42.5682H458.789V23.9487H466.042V42.5682H487V48.8972H432.928H432.919ZM481.026 13.2222C480.704 16.2304 480.33 19.0546 479.921 21.6856C479.308 25.7425 478.773 29.0175 478.295 31.529C477.825 34.0312 477.569 35.3743 477.53 35.5399H470.399C470.485 35.1627 471.007 32.2373 471.973 26.7637C472.938 21.2901 473.473 16.5248 473.603 12.4678H438.696V6.13867H481.526C481.526 7.84976 481.356 10.214 481.026 13.2222Z" fill="#221E1F"/>
<path d="M182.092 78.6623C181.761 77.6228 181.061 76.5467 179.976 75.4519C178.89 74.3571 177.317 73.8054 175.247 73.8054C172.947 73.8054 171.125 74.6793 169.773 76.4362C168.42 78.1841 167.749 80.4471 167.749 83.2162C167.749 85.9854 168.429 88.2849 169.791 90.0515C171.153 91.8267 172.984 92.7102 175.274 92.7102C177.345 92.7102 178.918 92.1397 179.994 90.9897C181.071 89.8397 181.761 88.7084 182.074 87.5767H184.318C183.987 88.9475 183.122 90.4654 181.705 92.1119C180.289 93.7589 178.154 94.5867 175.284 94.5867C172.266 94.5867 169.893 93.538 168.135 91.4406C166.378 89.3428 165.504 86.6015 165.504 83.2162C165.504 79.831 166.378 77.1536 168.135 75.0562C169.883 72.9589 172.266 71.9102 175.284 71.9102C178.09 71.9102 180.233 72.7197 181.724 74.3388C183.214 75.958 184.097 77.4023 184.383 78.6719H182.11L182.092 78.6623Z" fill="#BCBEC0"/>
<path d="M198.718 94.0082V84.1738C198.718 82.7573 198.341 81.6808 197.596 80.9451C196.851 80.209 195.83 79.8412 194.541 79.8412C193.088 79.8412 191.873 80.3195 190.898 81.2851C189.923 82.2512 189.435 83.2634 189.435 84.3303V94.0082H187.347V72.4355H189.435V80.4851C190.107 79.7029 190.944 79.0408 191.938 78.4886C192.932 77.9369 194.164 77.7068 195.645 77.8077C197.283 77.8908 198.562 78.5073 199.473 79.6569C200.383 80.8069 200.844 82.0673 200.844 83.4382V94.0173H198.718V94.0082Z" fill="#BCBEC0"/>
<path d="M205.784 86.7258C205.83 88.5293 206.409 89.9919 207.541 91.1049C208.663 92.218 209.887 92.7793 211.193 92.7793C212.592 92.7793 213.659 92.4758 214.423 91.8684C215.177 91.2614 215.683 90.5897 215.931 89.8536H218.268C217.882 90.921 217.146 91.9697 216.06 93.0184C214.974 94.058 213.365 94.5823 211.239 94.5823C208.967 94.5823 207.118 93.7727 205.701 92.1536C204.284 90.5345 203.585 88.5475 203.585 86.1923C203.585 83.8375 204.284 81.8227 205.673 80.2127C207.072 78.6027 208.912 77.8027 211.202 77.8027C213.309 77.8027 215.14 78.548 216.677 80.0471C218.213 81.5467 218.949 83.7545 218.885 86.6801L205.793 86.7167L205.784 86.7258ZM216.603 85.0058C216.538 83.3866 215.996 82.0801 214.956 81.1053C213.926 80.121 212.666 79.624 211.193 79.624C209.721 79.624 208.534 80.1114 207.522 81.0866C206.511 82.0619 205.949 83.3684 205.848 85.0058H216.603Z" fill="#BCBEC0"/>
<path d="M234.272 80.2062C235.661 81.8066 236.342 83.8031 236.342 86.204C236.342 88.6053 235.652 90.5553 234.272 92.1836C232.892 93.8118 231.015 94.6305 228.632 94.6305C226.249 94.6305 224.409 93.8118 223.039 92.1836C221.668 90.5553 220.978 88.5592 220.978 86.204C220.978 83.8492 221.668 81.8066 223.039 80.2062C224.409 78.6053 226.277 77.8145 228.632 77.8145C230.988 77.8145 232.892 78.6145 234.272 80.2062ZM232.597 90.8866C233.6 89.6262 234.106 88.0623 234.106 86.204C234.106 84.3458 233.61 82.7545 232.597 81.5123C231.595 80.2705 230.27 79.654 228.632 79.654C226.995 79.654 225.707 80.2705 224.713 81.5123C223.719 82.7545 223.223 84.3184 223.223 86.204C223.223 88.0901 223.719 89.6262 224.713 90.8866C225.707 92.1471 227.013 92.7723 228.632 92.7723C230.251 92.7723 231.595 92.1471 232.597 90.8866Z" fill="#BCBEC0"/>
<path d="M250.736 93.9849V84.1784C250.736 82.7614 250.359 81.6854 249.614 80.9493C248.869 80.2132 247.847 79.8454 246.55 79.8454C245.097 79.8454 243.882 80.3236 242.907 81.2897C241.932 82.2558 241.444 83.3136 241.444 84.4541V93.9758H239.356V78.3919H241.444V80.4801C242.116 79.6797 242.962 79.0084 243.965 78.4654C244.968 77.9228 246.201 77.7019 247.654 77.8032C249.292 77.8858 250.571 78.5023 251.472 79.6523C252.392 80.8023 252.843 82.0623 252.843 83.4332V93.9758H250.727L250.736 93.9849Z" fill="#BCBEC0"/>
<path d="M270.513 92.1898C270.513 94.4067 269.814 96.0446 268.406 97.1206C266.998 98.1972 265.342 98.7306 263.41 98.7306C261.119 98.7306 259.39 98.1785 258.23 97.0746C257.071 95.9615 256.427 94.8211 256.28 93.6341H258.341C258.442 94.4715 258.92 95.235 259.785 95.9063C260.65 96.5872 261.865 96.9185 263.438 96.9185C265.011 96.9185 266.299 96.495 267.155 95.6398C268.02 94.7933 268.443 93.6433 268.443 92.2176V89.8533C267.946 90.7915 267.164 91.5185 266.087 92.0337C265.02 92.5485 263.916 92.8063 262.784 92.8063C260.696 92.8063 258.967 92.1163 257.586 90.7363C256.215 89.3563 255.525 87.5441 255.525 85.3089C255.525 83.0732 256.197 81.2333 257.549 79.8441C258.902 78.4459 260.641 77.7559 262.775 77.7559C263.925 77.7559 264.965 78.0046 265.922 78.4919C266.869 78.9798 267.66 79.6602 268.268 80.5159L268.424 80.4606V78.3354H270.485V92.1989L270.513 92.1898ZM266.998 89.4393C267.964 88.4459 268.452 87.0659 268.452 85.3089C268.452 83.5515 267.964 82.1072 266.998 81.1137C266.023 80.1202 264.726 79.6237 263.107 79.6237C261.487 79.6237 260.236 80.1202 259.279 81.1137C258.322 82.1072 257.844 83.5059 257.844 85.3089C257.844 87.1119 258.322 88.455 259.279 89.4393C260.227 90.4328 261.506 90.9293 263.107 90.9293C264.707 90.9293 266.023 90.4328 266.998 89.4393Z" fill="#BCBEC0"/>
<path d="M288.464 92.1898C288.464 94.4067 287.765 96.0446 286.358 97.1206C284.95 98.1972 283.285 98.7306 281.362 98.7306C279.062 98.7306 277.342 98.1785 276.182 97.0746C275.023 95.9615 274.37 94.8211 274.232 93.6341H276.293C276.403 94.4715 276.882 95.235 277.737 95.9063C278.602 96.5872 279.816 96.9185 281.399 96.9185C282.981 96.9185 284.26 96.495 285.116 95.6398C285.98 94.7933 286.413 93.6433 286.413 92.2176V89.8533C285.916 90.7915 285.134 91.5185 284.058 92.0337C282.981 92.5485 281.886 92.8063 280.755 92.8063C278.666 92.8063 276.937 92.1163 275.557 90.7363C274.186 89.3563 273.496 87.5441 273.496 85.3089C273.496 83.0732 274.177 81.2333 275.52 79.8441C276.873 78.4459 278.621 77.7559 280.745 77.7559C281.896 77.7559 282.944 78.0046 283.892 78.4919C284.84 78.9798 285.631 79.6602 286.247 80.5159L286.404 80.4606V78.3354H288.464V92.1989V92.1898ZM284.941 89.4393C285.916 88.4459 286.404 87.0659 286.404 85.3089C286.404 83.5515 285.916 82.1072 284.941 81.1137C283.966 80.1202 282.668 79.6237 281.049 79.6237C279.43 79.6237 278.179 80.1202 277.222 81.1137C276.274 82.1072 275.796 83.5059 275.796 85.3089C275.796 87.1119 276.274 88.455 277.222 89.4393C278.179 90.4328 279.448 90.9293 281.049 90.9293C282.65 90.9293 283.966 90.4328 284.941 89.4393Z" fill="#BCBEC0"/>
<path d="M303.535 94.065V91.7006C302.928 92.5193 302.137 93.2093 301.189 93.761C300.232 94.3132 299.073 94.5893 297.703 94.5893C296.249 94.5893 294.952 94.0832 293.829 93.071C292.707 92.0593 292.146 90.6428 292.146 88.8119L292.173 78.3984H294.207V88.2323C294.207 89.6676 294.593 90.7623 295.375 91.5258C296.157 92.2802 297.187 92.648 298.475 92.6297C299.929 92.5928 301.143 92.1054 302.1 91.1671C303.066 90.238 303.544 89.1523 303.544 87.9197V78.3984H305.578V94.0741H303.544L303.535 94.065Z" fill="#BCBEC0"/>
<path d="M335.971 94.0692V83.6188H323.551V93.977H321.462V72.4688H323.551V81.7509H335.971V72.4688H338.059V94.0783H335.971V94.0692Z" fill="#BCBEC0"/>
<path d="M342.116 74.6958V72.2949H344.453V74.6958H342.116ZM342.245 93.9962V78.0445H344.333V93.9962H342.245Z" fill="#BCBEC0"/>
<path d="M362.199 92.1898C362.199 94.4067 361.5 96.0446 360.092 97.1206C358.684 98.1972 357.028 98.7306 355.097 98.7306C352.805 98.7306 351.076 98.1785 349.916 97.0746C348.757 95.9615 348.104 94.8211 347.957 93.6341H350.018C350.119 94.4715 350.597 95.235 351.462 95.9063C352.327 96.5872 353.532 96.9185 355.115 96.9185C356.697 96.9185 357.976 96.495 358.832 95.6398C359.687 94.7933 360.12 93.6433 360.12 92.2176V89.8533C359.623 90.7915 358.841 91.5185 357.765 92.0337C356.688 92.5485 355.593 92.8063 354.462 92.8063C352.373 92.8063 350.643 92.1163 349.273 90.7363C347.902 89.3563 347.212 87.5441 347.212 85.3089C347.212 83.0732 347.892 81.2333 349.236 79.8441C350.588 78.4459 352.336 77.7559 354.462 77.7559C355.611 77.7559 356.661 78.0046 357.608 78.4919C358.565 78.9798 359.347 79.6602 359.963 80.5159L360.12 80.4606V78.3354H362.181V92.1989L362.199 92.1898ZM358.675 89.4393C359.65 88.4459 360.138 87.0659 360.138 85.3089C360.138 83.5515 359.65 82.1072 358.675 81.1137C357.7 80.1202 356.403 79.6237 354.783 79.6237C353.164 79.6237 351.913 80.1202 350.956 81.1137C350.009 82.1072 349.53 83.5059 349.53 85.3089C349.53 87.1119 350.009 88.455 350.956 89.4393C351.913 90.4328 353.183 90.9293 354.783 90.9293C356.384 90.9293 357.7 90.4328 358.675 89.4393Z" fill="#BCBEC0"/>
<path d="M377.471 94.0082V84.1738C377.471 82.7573 377.094 81.6808 376.348 80.9451C375.603 80.209 374.582 79.8412 373.285 79.8412C371.831 79.8412 370.617 80.3195 369.65 81.2851C368.675 82.2512 368.188 83.2634 368.188 84.3303V94.0082H366.099V72.4355H368.188V80.4851C368.869 79.7029 369.696 79.0408 370.699 78.4886C371.693 77.9369 372.926 77.7068 374.407 77.8077C376.045 77.8908 377.324 78.5073 378.225 79.6569C379.145 80.8069 379.596 82.0673 379.596 83.4382V94.0173H377.48L377.471 94.0082Z" fill="#BCBEC0"/>
<path d="M409.787 85.3718C410.504 86.3748 410.78 87.5062 410.614 88.7479C410.403 90.3305 409.621 91.7196 408.25 92.9431C406.879 94.1575 404.911 94.7735 402.343 94.7735C399.5 94.7735 397.366 93.9731 395.949 92.3635C394.533 90.7535 393.852 88.9779 393.889 87.0279H395.977C395.977 88.9779 396.593 90.4409 397.836 91.4253C399.068 92.4096 400.595 92.897 402.399 92.897C404.018 92.897 405.371 92.5292 406.475 91.7931C407.569 91.057 408.223 90.0635 408.425 88.8127C408.59 87.8466 408.397 87.0462 407.854 86.4022C407.312 85.7492 406.566 85.2157 405.628 84.7922C404.644 84.3783 403.558 84.1022 402.38 83.9461C401.203 83.7988 400.09 83.5227 399.05 83.1366C397.615 82.6214 396.501 81.9405 395.719 81.0944C394.937 80.2479 394.569 79.0979 394.634 77.6722C394.707 76.2831 395.37 74.9305 396.593 73.6427C397.826 72.3548 399.712 71.7109 402.252 71.7109C405.241 71.7109 407.284 72.5666 408.379 74.2866C409.483 76.007 409.998 77.4327 409.961 78.5553H407.845C407.864 77.2305 407.367 76.0714 406.336 75.087C405.315 74.1027 403.953 73.6057 402.252 73.6057C400.549 73.6057 399.335 74.0014 398.378 74.7927C397.412 75.584 396.915 76.5405 396.878 77.6627C396.842 78.8127 397.173 79.6501 397.882 80.1835C398.59 80.717 399.317 81.1127 400.08 81.3792C400.862 81.6462 401.874 81.8761 403.135 82.0692C404.395 82.2627 405.619 82.6031 406.805 83.0996C408.075 83.6149 409.069 84.3692 409.787 85.3718Z" fill="#BCBEC0"/>
<path d="M427.566 89.3936C427.235 90.6632 426.489 91.8501 425.321 92.954C424.152 94.058 422.533 94.6193 420.463 94.6193C418.099 94.6193 416.24 93.8001 414.869 92.1719C413.499 90.5436 412.809 88.5475 412.809 86.1923C412.809 83.8375 413.499 81.8227 414.869 80.2127C416.24 78.6027 418.108 77.8027 420.463 77.8027C422.533 77.8027 424.18 78.4006 425.413 79.5871C426.645 80.774 427.363 81.9514 427.566 83.1197H425.321C425.174 82.4023 424.723 81.648 423.95 80.8475C423.177 80.0471 422.018 79.6519 420.463 79.6519C418.908 79.6519 417.537 80.268 416.544 81.4914C415.55 82.7245 415.054 84.288 415.054 86.1923C415.054 88.0967 415.55 89.6975 416.544 90.9301C417.537 92.1536 418.835 92.7701 420.463 92.7701C421.733 92.7701 422.791 92.4388 423.628 91.7671C424.474 91.1049 425.027 90.2953 425.293 89.3571L427.566 89.3936Z" fill="#BCBEC0"/>
<path d="M441.744 94.0082V84.1738C441.744 82.7573 441.365 81.6808 440.622 80.9451C439.874 80.209 438.852 79.8412 437.556 79.8412C436.104 79.8412 434.887 80.3195 433.923 81.2851C432.947 82.2512 432.46 83.2634 432.46 84.3303V94.0082H430.371V72.4355H432.46V80.4851C433.14 79.7029 433.969 79.0408 434.961 78.4886C435.965 77.9369 437.187 77.7068 438.67 77.8077C440.309 77.8908 441.587 78.5073 442.496 79.6569C443.409 80.8069 443.87 82.0673 443.87 83.4382V94.0173H441.752L441.744 94.0082Z" fill="#BCBEC0"/>
<path d="M459.902 80.2062C461.285 81.8066 461.972 83.8031 461.972 86.204C461.972 88.6053 461.276 90.5553 459.902 92.1836C458.515 93.8118 456.636 94.6305 454.262 94.6305C451.888 94.6305 450.04 93.8118 448.67 92.1836C447.301 90.5553 446.609 88.5592 446.609 86.204C446.609 83.8492 447.292 81.8066 448.67 80.2062C450.04 78.6053 451.91 77.8145 454.262 77.8145C456.619 77.8145 458.524 78.6145 459.902 80.2062ZM458.228 90.8866C459.232 89.6262 459.737 88.0623 459.737 86.204C459.737 84.3458 459.232 82.7545 458.228 81.5123C457.228 80.2705 455.902 79.654 454.262 79.654C452.627 79.654 451.336 80.2705 450.345 81.5123C449.349 82.7545 448.853 84.3184 448.853 86.204C448.853 88.0901 449.349 89.6262 450.345 90.8866C451.336 92.1471 452.645 92.7723 454.262 92.7723C455.884 92.7723 457.228 92.1471 458.228 90.8866Z" fill="#BCBEC0"/>
<path d="M477.33 80.2062C478.721 81.8066 479.399 83.8031 479.399 86.204C479.399 88.6053 478.712 90.5553 477.33 92.1836C475.951 93.8118 474.064 94.6305 471.69 94.6305C469.316 94.6305 467.468 93.8118 466.098 92.1836C464.724 90.5553 464.037 88.5592 464.037 86.204C464.037 83.8492 464.724 81.8066 466.098 80.2062C467.468 78.6053 469.324 77.8145 471.69 77.8145C474.055 77.8145 475.951 78.6145 477.33 80.2062ZM475.655 90.8866C476.651 89.6262 477.156 88.0623 477.156 86.204C477.156 84.3458 476.651 82.7545 475.655 81.5123C474.651 80.2705 473.329 79.654 471.69 79.654C470.055 79.654 468.764 80.2705 467.772 81.5123C466.776 82.7545 466.281 84.3184 466.281 86.204C466.281 88.0901 466.776 89.6262 467.772 90.8866C468.772 92.1471 470.072 92.7723 471.69 92.7723C473.312 92.7723 474.651 92.1471 475.655 90.8866Z" fill="#BCBEC0"/>
<path d="M482.382 93.9803V72.4355H484.469V93.9803H482.382Z" fill="#BCBEC0"/>
<path d="M62.9295 55.4448C61.8438 53.6691 61.2089 51.59 61.2089 49.3639C61.2089 46.7878 62.0555 44.4148 63.4722 42.4827H37.0124C39.8553 27.6074 51.7051 15.9333 66.6738 13.3667V0C44.3818 2.77821 26.6622 20.2846 23.5893 42.4827H0L6.14572 55.4448H23.4881C26.2482 78.02 44.1057 95.9217 66.6647 98.7278V85.3517C51.4289 82.7391 39.4137 70.6974 36.856 55.4448H50.3158C52.993 65.4074 62.0647 72.7578 72.8839 72.7578V61.0378C68.6705 61.0378 64.981 58.793 62.9295 55.4448Z" fill="#243975"/>
<path d="M122.204 42.4827C119.122 20.2846 101.412 2.77821 79.1196 0V13.3759C94.0884 15.9425 105.948 27.6165 108.781 42.4919H95.2663C92.3221 32.9338 83.4257 25.979 72.9004 25.979V37.699C76.7738 37.699 80.1963 39.5941 82.3121 42.4919C83.7292 44.4239 84.5753 46.7974 84.5753 49.373C84.5753 51.5991 83.9409 53.6783 82.8552 55.4539H108.919C106.362 70.7065 94.3554 82.7483 79.1105 85.3609V98.737C101.669 95.9217 119.536 78.0291 122.287 55.4539H139.639L145.784 42.4919H122.195L122.204 42.4827Z" fill="#243975"/>
</g>
<defs>
<clipPath id="clip0_183_311">
<rect width="487" height="100" fill="white"/>
</clipPath>
</defs>
</svg>
