<svg width="122" height="24" viewBox="0 0 122 24" fill="none" xmlns="http://www.w3.org/2000/svg">
<g clip-path="url(#clip0_124_265)">
<path d="M9.47479 1.53906V5.25333H3.82129V7.25321H17.1553V5.25333H11.5053V1.53906H9.47479Z" fill="#029342"/>
<path d="M13.2358 1.53906V3.53894H18.8858L18.8903 8.9691H3.82129V18.3975H17.1548V12.6849H7.59029V14.6847H15.1263V16.3951H5.85729V10.9675H18.8908V22.1133H20.9208V1.53906H13.2358Z" fill="#029342"/>
<path d="M0.0595703 1.53906V22.1133H17.1546V20.1134H2.08357V3.53894H7.73357V1.53906H0.0595703Z" fill="#029342"/>
<path d="M27.0078 1.26187H31.1138V2.4978H28.5578V7.16601C29.5888 7.16162 30.6177 7.07333 31.6343 6.90202L31.7433 8.15194C30.4316 8.37822 29.1012 8.47867 27.7703 8.45192H27.0078V1.26187ZM36.2253 10.9218H34.7598V5.43861H33.6938V10.3943H32.2763V0.181942H33.6933V4.21369H34.7593V0.00195312H36.2248L36.2253 10.9218Z" fill="#029342"/>
<path d="M46.2891 1.62066C46.3115 2.84687 46.2162 4.0724 46.0046 5.28043H47.4641V6.51635H43.1641V10.9331H41.6141V6.51685H37.4111V5.28093H44.4361C44.6591 4.15496 44.7647 3.0089 44.7511 1.86114H38.5616V0.636719H46.2891V1.62066Z" fill="#029342"/>
<path d="M50.0324 4.97614V3.03926H51.5704V4.93414C52.6704 4.89215 53.7929 4.82015 54.8289 4.69416L54.9134 5.76209C52.6644 6.09783 50.392 6.25032 48.1184 6.21806L47.9854 4.99414C48.6154 4.99414 49.3054 4.98814 50.0324 4.97614ZM54.3324 1.30987C54.3441 2.27267 54.2548 3.23403 54.0659 4.17819L52.5519 4.0702C52.6995 3.33111 52.7787 2.57997 52.7884 1.82634H48.6384V0.601916H54.3309L54.3324 1.30987ZM53.2539 6.79403C55.6159 6.79403 57.0814 7.56798 57.0814 8.8224C57.0814 10.1423 55.6159 10.9043 53.2539 10.8983C50.8919 10.9043 49.4144 10.1423 49.4144 8.8224C49.4144 7.56848 50.8919 6.79403 53.2539 6.79403ZM53.2539 9.70985C54.7014 9.70985 55.4949 9.43986 55.4949 8.8219C55.4949 8.27194 54.7014 7.96346 53.2539 7.97195C51.8064 7.96596 50.9829 8.27194 50.9889 8.8219C50.9829 9.43936 51.8064 9.70985 53.2539 9.70985ZM55.4224 0.00195312H57.0074V2.68929H58.3519V3.96221H57.0074V6.66204H55.4224V0.00195312Z" fill="#029342"/>
<path d="M61.9252 0.588916C62.3324 0.576665 62.7377 0.648082 63.1161 0.79875C63.4945 0.949418 63.838 1.17613 64.1252 1.46486H66.6022V0.00195312H68.1402V6.45805H66.6022V5.07814H64.1252C63.8394 5.37038 63.4967 5.601 63.1184 5.75577C62.74 5.91055 62.334 5.98621 61.9252 5.97808C60.2537 5.97208 58.9817 4.84415 58.9942 3.25425C58.9817 1.70435 60.2542 0.578417 61.9252 0.590416M61.9252 4.67016C62.1155 4.68223 62.3062 4.65408 62.4848 4.58754C62.6635 4.521 62.8261 4.41756 62.9621 4.28398C63.0981 4.15039 63.2044 3.98965 63.2741 3.81223C63.3439 3.6348 63.3754 3.44468 63.3667 3.25425C63.3472 2.88197 63.1855 2.53138 62.9151 2.27477C62.6447 2.01816 62.286 1.87511 61.9132 1.87511C61.5404 1.87511 61.1818 2.01816 60.9114 2.27477C60.6409 2.53138 60.4793 2.88197 60.4597 3.25425C60.4489 3.44729 60.4798 3.64041 60.5503 3.82044C60.6208 4.00047 60.7293 4.16319 60.8683 4.29752C61.0074 4.43184 61.1738 4.53461 61.3562 4.59883C61.5386 4.66305 61.7327 4.68771 61.9252 4.67016ZM68.1402 10.9218H66.6022V8.14994H60.5702V6.95002H68.1402V10.9218ZM66.6022 3.85371V2.70378H64.7752C64.8171 2.88407 64.8374 3.06868 64.8357 3.25375C64.8355 3.45556 64.8132 3.65675 64.7692 3.85371H66.6022Z" fill="#029342"/>
<path d="M76.6428 7.274L75.7343 8.49792C75.1155 8.20006 74.5632 7.78028 74.1106 7.26377C73.658 6.74726 73.3144 6.14466 73.1003 5.49211C72.8976 6.19895 72.5486 6.85531 72.076 7.41867C71.6034 7.98204 71.0177 8.43983 70.3568 8.76241L69.4238 7.48849C71.3498 6.68454 72.2883 4.58867 72.2943 2.4723V0.841901H73.8568V2.4738C73.8513 4.47767 74.7713 6.48855 76.6428 7.274ZM77.2363 0.00195312H78.7988V10.9458H77.2363V0.00195312Z" fill="#029342"/>
<path d="M84.4781 2.06554H81.0016V0.815622H86.1616C86.1616 3.74394 84.2841 5.9098 81.0616 6.89974L80.4316 5.68782C82.7166 4.98186 84.1946 3.67344 84.4781 2.06554ZM82.3101 7.18922H83.8846V9.50558H89.8561V10.7315H82.3111L82.3101 7.18922ZM89.5781 7.99367H88.0401V4.4319H86.0656V3.16947H88.0401V0.0136719H89.5781V7.99367Z" fill="#029342"/>
<path d="M101.061 6.58976H96.7848V7.5397H99.8348V10.912H98.2968V8.75213H92.1218V7.5377H95.2588V6.58776H91.0088V5.37784H101.062L101.061 6.58976ZM95.1318 2.18554H91.9768V0.99761H95.2593V0.0136719H96.7848V0.99761H100.091V2.18554H96.9058C97.0878 2.97149 98.2018 3.67944 100.612 3.84143L100.14 4.98186C98.1108 4.84387 96.7118 4.26791 96.0153 3.38546C95.3248 4.26741 93.9198 4.84337 91.9033 4.98186L91.4308 3.84143C93.8233 3.68194 94.9438 2.97149 95.1318 2.18554Z" fill="#029342"/>
<path d="M108.388 7.24955L107.456 8.47347C106.874 8.16288 106.359 7.73998 105.941 7.2292C105.523 6.71843 105.21 6.12991 105.021 5.49766C104.823 6.17216 104.493 6.80061 104.051 7.34649C103.608 7.89236 103.061 8.34478 102.441 8.67746L101.484 7.44154C103.355 6.59159 104.234 4.50122 104.234 2.47335V0.841447H105.784V2.47335C105.778 4.42922 106.62 6.4031 108.388 7.24955ZM108.873 0H110.423V4.21374H112.044V5.50966H110.421V10.9213H108.871L108.873 0Z" fill="#029342"/>
<path d="M115.306 7.80797V6.88402C114.101 6.66804 113.313 5.92408 113.32 4.89815C113.314 3.68022 114.434 2.84828 116.057 2.84828C117.692 2.84828 118.831 3.68222 118.831 4.89815C118.831 5.91808 118.043 6.66204 116.831 6.88402V7.75397C117.757 7.71197 118.684 7.63998 119.568 7.52598L119.677 8.65391C117.368 8.99344 115.034 9.13811 112.7 9.08639L112.494 7.83646C113.336 7.83046 114.299 7.83046 115.304 7.80647M112.713 1.21438H115.305V0.0499501H116.843V1.21438H119.413V2.4143H112.713V1.21438ZM116.056 5.78609C116.831 5.78609 117.352 5.47411 117.352 4.89815C117.352 4.33368 116.832 4.0162 116.056 4.0097C115.306 4.0157 114.778 4.33368 114.785 4.89815C114.779 5.47411 115.305 5.78609 116.056 5.78609ZM121.713 10.9218H120.175V0.00195312H121.713V10.9218Z" fill="#029342"/>
<path d="M31.5618 17.3203V18.1703H33.3378V21.2561H34.3663V14.614H33.3378V17.3203H31.5618ZM27.4773 15.3029V16.1419H30.5033C30.3133 17.6198 28.9953 18.8182 27.0078 19.4672L27.4578 20.2861C30.0243 19.4472 31.6123 17.6798 31.6123 15.3029H27.4773ZM29.6143 22.6235V20.5856H28.5878V23.4619H34.5978V22.6235H29.6143ZM37.3143 18.6887C38.8823 18.5587 40.0908 18.0388 40.6498 17.2308C41.2093 18.0393 42.4173 18.5587 43.9878 18.6882L44.3073 17.9093C42.4698 17.7693 41.3413 17.1003 41.2413 16.2814H43.9178V15.4739H41.1678V14.584H40.1378V15.4739H37.3843V16.2829H40.0708C39.9708 17.1018 38.8323 17.7708 37.0048 17.9108L37.3143 18.6887ZM44.7343 19.9386V19.1077H36.5753V19.9366H40.1408V20.8456H37.4838V21.6645H42.7073V23.6234H43.7378V20.8451H41.1693V19.9366L44.7343 19.9386ZM49.4283 15.3649H48.3998V16.8428C48.3998 18.5107 47.5208 20.2181 46.1128 20.9071L46.7418 21.736C47.2725 21.431 47.738 21.0244 48.1115 20.5394C48.4851 20.0545 48.7594 19.5007 48.9188 18.9097C49.24 20.0314 49.9851 20.984 50.9963 21.566L51.6253 20.7471C50.2673 20.0781 49.4283 18.4502 49.4283 16.8423V15.3649ZM54.6613 18.1888H53.2533V14.614H52.2248V23.6314H53.2533V19.0377H54.6613V18.1888ZM62.4113 22.6925H58.5878V21.6925H62.4128L62.4113 22.6925ZM62.4113 20.8926H58.5878V19.8767H57.5673V23.5234H63.4298V19.8787H62.4113V20.8926ZM58.4378 18.3887C58.2628 18.4037 58.0866 18.382 57.9205 18.3249C57.7544 18.2678 57.6021 18.1767 57.4733 18.0573C57.3445 17.9378 57.242 17.7928 57.1725 17.6314C57.103 17.4701 57.0681 17.296 57.0698 17.1203C57.068 16.9451 57.103 16.7715 57.1726 16.6107C57.2422 16.4498 57.3448 16.3055 57.4738 16.1869C57.6028 16.0683 57.7552 15.9781 57.9213 15.9222C58.0874 15.8663 58.2634 15.8459 58.4378 15.8624C58.6115 15.8474 58.7864 15.8688 58.9513 15.9254C59.1162 15.982 59.2674 16.0724 59.3953 16.1909C59.5232 16.3094 59.6248 16.4534 59.6937 16.6136C59.7626 16.7737 59.7972 16.9465 59.7953 17.1208C59.7966 17.2953 59.7617 17.4681 59.6929 17.6284C59.624 17.7887 59.5227 17.9331 59.3953 18.0523C59.2677 18.1715 59.1167 18.263 58.9518 18.3209C58.787 18.3788 58.612 18.4019 58.4378 18.3887ZM62.4028 14.614V16.6914H60.7333C60.6134 16.184 60.3162 15.7362 59.8954 15.4286C59.4745 15.121 58.9576 14.9737 58.4378 15.0135C57.0798 15.0135 56.0808 15.8824 56.0808 17.1203C56.0808 18.3702 57.0808 19.2372 58.4378 19.2372C58.9623 19.2778 59.4838 19.1273 59.906 18.8135C60.3282 18.4997 60.6226 18.0437 60.7348 17.5298H62.4028V19.4472H63.4313V14.614H62.4028ZM71.7803 17.8298H67.6543V15.9124H71.7788L71.7803 17.8298ZM72.7988 15.0935H66.6378V18.6587H72.7973L72.7988 15.0935ZM73.8173 19.7672H65.6378V20.5961H69.1833V23.6314H70.2118V20.5956H73.8173V19.7672ZM78.6608 16.3619H80.6683V15.5119H75.6138V16.3619H77.6213V17.2208C77.6191 18.0165 77.4017 18.7968 76.992 19.479C76.5823 20.1611 75.9957 20.7197 75.2943 21.0956L75.8833 21.9145C76.4321 21.618 76.9157 21.2141 77.3051 20.7268C77.6946 20.2395 77.982 19.6789 78.1503 19.0782C78.335 19.6435 78.6318 20.1657 79.0231 20.6135C79.4143 21.0613 79.8919 21.4256 80.4273 21.6845L80.9968 20.8736C80.3022 20.5469 79.7141 20.0303 79.3006 19.3836C78.8871 18.7369 78.6649 17.9864 78.6598 17.2188L78.6608 16.3619ZM81.7168 14.612V23.6314H82.7553V14.614L81.7168 14.612ZM89.6953 19.9067V20.6236H91.4628V21.4626H92.4913V14.604H91.4628V19.9067H89.6953ZM87.8953 15.7124C88.6343 15.7124 89.1453 16.0319 89.1453 16.5414C89.1453 17.0508 88.6358 17.3703 87.8953 17.3703C87.1453 17.3703 86.6368 17.0508 86.6368 16.5414C86.6368 16.0319 87.1483 15.7124 87.8978 15.7124H87.8953ZM87.8953 18.1293C89.2138 18.1293 90.1223 17.5003 90.1223 16.5414C90.1223 15.5824 89.2133 14.9535 87.8953 14.9535C86.5668 14.9535 85.6583 15.5824 85.6583 16.5414C85.6583 17.5003 86.5693 18.1293 87.8978 18.1293H87.8953ZM87.4878 21.1736H88.5163V19.4372C89.293 19.3957 90.0667 19.3091 90.8333 19.1777L90.7533 18.4387C88.8324 18.6374 86.9019 18.7274 84.9708 18.7082L85.1008 19.5472C85.8098 19.5472 86.6288 19.5372 87.4878 19.4972V21.1736ZM87.2183 22.6235V20.7956H86.1878V23.4619H92.6993V22.6235H87.2183ZM98.0343 15.3634H97.0058V16.8413C97.0058 18.5787 96.0668 20.3066 94.6288 20.9556L95.2378 21.814C95.798 21.5111 96.2906 21.0973 96.6856 20.5977C97.0805 20.098 97.3695 19.5232 97.5348 18.9082C97.7073 19.4862 97.9941 20.0236 98.3784 20.4886C98.7627 20.9535 99.2366 21.3364 99.7718 21.6145L100.372 20.7956C99.6534 20.4185 99.0542 19.8487 98.6415 19.1502C98.2287 18.4517 98.0186 17.652 98.0348 16.8408L98.0343 15.3634ZM101.088 14.604V23.6534H102.126V14.604H101.088ZM112.213 19.0177C110.438 18.6982 108.988 17.3103 108.988 15.8739V15.1949H107.899V15.8739C107.899 17.3018 106.449 18.6902 104.674 19.0197L105.113 19.8697C105.82 19.7371 106.486 19.4451 107.062 19.016C107.639 18.5869 108.109 18.0319 108.439 17.3933C108.768 18.0319 109.239 18.5869 109.815 19.016C110.391 19.4451 111.058 19.7371 111.764 19.8697L112.213 19.0177ZM104.396 21.6235V22.4735H112.565V21.6235H104.396ZM118.996 19.9456H119.954V14.754H118.996V16.8313H117.928V17.6603H118.996L118.996 19.9456ZM118.238 18.5287C117.318 18.6863 116.385 18.7598 115.451 18.7482V17.7298H117.529V16.9408H115.451V16.0019H117.858V15.1739H114.463V19.5677H115.052C116.152 19.6021 117.252 19.5286 118.337 19.3482L118.238 18.5287ZM116.73 21.2351H120.714V22.703H116.73V21.2351ZM115.711 23.5234H121.711V20.4161H115.711V23.5234ZM120.734 14.604V20.0266H121.713V14.604H120.734Z" fill="#029342"/>
</g>
<defs>
<clipPath id="clip0_124_265">
<rect width="122" height="24" fill="white"/>
</clipPath>
</defs>
</svg>
