<svg width="180" height="40" viewBox="0 0 180 40" fill="none" xmlns="http://www.w3.org/2000/svg">
<g clip-path="url(#clip0_1044_1835)">
<path d="M72.6988 24.6496C72.6988 29.7203 70.2852 30.9833 66.782 30.9833C63.2788 30.9833 60.8652 29.714 60.8652 24.6496V16.0163C60.8652 10.9519 63.2788 9.68262 66.782 9.68262C70.2852 9.68262 72.6988 10.9519 72.6988 16.0163V24.6496ZM65.3884 24.9575C65.8255 25.102 65.7684 26.5598 66.7884 26.5598C67.8083 26.5598 67.7513 25.102 68.1884 24.9575V15.6832C67.7576 15.5387 67.8083 14.1061 66.7884 14.1061C65.7684 14.1061 65.8255 15.5387 65.3884 15.6832V24.9575Z" fill="black" stroke="#040000" stroke-width="0.1" stroke-linejoin="round"/>
<path d="M50.6847 17.9708C50.6847 18.2158 50.9001 18.4106 51.1472 18.4106H52.3065C53.3834 18.4106 53.7191 17.6943 53.7191 16.2617C53.7191 14.9485 53.3834 14.2321 52.3065 14.2321H51.1282C50.8811 14.2384 50.6847 14.4395 50.6847 14.6846V17.9708ZM55.0875 30.4873C54.3463 30.4873 53.7381 29.9029 53.7381 29.1615C53.6558 28.3069 53.6178 27.1319 53.6495 24.9893C53.6495 23.3619 53.339 22.5451 51.977 22.5074H51.1218C50.8748 22.5074 50.6784 22.7147 50.6784 22.966V24.8511C50.6784 25.6176 50.6214 26.3779 51.2105 26.8555V30.0537C51.2105 30.2988 51.0078 30.4873 50.7607 30.4873H46.358C46.1109 30.4873 45.9082 30.2862 45.9082 30.0411V26.8492C46.5037 26.3716 46.4467 25.6051 46.4467 24.8448V15.6396C46.4467 14.8731 46.4973 14.1065 45.9082 13.6289V10.4433C45.9082 10.1982 46.1109 9.99715 46.358 9.99715H52.7879C54.0169 9.99715 55.5499 9.97202 56.6269 10.8077C57.9255 11.7879 58.369 13.5347 58.369 15.3946C58.369 17.644 57.8495 19.6044 55.9934 20.2014V20.2453C57.5518 20.7229 58.0712 21.5837 58.0712 23.6635V24.8385C58.0712 25.5297 58.0712 26.535 58.6857 26.8429V30.0411C58.6857 30.2799 58.426 30.4747 58.1789 30.4747H55.0811L55.0875 30.4873Z" fill="black" stroke="#040000" stroke-width="0.1" stroke-linejoin="round"/>
<path d="M113.349 30.5808C113.596 30.5808 113.798 30.3797 113.798 30.1347V23.9707C113.798 23.7256 113.596 23.5246 113.349 23.5246H110.587C110.34 23.5246 110.137 23.7193 110.137 23.9644V23.9455C110.143 25.2399 110.162 26.2201 108.902 26.2201H108.16C107.913 26.2201 107.711 26.0128 107.711 25.7677V15.7206C107.711 14.954 107.654 14.1875 108.249 13.7099V10.5242C108.249 10.2792 108.046 10.0781 107.799 10.0781H102.674C102.427 10.0781 102.225 10.2792 102.225 10.5242V13.7099C102.82 14.1875 102.763 14.954 102.763 15.7206V24.9258C102.763 25.686 102.82 26.4526 102.225 26.9302V30.1221C102.225 30.3672 102.427 30.5682 102.674 30.5682H113.349V30.5808Z" fill="black" stroke="#040000" stroke-width="0.1" stroke-linejoin="round"/>
<path d="M115.967 21.8406V19.0194C115.967 18.7743 116.17 18.5732 116.417 18.5732H120.122C120.37 18.5732 120.572 18.7743 120.572 19.0194V21.8406C120.572 22.0857 120.37 22.2867 120.122 22.2867H116.417C116.17 22.2867 115.967 22.0857 115.967 21.8406Z" fill="black" stroke="#040000" stroke-width="0.1" stroke-linejoin="round"/>
<path d="M81.0418 17.3795C80.9721 17.5429 80.8201 17.656 80.6364 17.656C80.478 17.656 80.3386 17.568 80.2563 17.4361C79.7875 15.9721 79.3504 13.9048 79.3504 12.7424L79.3377 10.5369C79.3377 10.2919 79.135 10.0908 78.8879 10.0908H74.8463C74.5992 10.0908 74.3965 10.2919 74.3965 10.5369V13.7226C74.935 14.175 75.1377 15.0358 75.4164 15.7773L78.1467 22.9278V24.9384C78.1467 25.3155 78.1658 25.6987 78.1087 26.038C78.0327 26.3962 77.906 26.7041 77.6083 26.9491V30.1411C77.6083 30.3861 77.811 30.5872 78.0581 30.5872H83.183C83.4301 30.5872 83.6328 30.3861 83.6328 30.1411V26.9491C83.0436 26.4716 83.0943 25.705 83.0943 24.9447V22.5005L86.002 15.2055C86.2618 14.4641 86.3948 14.1562 86.8762 13.7226V10.5369C86.8762 10.2919 86.6735 10.0908 86.4265 10.0908H82.3341C82.0871 10.0908 81.8843 10.2919 81.8843 10.5369V12.7424C81.8843 13.8923 81.4726 15.9406 81.0228 17.4047" fill="black"/>
<path d="M81.0418 17.3795C80.9721 17.5429 80.8201 17.656 80.6364 17.656C80.478 17.656 80.3386 17.568 80.2563 17.4361C79.7875 15.9721 79.3504 13.9048 79.3504 12.7424L79.3377 10.5369C79.3377 10.2919 79.135 10.0908 78.8879 10.0908H74.8463C74.5992 10.0908 74.3965 10.2919 74.3965 10.5369V13.7226C74.935 14.175 75.1377 15.0358 75.4164 15.7773L78.1467 22.9278V24.9384C78.1467 25.3155 78.1658 25.6987 78.1087 26.038C78.0327 26.3962 77.906 26.7041 77.6083 26.9491V30.1411C77.6083 30.3861 77.811 30.5872 78.0581 30.5872H83.183C83.4301 30.5872 83.6328 30.3861 83.6328 30.1411V26.9491C83.0436 26.4716 83.0943 25.705 83.0943 24.9447V22.5005L86.002 15.2055C86.2618 14.4641 86.3948 14.1562 86.8762 13.7226V10.5369C86.8762 10.2919 86.6735 10.0908 86.4265 10.0908H82.3341C82.0871 10.0908 81.8843 10.2919 81.8843 10.5369V12.7424C81.8843 13.8923 81.4726 15.9406 81.0228 17.4047" stroke="#040000" stroke-width="0.1" stroke-linejoin="round"/>
<path d="M145.302 19.3906C145.549 19.3906 145.752 19.1895 145.752 18.9445V15.7714C145.752 15.0048 145.809 14.2382 145.214 13.7607V10.575C145.214 10.33 145.416 10.1289 145.663 10.1289H149.851C150.098 10.1289 150.301 10.33 150.301 10.575V13.7607C149.711 14.2382 149.762 15.0048 149.762 15.7714V30.1729C149.762 30.4179 149.559 30.619 149.312 30.619H146.804C146.202 30.619 145.689 30.2232 145.518 29.6828L142.965 21.7092L142.99 21.8663C142.99 21.6212 142.787 21.4201 142.54 21.4201H142.42C142.173 21.4201 141.97 21.6212 141.97 21.8663V24.9828C141.97 25.7431 141.913 26.5097 142.509 26.9872V30.1792C142.509 30.4242 142.306 30.6253 142.059 30.6253H138.03C137.783 30.6253 137.58 30.4242 137.58 30.1792V26.9872C138.169 26.5097 138.119 25.7431 138.119 24.9828V15.7777C138.119 15.0111 138.176 14.2445 137.58 13.767V10.5813C137.58 10.3363 137.783 10.1352 138.03 10.1352H141.039C141.641 10.1352 142.148 10.5248 142.319 11.0588L144.764 19.0639C144.815 19.2524 144.992 19.3969 145.201 19.3969H145.309" fill="black"/>
<path d="M145.302 19.3906C145.549 19.3906 145.752 19.1895 145.752 18.9445V15.7714C145.752 15.0048 145.809 14.2382 145.214 13.7607V10.575C145.214 10.33 145.416 10.1289 145.663 10.1289H149.851C150.098 10.1289 150.301 10.33 150.301 10.575V13.7607C149.711 14.2382 149.762 15.0048 149.762 15.7714V30.1729C149.762 30.4179 149.559 30.619 149.312 30.619H146.804C146.202 30.619 145.689 30.2232 145.518 29.6828L142.965 21.7092L142.99 21.8663C142.99 21.6212 142.787 21.4201 142.54 21.4201H142.42C142.173 21.4201 141.97 21.6212 141.97 21.8663V24.9828C141.97 25.7431 141.913 26.5097 142.509 26.9872V30.1792C142.509 30.4242 142.306 30.6253 142.059 30.6253H138.03C137.783 30.6253 137.58 30.4242 137.58 30.1792V26.9872C138.169 26.5097 138.119 25.7431 138.119 24.9828V15.7777C138.119 15.0111 138.176 14.2445 137.58 13.767V10.5813C137.58 10.3363 137.783 10.1352 138.03 10.1352H141.039C141.641 10.1352 142.148 10.5248 142.319 11.0588L144.764 19.0639C144.815 19.2524 144.992 19.3969 145.201 19.3969H145.309" stroke="#040000" stroke-width="0.1" stroke-linejoin="round"/>
<path d="M160.101 19.3467C160.348 19.3467 160.551 19.1456 160.551 18.9005V15.7274C160.551 14.9609 160.608 14.1943 160.012 13.7168V10.5311C160.012 10.286 160.215 10.085 160.462 10.085H164.65C164.897 10.085 165.099 10.286 165.099 10.5311V13.7168C164.51 14.1943 164.561 14.9609 164.561 15.7274V30.1289C164.561 30.374 164.358 30.5751 164.111 30.5751H161.603C161.001 30.5751 160.488 30.1792 160.317 29.6388L157.764 21.6652L157.789 21.8223C157.789 21.5773 157.586 21.3762 157.339 21.3762H157.219C156.972 21.3762 156.769 21.5773 156.769 21.8223V24.9389C156.769 25.6992 156.712 26.4657 157.307 26.9433V30.1352C157.307 30.3803 157.105 30.5813 156.858 30.5813H152.829C152.582 30.5813 152.379 30.3803 152.379 30.1352V26.9433C152.968 26.4657 152.917 25.6992 152.917 24.9389V15.7337C152.917 14.9671 152.974 14.2006 152.379 13.723V10.5374C152.379 10.2923 152.582 10.0912 152.829 10.0912H155.838C156.44 10.0912 156.946 10.4808 157.117 11.0149L159.563 19.0199C159.613 19.2084 159.791 19.3529 160 19.3529H160.107" fill="black"/>
<path d="M160.101 19.3467C160.348 19.3467 160.551 19.1456 160.551 18.9005V15.7274C160.551 14.9609 160.608 14.1943 160.012 13.7168V10.5311C160.012 10.286 160.215 10.085 160.462 10.085H164.65C164.897 10.085 165.099 10.286 165.099 10.5311V13.7168C164.51 14.1943 164.561 14.9609 164.561 15.7274V30.1289C164.561 30.374 164.358 30.5751 164.111 30.5751H161.603C161.001 30.5751 160.488 30.1792 160.317 29.6388L157.764 21.6652L157.789 21.8223C157.789 21.5773 157.586 21.3762 157.339 21.3762H157.219C156.972 21.3762 156.769 21.5773 156.769 21.8223V24.9389C156.769 25.6992 156.712 26.4657 157.307 26.9433V30.1352C157.307 30.3803 157.105 30.5813 156.858 30.5813H152.829C152.582 30.5813 152.379 30.3803 152.379 30.1352V26.9433C152.968 26.4657 152.917 25.6992 152.917 24.9389V15.7337C152.917 14.9671 152.974 14.2006 152.379 13.723V10.5374C152.379 10.2923 152.582 10.0912 152.829 10.0912H155.838C156.44 10.0912 156.946 10.4808 157.117 11.0149L159.563 19.0199C159.613 19.2084 159.791 19.3529 160 19.3529H160.107" stroke="#040000" stroke-width="0.1" stroke-linejoin="round"/>
<path d="M175.716 16.7512C175.089 16.7512 174.563 16.3302 174.411 15.7584C174.227 14.9793 173.701 14.2002 172.947 14.2002C172.314 14.2002 171.775 14.7971 171.775 15.5574C171.775 15.9658 171.813 16.3742 172.073 16.7072C172.352 17.0905 173.055 17.3796 173.461 17.5178C174.652 17.9262 176.451 18.4729 177.452 19.3337C178.022 19.8301 178.452 20.4333 178.674 21.2941C178.934 22.1801 179.042 23.1603 179.042 24.1153V24.2096C179.042 28.1556 177.686 31.071 172.96 31.071C170.939 31.071 168.804 30.5684 167.195 28.9221V23.864C167.195 23.619 167.398 23.4179 167.645 23.4179H170.135C170.876 23.4179 171.484 24.0148 171.484 24.75C171.497 25.3029 171.528 25.7176 171.623 25.9752C171.788 26.3836 172.7 26.6413 173.074 26.6413C173.746 26.6413 174.037 25.8056 174.037 25.0641C174.037 22.9592 173.017 22.7895 171.649 22.3623C168.646 21.4009 166.961 20.4773 166.961 16.0475V15.5951C167.037 13.3959 167.309 12.2963 168.608 11.0271C169.666 9.99658 171.199 9.75781 172.688 9.75781C174.842 9.75781 176.748 10.3045 178.547 11.913V16.2925C178.547 16.5376 178.345 16.7386 178.098 16.7386H175.709L175.716 16.7512Z" fill="black" stroke="#040000" stroke-width="0.1" stroke-linejoin="round"/>
<path d="M127.749 20.7793L128.414 15.5955C128.414 15.3504 128.591 15.1557 128.807 15.1557H128.997C129.244 15.1557 129.446 15.2813 129.446 15.5264L130.15 20.7793C130.15 21.0243 129.941 21.2317 129.693 21.2317H128.198C127.951 21.2317 127.742 21.0243 127.742 20.7793H127.749ZM126.488 10.0912C125.81 10.0912 125.253 10.5876 125.158 11.2285L123.226 24.6247C123.08 25.4101 123.023 26.4657 122.484 26.9433V30.1352C122.484 30.3803 122.687 30.5813 122.934 30.5813H127.508C127.755 30.5813 127.958 30.3803 127.958 30.1352V26.9433C127.533 26.7988 127.312 26.3966 127.312 25.8185C127.312 25.6552 127.337 25.4792 127.369 24.7755C127.369 24.5305 127.565 24.3357 127.812 24.3357H130.245C130.492 24.3357 130.688 24.5305 130.688 24.7755C130.72 25.4667 130.745 25.6363 130.745 25.8123C130.745 26.3652 130.561 26.7485 130.175 26.937V30.1289C130.175 30.374 130.378 30.5751 130.625 30.5751H135.085C135.332 30.5751 135.534 30.374 135.534 30.1289V26.937C134.983 26.7234 134.793 25.5735 134.698 24.9326L132.557 11.2097C132.456 10.5688 131.898 10.085 131.227 10.085H126.507L126.488 10.0912Z" fill="black" stroke="#040000" stroke-width="0.1" stroke-linejoin="round"/>
<path d="M92.2741 20.7793L92.9392 15.5955C92.9392 15.3504 93.1166 15.1557 93.332 15.1557H93.522C93.7691 15.1557 93.9718 15.2813 93.9718 15.5264L94.675 20.7793C94.675 21.0243 94.4659 21.2317 94.2189 21.2317H92.7238C92.4768 21.2317 92.2677 21.0243 92.2677 20.7793H92.2741ZM91.0134 10.0912C90.3356 10.0912 89.7781 10.5876 89.6831 11.2285L87.7509 24.6247C87.6052 25.4101 87.5482 26.4657 87.0098 26.9433V30.1352C87.0098 30.3803 87.2125 30.5813 87.4595 30.5813H92.0333C92.2804 30.5813 92.4831 30.3803 92.4831 30.1352V26.9433C92.0587 26.7988 91.837 26.3966 91.837 25.8185C91.837 25.6552 91.8623 25.4792 91.894 24.7755C91.894 24.5305 92.0904 24.3357 92.3374 24.3357H94.77C95.0171 24.3357 95.2135 24.5305 95.2135 24.7755C95.2451 25.4667 95.2705 25.6363 95.2705 25.8123C95.2705 26.3652 95.0868 26.7485 94.7003 26.937V30.1289C94.7003 30.374 94.9031 30.5751 95.1501 30.5751H99.6099C99.857 30.5751 100.06 30.374 100.06 30.1289V26.937C99.5085 26.7234 99.3185 25.5735 99.2235 24.9326L97.0823 11.2097C96.9809 10.5688 96.4234 10.085 95.7519 10.085H91.0324L91.0134 10.0912Z" fill="black" stroke="#040000" stroke-width="0.1" stroke-linejoin="round"/>
<path d="M177.554 3.02246C180.715 3.02246 180.715 7.7727 177.554 7.7727C174.393 7.7727 174.399 3.02246 177.554 3.02246ZM177.554 7.48994C180.297 7.48994 180.297 3.30521 177.554 3.30521C174.811 3.30521 174.811 7.48994 177.554 7.48994ZM178.384 6.84904L177.51 5.6175H176.914V6.84904H176.433V3.78903H177.719C178.998 3.78903 179.1 5.32846 178.054 5.5798L178.967 6.84904H178.39H178.384ZM176.914 4.22259V5.16509H177.681C178.466 5.16509 178.46 4.22259 177.681 4.22259H176.914Z" fill="#040000" stroke="#040000" stroke-width="0.24" stroke-miterlimit="10"/>
<path d="M40.328 20C40.328 31.0462 31.3008 40 20.164 40C9.02724 40 0 31.0462 0 20C0 8.95382 9.02724 0 20.164 0C31.3008 0 40.328 8.95382 40.328 20Z" fill="#09112D"/>
<path d="M39.599 19.9996C39.599 30.6437 30.9012 39.2771 20.1635 39.2771C9.42586 39.2771 0.734375 30.6437 0.734375 19.9996C0.734375 9.3556 9.4322 0.728516 20.1635 0.728516C30.8949 0.728516 39.599 9.36188 39.599 20.0059V19.9996Z" fill="#F3F3F3"/>
<path d="M38.5297 20.0064C38.5297 9.96553 30.3197 1.82227 20.1965 1.82227C10.0733 1.82227 1.86328 9.96553 1.86328 20.0064C1.86328 30.0472 10.0797 38.1905 20.1965 38.1905C30.3133 38.1905 38.5297 30.0472 38.5297 20.0064Z" fill="#030000"/>
<path d="M30.3939 13.0442L30.5523 12.8871C30.584 12.8557 30.6283 12.8369 30.6727 12.8369C30.7297 12.8369 30.774 12.862 30.812 12.906C32.3388 14.9544 33.156 17.43 33.156 19.9748C33.156 22.5195 32.3324 24.9952 30.812 27.0436C30.7804 27.0876 30.7297 27.1127 30.6727 27.1127C30.6283 27.1127 30.584 27.0938 30.5523 27.0624L30.4066 26.9242C30.2102 25.5481 29.0256 24.5239 27.6256 24.5239C26.0735 24.5239 24.8129 25.7743 24.8129 27.3138C24.8129 28.7024 25.8455 29.8774 27.2328 30.0722L27.3785 30.2104C27.4102 30.2418 27.4292 30.2858 27.4292 30.3298C27.4292 30.3863 27.4039 30.4303 27.3595 30.468C25.2943 31.9823 22.7921 32.7929 20.2264 32.7929C17.6608 32.7929 15.1585 31.976 13.0933 30.468C13.049 30.4366 13.0236 30.3863 13.0236 30.3298C13.0236 30.2858 13.0426 30.2418 13.0743 30.2104L13.2137 30.0784C14.601 29.8837 15.6336 28.6961 15.6336 27.3075C15.6336 25.768 14.373 24.5177 12.8209 24.5177C11.4209 24.5177 10.2363 25.5418 10.0399 26.9179L9.86885 27.0938L9.90052 27.0624C9.90052 27.0624 9.8245 27.1127 9.78016 27.1127C9.72314 27.1127 9.67246 27.0876 9.64079 27.0436C8.12041 24.9952 7.29688 22.5195 7.29688 19.9748C7.29688 17.43 8.12041 14.9544 9.64079 12.906C9.67246 12.862 9.72314 12.8369 9.78016 12.8369C9.8245 12.8369 9.86885 12.8557 9.90052 12.8871L10.0399 13.0254C10.2363 14.4014 11.4209 15.4193 12.8209 15.4193C14.373 15.4193 15.6336 14.1689 15.6336 12.6295C15.6336 11.2409 14.601 10.0659 13.2137 9.87109L13.068 9.73286C13.0363 9.70144 13.0173 9.65746 13.0173 9.61348C13.0173 9.55693 13.0426 9.50666 13.087 9.47524C15.1522 7.96095 17.6481 7.15039 20.2201 7.15039C22.7921 7.15039 25.288 7.96723 27.3532 9.47524C27.3975 9.50666 27.4229 9.55693 27.4229 9.61348C27.4229 9.65746 27.4039 9.70144 27.3722 9.73286L27.3532 9.74543L27.1821 9.91508C25.7948 10.1099 24.8129 11.2472 24.8129 12.6358C24.8129 14.1752 26.0735 15.4256 27.6256 15.4256C29.0256 15.4256 30.1976 14.414 30.3939 13.0442Z" fill="#F3F3F3"/>
<path d="M30.8775 19.749L23.9472 17.0283L20.9824 19.9689L23.9472 22.9347L30.8775 20.1889C30.9662 20.1512 31.0296 20.0632 31.0296 19.9689C31.0296 19.8747 30.9726 19.7804 30.8775 19.749Z" fill="#09112D" stroke="#231815" stroke-width="0.25" stroke-miterlimit="10"/>
<path d="M9.50946 20.2199L16.4398 22.9406L19.4046 19.9999L16.4398 17.0342L9.50946 19.78C9.42077 19.8177 9.35742 19.9057 9.35742 19.9999C9.35742 20.0942 9.41444 20.1884 9.50946 20.2199Z" fill="#09112D" stroke="#231815" stroke-width="0.25" stroke-miterlimit="10"/>
<path d="M19.9559 30.5812C19.9939 30.6692 20.0826 30.732 20.1776 30.732C20.2727 30.732 20.3677 30.6755 20.3993 30.5812L23.1677 23.7072L20.1776 20.7666L17.2129 23.7072L19.9559 30.5812Z" fill="#C8171D" stroke="#040000" stroke-width="0.25" stroke-miterlimit="10"/>
<path d="M20.431 9.38713C20.393 9.29288 20.3043 9.23633 20.203 9.23633C20.1016 9.23633 20.0193 9.29288 19.9812 9.38713L17.2129 16.2611L20.203 19.2018L23.1677 16.2611L20.431 9.38713Z" fill="#C8171D" stroke="#040000" stroke-width="0.25" stroke-miterlimit="10"/>
<path d="M8.89397 8.54562L9.9709 7.4209L9.78719 8.97918L11.2506 9.63893L9.62882 9.92168L9.4261 11.4862L8.66591 10.1102L7.1582 10.3615L8.22247 9.24936L7.51296 7.92357L8.89397 8.54562Z" fill="#F3F3F3"/>
<path d="M9.9709 7.4209L8.89397 8.54562L7.51296 7.92357L8.22247 9.24936L7.1582 10.3615L8.66591 10.1102L9.4261 11.4862L9.62882 9.92168L11.2506 9.63893L9.78719 8.97918L9.9709 7.4209Z" fill="#F3F3F3"/>
<path d="M13.8606 5.20867L15.2797 4.5552L14.5321 5.93754L15.6534 7.08112L14.038 6.76067L13.2715 8.14301L13.0751 6.58473L11.5801 6.27056L12.9738 5.62337L12.8027 4.12793L13.8606 5.20867Z" fill="#F3F3F3"/>
<path d="M12.8027 4.12793L12.9738 5.62337L11.5801 6.27056L13.0751 6.58473L13.2715 8.14301L14.038 6.76067L15.6534 7.08112L14.5321 5.93754L15.2797 4.5552L13.8606 5.20867L12.8027 4.12793Z" fill="#F3F3F3"/>
<path d="M19.9097 4.48671L19.4473 4.14112H20.0491L20.2391 3.56934L20.4418 4.14112H21.0627L20.5432 4.52441L20.7079 5.03965L20.2265 4.68778L19.726 5.04593L19.9097 4.48671Z" fill="#F3F3F3"/>
<path d="M20.2329 1.62109L19.593 3.50611H17.5469L19.1686 4.7188L18.5224 6.70435L20.2202 5.46652L21.9116 6.71063L21.2845 4.76278L22.9696 3.50611H20.8917L20.2329 1.62109Z" fill="#F3F3F3"/>
<path d="M27.4742 5.6238L28.8868 6.28355L27.3348 6.59772L27.1701 8.18113L26.3846 6.74852L24.8262 7.05013L25.9094 5.90027L25.1936 4.56191L26.5873 5.2091L27.6325 4.12207L27.4742 5.6238Z" fill="#F3F3F3"/>
<path d="M27.6325 4.12207L26.5873 5.2091L25.1936 4.56191L25.9094 5.90027L24.8262 7.05013L26.3846 6.74852L27.1701 8.18113L27.3348 6.59772L28.8868 6.28355L27.4742 5.6238L27.6325 4.12207Z" fill="#F3F3F3"/>
<path d="M32.2323 9.24949L33.3092 10.3742L31.7445 10.1103L31.0033 11.5241L30.8069 9.90296L29.2422 9.62021L30.6739 8.9416L30.4965 7.43359L31.5544 8.54575L32.9291 7.91113L32.2323 9.24949Z" fill="#F3F3F3"/>
<path d="M30.4965 7.43359L30.6739 8.9416L29.2422 9.62021L30.8069 9.90296L31.0033 11.5241L31.7445 10.1103L33.3092 10.3742L32.2323 9.24949L32.9291 7.91113L31.5544 8.54575L30.4965 7.43359Z" fill="#F3F3F3"/>
<path d="M5.69445 24.4925C5.68178 24.4548 5.70079 24.4171 5.7388 24.4046L6.35328 24.2035C6.35328 24.2035 6.41663 24.2161 6.4293 24.2412L6.47998 24.392L6.50532 24.48V24.681L6.41663 24.7439L6.23926 24.8381L6.03654 24.8695H5.90351L5.77681 24.7187L5.75147 24.6308L5.70079 24.48M6.87275 22.8086L6.45464 22.9405L6.2646 23.0034L6.20125 23.0222L6.16957 23.0348L6.07455 23.1667L5.8845 23.2296L5.78948 23.261L5.56776 23.3364L4.93427 23.5438L4.2691 23.7574L4.04104 23.8265L3.94602 23.8579L3.75597 23.9208L3.5976 23.8642L3.56593 23.8768L3.50258 23.8956L3.31253 23.9585L2.90076 24.0904H2.89443C2.82474 24.1155 2.79307 24.1909 2.81207 24.2601L3.12882 25.2151C3.15416 25.278 3.22384 25.3157 3.29352 25.2905L3.70529 25.1586L3.89534 25.0957L3.96503 25.0769L3.98403 25.0329L4.09172 24.9261L4.28177 24.8633L4.34512 24.8444L4.44014 24.813L4.69987 24.7313C4.73155 24.7187 4.76956 24.7313 4.77589 24.7439L4.78856 24.7753L4.83924 25.0392L4.82024 25.1837L4.68087 25.2968L4.49082 25.3596L4.07905 25.4916L3.79398 25.5858L3.42656 25.7429C3.36954 25.7744 3.35054 25.8372 3.36954 25.9L3.48357 26.2456L3.61027 26.6226C3.63561 26.6917 3.70529 26.7294 3.78131 26.7043L4.19308 26.5723L4.38313 26.5095L4.47815 26.4781L4.46548 26.4467L4.60485 26.3336L4.78856 26.2393L5.04196 26.1576L5.29535 26.076L5.4664 25.9503L5.58043 25.7743L5.62477 25.5858L5.81482 25.7366L6.08088 25.7932L6.35328 25.7743L6.71437 25.6927L7.02478 25.5607L7.25918 25.4162L7.44922 25.2465L7.55692 25.0392L7.58859 24.6056L7.4999 24.2161L7.4809 24.1532L7.44922 24.059L7.32253 23.682L7.17682 23.2359L7.06279 22.8903C7.03745 22.8212 6.96143 22.7835 6.87908 22.8086H6.89175H6.87275Z" fill="#F3F3F3"/>
<path d="M5.47305 30.1101L5.25766 29.7331L5.18164 29.2618L5.22598 29.0293L5.34635 28.7905L5.58707 28.5518L5.90382 28.3004L5.98617 28.2439L6.15088 28.1308L6.67668 27.7789L7.17714 27.4459L7.37352 27.314L7.43053 27.2762L7.77895 27.0815L8.0957 26.9495L8.3681 26.9307L8.62783 26.9558L9.00792 27.2197L9.28032 27.559L9.51472 27.9611L9.6034 28.3821L9.52739 28.6335L9.40702 28.8722L9.1853 29.1424L8.86856 29.3937L8.81154 29.4314L8.61516 29.5634L8.1147 29.8964L7.5889 30.2483L7.4242 30.3614L7.34184 30.4179L6.99342 30.6127L6.65767 30.7133L6.38527 30.7321L6.15088 30.6881L5.75812 30.4682L5.46671 30.1038L5.47305 30.1101ZM7.53822 29.0482L8.0957 28.6774L8.2604 28.5643L8.34276 28.5078L7.53822 29.0482ZM8.34276 28.5078L8.39977 28.4701L8.42511 28.4512L8.46312 28.3884V28.3444L8.48213 28.3004V28.2565L8.50113 28.2125L8.46312 28.1559L8.42511 28.0994L8.40611 28.0742L8.36176 28.0617L8.29841 28.024H8.25407L8.20973 28.0051L8.15271 28.0428L8.10203 28.0303L8.04502 28.068L7.96266 28.1245L7.79796 28.2376L7.24048 28.6083L6.65767 28.9979L6.49297 29.111L6.41061 29.1675L6.3536 29.2052V29.2492L6.29025 29.2869L6.27758 29.3309L6.26491 29.3749L6.27758 29.4503V29.4943L6.29025 29.5194L6.32826 29.576L6.36627 29.6325L6.41061 29.6451H6.46129L6.50564 29.6639L6.55632 29.6765L6.63233 29.6639L6.65767 29.6451L6.71469 29.6074L6.79704 29.5508L6.96175 29.4377L7.54456 29.0482" fill="#F3F3F3"/>
<path d="M12.7128 31.2721C12.7635 31.2093 12.7571 31.1213 12.6938 31.0773L12.0603 30.5872C11.997 30.5433 11.9146 30.5495 11.8639 30.6061L11.6169 30.9203L11.4902 31.0773L11.4522 31.1276L11.2431 31.3915L11.0277 31.5612L10.6286 31.7999C10.6286 31.7999 10.5779 31.7999 10.5526 31.7811C10.5273 31.7622 10.5146 31.7371 10.5146 31.7182L10.654 31.2784L10.7933 31.0459L11.0024 30.782L11.0467 30.7318L11.1734 30.5747L11.4205 30.2605C11.4648 30.2039 11.4522 30.1285 11.4015 30.0846L10.7426 29.563H10.73C10.6793 29.5191 10.5969 29.5253 10.5526 29.5819L10.2865 29.9275L10.1662 30.0846L10.1218 30.1348V30.1788L10.0775 30.5181L10.0395 30.6187L10.0268 30.6941L9.97613 30.8637L9.77974 31.3852L9.62771 31.9005L9.57703 32.0701L9.56436 32.1455L9.52001 32.1958L9.41865 32.3277L9.3173 32.4597L9.27295 32.51L9.17159 32.6419L8.98788 32.711L8.96888 32.7362L8.92453 32.7927L8.79783 32.9498L8.53177 33.2891C8.48742 33.3456 8.48109 33.421 8.53177 33.4525L9.43132 34.1499H9.41865C9.46933 34.1813 9.54535 34.1625 9.5897 34.1059L9.85576 33.7666L9.98246 33.6095L10.0268 33.5593L10.0458 33.5341V33.3708L10.1725 33.2137L10.2359 33.1383L10.3435 33.0063L10.4639 32.8493L10.5273 32.7676L10.5969 32.7362L10.7553 32.6482L11.2431 32.3529L11.7119 32.0827L11.8893 31.9633L11.959 31.9319L12.2567 31.8251H12.301L12.339 31.7685L12.4657 31.6114L12.7318 31.2721" fill="#F3F3F3"/>
<path d="M14.6767 33.1571L14.74 33.1822C14.7717 33.1948 14.7907 33.2387 14.7717 33.2827V33.2702L14.4169 34.5268C14.4043 34.5582 14.3663 34.5708 14.3346 34.5582L13.9608 34.4012C13.9608 34.4012 13.9165 34.3446 13.9292 34.3132L14.5943 33.1948C14.5943 33.1948 14.664 33.1508 14.702 33.1633H14.6893L14.6767 33.1571ZM14.2016 32.2334L14.0115 32.5099L13.8088 32.8932L13.321 33.6974L13.1183 34.0807L12.9092 34.3886L12.7762 34.6211L12.7509 34.6839L12.6812 34.7593L12.5608 34.9604L12.4151 35.0421L12.3708 35.0609L12.3454 35.1238L12.2694 35.306L12.0984 35.7018V35.7144C12.0667 35.7772 12.0984 35.8463 12.1617 35.8778H12.1364L13.0613 36.261H13.0486C13.1056 36.2799 13.1753 36.2422 13.207 36.1731L13.378 35.7772L13.454 35.595L13.492 35.5008L13.454 35.3374L13.5174 35.1866L13.5427 35.1238C13.5617 35.0923 13.6061 35.0735 13.6441 35.0923H13.6314L14.0939 35.2808H14.0812C14.0812 35.2808 14.1129 35.3185 14.1002 35.3562L14.0749 35.4191L14.0052 35.5699L13.8911 35.6641L13.8595 35.6516L13.8215 35.7458L13.7454 35.928L13.5744 36.3239V36.3364C13.5427 36.3993 13.5744 36.4684 13.6441 36.4998L14.5373 36.8768C14.607 36.9082 14.683 36.8768 14.7147 36.8077L14.8857 36.4118L14.9617 36.2296L14.9871 36.1668L14.9364 36.1102L14.8984 35.9469L14.9554 35.7207V35.6139L14.9871 35.551L15.0631 35.2934L15.1771 34.9415L15.2848 34.5143L15.5255 33.6095L15.6649 33.201L15.7663 32.8806L15.7473 32.9309C15.7979 32.7549 15.7156 32.5727 15.5572 32.5036L14.569 32.0889C14.4169 32.0323 14.2332 32.1077 14.1382 32.2774L14.1825 32.2145L14.2016 32.2334Z" fill="#F3F3F3"/>
<path d="M18.7309 36.1164L18.7055 36.3174L18.6359 36.6065L18.5598 36.663L18.4205 36.6819L18.3191 36.6693C18.2811 36.6693 18.2621 36.6316 18.2621 36.6002H18.2558L18.2748 36.4305L18.3128 36.1352L18.4015 35.4126L18.4775 34.7843L18.5092 34.5518V34.489L18.5725 34.2942L18.6549 34.1685L18.6929 34.1371V34.0743L18.7245 33.8795L18.7752 33.4522C18.7879 33.3768 18.7372 33.314 18.6612 33.3014L17.5969 33.1695C17.5209 33.1632 17.4512 33.2135 17.4449 33.2826L17.3942 33.7098L17.3689 33.9109L17.3562 33.98V34.0114L17.4386 34.156L17.4132 34.3507L17.4005 34.4513L17.3689 34.6838L17.2865 35.3435L17.2042 36.0347L17.1788 36.2672L17.1662 36.3677L17.1408 36.5625L17.0268 36.6819V36.7133L17.0141 36.7824L16.9888 36.9772L16.9381 37.4045C16.9318 37.4799 16.9761 37.5427 17.0521 37.549L17.2548 37.5741L17.5209 37.6055L18.1861 37.6872L18.8512 37.7689L19.1173 37.8003L19.32 37.8255H19.3074C19.3707 37.8317 19.4277 37.7815 19.4341 37.7061L19.4721 37.3793L19.5227 36.9835L19.5734 36.5562L19.6178 36.2232V36.242C19.6304 36.1729 19.5798 36.1164 19.5101 36.1038H19.5291L18.8639 36.0284H18.8766C18.8069 36.0158 18.7435 36.0661 18.7372 36.1352" fill="#F3F3F3"/>
<path d="M22.3933 36.2742C22.6213 36.2553 22.7987 36.0731 22.7797 35.872L22.7354 35.5013C22.7354 35.4322 22.672 35.3819 22.6023 35.3882L22.0385 35.4385C21.8358 35.4573 21.6838 35.6396 21.7028 35.8406L21.7408 36.2302V36.2113C21.7408 36.2805 21.8041 36.3245 21.8675 36.3245L22.3996 36.2742H22.3933Z" fill="#F3F3F3"/>
<path d="M25.3081 33.3455L25.3714 33.3204C25.4031 33.3078 25.4411 33.333 25.4665 33.3707V33.3581L26.0619 34.5205C26.0746 34.5519 26.0619 34.5896 26.0239 34.6022L25.6438 34.7404H25.6375C25.6375 34.7404 25.5678 34.7342 25.5615 34.6965L25.2701 33.4272C25.2637 33.3958 25.2827 33.3518 25.3271 33.3392H25.3144L25.3081 33.3455ZM24.3262 32.9874L24.3768 33.3204L24.4909 33.7351L24.6873 34.6525L24.8076 35.0735L24.871 35.4379L24.9343 35.7018L24.9597 35.7646V35.8714L25.0103 36.0977L24.9597 36.2547L24.9407 36.2987L24.966 36.3616L25.0357 36.5501L25.1877 36.9585C25.2131 37.0339 25.2827 37.0653 25.3461 37.0402H25.3271L26.271 36.7071H26.2647C26.3217 36.6883 26.347 36.6192 26.3217 36.5501L26.176 36.1479L26.1063 35.9594L26.0746 35.8652L25.9352 35.7709L25.8782 35.6138L25.8529 35.551C25.8402 35.5133 25.8656 35.4756 25.9099 35.463H25.8972L26.366 35.2997H26.3533C26.3533 35.2997 26.4104 35.3122 26.423 35.3499L26.4484 35.4128L26.5054 35.5698L26.4864 35.7206L26.4547 35.7332L26.4864 35.8275L26.5561 36.016L26.7081 36.4181V36.4307C26.7334 36.4935 26.8095 36.5249 26.8791 36.4998L27.7914 36.1731C27.861 36.1479 27.8991 36.0725 27.8737 36.0034L27.728 35.6013L27.6583 35.4128L27.633 35.3499H27.557L27.4176 35.2494L27.3036 35.042L27.2402 34.9604L27.2149 34.8975L27.0882 34.6588L26.9298 34.3257L26.7208 33.9425L26.2773 33.113L26.0936 32.7172L25.9479 32.4156L25.9732 32.4659C25.8909 32.2962 25.7008 32.2208 25.5425 32.2774L24.5352 32.6418H24.5416C24.3832 32.6983 24.3072 32.8806 24.3515 33.0691L24.3388 32.9937L24.3262 32.9874Z" fill="#F3F3F3"/>
<path d="M29.4635 29.7519C29.5268 29.7016 29.6155 29.7079 29.6598 29.7644L29.9196 30.11L30.0399 30.2671L30.078 30.3236V30.3739L30.097 30.5184L30.192 30.7006L30.2553 30.776L30.439 31.0148L30.6988 31.3604L31.0028 31.7563L31.63 32.5794L31.8897 32.925L32.0734 33.1637C32.1178 33.2203 32.1178 33.2957 32.0734 33.3271L31.725 33.5847C31.611 33.6664 31.459 33.6664 31.3386 33.5784L31.0535 33.3711L30.7051 33.1323L29.9449 32.5731C29.9449 32.5731 29.8752 32.5417 29.8562 32.5605L29.7485 32.6359C29.7042 32.6673 29.6979 32.7302 29.7295 32.7742L29.9893 33.1198L30.0716 33.2266L30.1096 33.2768L30.2553 33.4151L30.3884 33.4842H30.4327L30.4707 33.5407L30.5911 33.6978L30.8508 34.0434C30.8952 34.1 30.8825 34.1879 30.8255 34.2319L30.1286 34.7534C30.0653 34.7974 29.9766 34.7786 29.9259 34.7094L29.9386 34.722L29.6725 34.3764L29.5522 34.2193L29.5141 34.1691L29.4951 34.1439V33.9806L29.3748 33.8235L29.3114 33.7418L29.1721 33.5533L28.7476 33.0004L28.3422 32.4663L28.2028 32.2778L28.1395 32.1961L28.0191 32.039L27.8607 31.995L27.8417 31.9699L27.7974 31.9133L27.677 31.7563L27.4173 31.4107C27.3729 31.3541 27.3856 31.2724 27.4426 31.2285L27.8417 30.9269C27.9494 30.8452 28.1015 30.8452 28.2155 30.9269V30.9394L28.5069 31.1468L28.8553 31.3855L29.6345 31.9699C29.6345 31.9699 29.7042 32.0013 29.7232 31.9825L29.8309 31.9008C29.8309 31.9008 29.8562 31.8254 29.8246 31.7814L29.6662 31.5678L29.5458 31.4107L29.4635 31.3039L29.4255 31.2536L29.3051 31.0965L29.1467 31.0525L29.1277 31.0274L29.0897 30.9708L28.9693 30.8138L28.7096 30.4682C28.6653 30.4116 28.6653 30.3362 28.7096 30.3048L29.4571 29.7456" fill="#F3F3F3"/>
<path d="M30.5715 28.7969L30.9326 29.0357L31.0973 29.1488L31.1543 29.1865L31.1796 29.2053H31.3443L31.509 29.3059L31.5914 29.3624L31.7878 29.4944L32.3389 29.8651L32.9217 30.2547L33.1181 30.3866L33.2005 30.4432L33.3652 30.5563L33.4222 30.7133L33.4538 30.7322L33.5109 30.7699L33.6756 30.883L34.0367 31.1218C34.0937 31.1657 34.1697 31.1595 34.195 31.1155L34.7018 30.374C34.7462 30.3112 34.7272 30.2295 34.6638 30.1918L34.3027 29.9531L34.138 29.84L34.081 29.8023H34.0303L33.8656 29.8211L33.7009 29.708L33.6439 29.6703L33.5299 29.5949L33.1688 29.3499C33.1244 29.3184 33.1054 29.2682 33.1308 29.2305H33.1244L33.2005 29.1299C33.2258 29.0922 33.2701 29.0734 33.3145 29.0797L34.214 29.3624L34.6195 29.4755L34.9552 29.5761C35.0946 29.62 35.2403 29.5761 35.3163 29.4567L35.538 29.1299C35.5824 29.0671 35.5634 28.9854 35.5 28.9477L35.253 28.7781L34.8919 28.5393L34.0303 27.9612L33.6122 27.6785L33.2511 27.4397L33.0041 27.2701L32.9217 27.2135L32.757 27.1004L32.7 26.9433L32.6683 26.9245L32.6113 26.8868L32.4466 26.7737L32.0855 26.5349L32.1045 26.5475C32.0348 26.4972 31.9461 26.4972 31.9208 26.5475L31.395 27.3203L31.4077 27.3015C31.3697 27.358 31.3823 27.4334 31.4393 27.4711H31.4457L31.8068 27.7162L31.9715 27.8293L32.0285 27.867L32.0538 27.8858H32.2185L32.3832 27.9864L32.4403 28.0241L32.5543 28.0995L32.719 28.2126L32.9407 28.3634C32.9851 28.3948 33.0041 28.445 32.9851 28.4702L32.909 28.5833C32.909 28.5833 32.852 28.6147 32.814 28.6021L31.8891 28.3005L31.4774 28.1874L31.1479 28.0869H31.1353C31.0022 28.0429 30.8629 28.0869 30.7869 28.2063L30.4891 28.6461C30.4574 28.6901 30.4891 28.7655 30.5461 28.8032" fill="#F3F3F3"/>
<path d="M35.9751 25.3222C35.7977 25.2657 35.6077 25.3411 35.557 25.4919H35.5507L35.3796 26.0008C35.3606 26.0511 35.3986 26.1139 35.462 26.1328H35.4366L36.0701 26.3401L36.3235 26.4281L36.4502 26.4721L36.7163 26.315L36.976 26.0888L37.1471 25.7935L37.2991 25.4605L37.4321 24.8761L37.3054 24.4111L36.938 24.0404L36.3995 23.7514L36.1968 23.72L35.9308 23.6634L35.6774 23.6823L35.424 23.8079L35.0819 24.0781L34.7841 24.4363L34.5941 24.5808L34.442 24.7064H34.3344L34.1443 24.6373L33.9859 24.5871L33.8909 24.5556L33.7769 24.4802L33.7389 24.3986L33.7705 24.3043L33.8466 24.1912L33.9859 24.097L34.119 24.1095L34.2457 24.1535L34.2267 24.1409C34.3914 24.1975 34.5751 24.1032 34.6384 23.9336L34.6258 23.965L34.8031 23.4623C34.8221 23.3932 34.7905 23.3241 34.7271 23.299H34.7144L34.1443 23.0979L33.8909 23.0099L33.7959 22.9785L33.7832 23.0099L33.4728 23.1859L33.2447 23.4246L33.042 23.7074L32.9217 24.053L32.8203 24.5431L32.89 24.9515L33.023 25.1714L33.2004 25.3725L33.4411 25.4919L33.7199 25.6175L33.8149 25.649L34.3153 25.7495L34.6954 25.6678L35.0249 25.429L35.3226 25.0772L35.3353 25.0457L35.5887 24.8195L35.9308 24.763L36.1968 24.8195L36.2918 24.851L36.3235 24.8635L36.4375 24.9389L36.5009 25.0646L36.4312 25.2531L36.3552 25.3662L36.2728 25.4039L36.1461 25.3599L35.9117 25.3159" fill="#F3F3F3"/>
</g>
<defs>
<clipPath id="clip0_1044_1835">
<rect width="180" height="40" fill="white"/>
</clipPath>
</defs>
</svg>
