<svg width="350" height="100" viewBox="0 0 350 100" fill="none" xmlns="http://www.w3.org/2000/svg">
<g clip-path="url(#clip0_183_267)">
<path d="M56.2988 0V8.59858H54.4291C54.3889 7.99029 54.3488 7.38907 54.311 6.802C52.3186 6.30688 51.5419 6.50964 51.2161 7.6272H44.3393V0.653086H51.2893C51.3459 1.00203 51.4002 1.33682 51.464 1.72585H54.2756C54.3228 1.13406 54.3653 0.568209 54.4102 0H56.2988ZM46.3813 2.3695V5.83769H49.2095V2.3695H46.3813ZM54.311 3.60494H51.3743C51.4002 4.05998 51.4215 4.42778 51.4451 4.80973H54.311V3.60494Z" fill="#BFA38A"/>
<path d="M42.1438 0V8.85557H40.2411V5.14453C39.7926 5.11152 39.4597 5.08558 38.9805 5.05022V8.20012H37.0352V0.282925H38.9238V3.27015C39.3794 3.29137 39.7123 3.30551 40.2576 3.33145V0H42.1462H42.1438Z" fill="#BFA38A"/>
<path d="M27.5167 0V8.64102H25.4416V4.52209H22.5851V2.74438H25.3944V0H27.5167Z" fill="#BFA38A"/>
<path d="M12.1814 0C12.2333 1.08455 12.2852 2.16674 12.3443 3.37153C13.1068 3.42104 13.8622 3.46819 14.6601 3.52006V5.10209H12.3159V8.59622H10.2928V0H12.1814Z" fill="#BFA38A"/>
<path d="M266.562 41.3143C269.327 38.7538 272.129 36.2311 274.844 33.6211C278.071 30.5207 281.003 27.0761 284.445 24.2468C304.537 7.73104 334.412 14.5 345.781 38.0795C355.77 58.7944 347.672 84.9414 325.191 94.7235C310.29 101.207 292.783 97.7131 281.34 86.0849C276.796 81.4661 272.282 76.8167 267.761 72.172C267.49 71.8938 267.287 71.5472 267.195 71.7052C264.442 74.2728 261.652 76.8049 258.947 79.422C256.775 81.5251 254.718 83.746 252.587 85.8892C233.625 104.93 202.591 100.792 189.251 77.4509C177.107 56.2009 185.646 28.8868 207.598 18.7651C222.577 11.8594 240.264 14.9786 252.079 26.6941C256.763 31.3388 261.321 36.1108 265.93 40.8333C266.225 41.1375 266.451 41.5076 266.711 41.8448C266.661 41.6679 266.612 41.4888 266.562 41.3119V41.3143ZM252.509 56.5097C247.27 51.2002 242.308 45.834 236.973 40.8663C232.365 36.5753 226.63 35.1701 220.429 36.382C209.744 38.4732 202.726 48.4252 204.31 59.4286C205.474 67.5085 209.987 73.2731 217.756 75.9491C225.464 78.6039 232.393 76.7672 238.241 71.0922C240.297 69.0976 242.259 67.0086 244.26 64.9574C246.973 62.1824 249.681 59.405 252.506 56.5074L252.509 56.5097ZM281.255 56.5522C286.338 61.7321 291.196 66.919 296.322 71.8302C300.873 76.1943 306.503 77.7952 312.741 76.8049C324.011 75.0131 331.487 64.144 329.249 52.6077C327.731 44.7872 323.104 39.322 315.427 36.9384C307.823 34.5783 301.086 36.514 295.408 42.0617C293.781 43.6531 292.221 45.313 290.632 46.9422C287.54 50.1109 284.447 53.282 281.255 56.5522Z" fill="#BFA38A"/>
<path d="M159.012 30.567C154.019 33.1604 149.236 35.6455 144.283 38.2201V32.4979C144.283 29.124 144.3 25.7525 144.269 22.3786C144.262 21.6807 144.423 21.2516 145.088 20.8933C149.347 18.6157 153.578 16.2839 157.822 13.9828C158.122 13.8201 158.476 13.6598 158.807 13.6598C163.953 13.6386 169.099 13.6457 174.347 13.6457V99.3414H158.349C158.57 76.4645 158.79 53.6325 159.014 30.567H159.012Z" fill="#BFA38A"/>
<path d="M134.507 59.4856C134.529 65.5685 131.188 70.1943 126.287 71.3307C119.599 72.8821 113.466 68.3529 112.928 61.4496C112.619 57.4745 113.452 53.8318 116.502 51.0473C122.609 45.4737 132.317 48.6661 134.13 56.8072C134.359 57.8352 134.427 58.8962 134.507 59.4832V59.4856ZM130.029 59.9218C129.906 59.1532 129.85 58.3657 129.649 57.6183C128.891 54.7678 126.585 52.9076 123.818 52.8533C120.971 52.7968 118.672 54.4472 117.822 57.3566C117.501 58.4576 117.378 59.6742 117.442 60.8224C117.685 65.196 121.561 68.0464 125.499 66.8417C128.193 66.0165 129.951 63.2909 130.027 59.9265V59.9218H130.029Z" fill="#BFA38A"/>
<path d="M95.7844 48.9164H110.539V53.1839H100.286V57.6234H109.651V62.0371H100.296V66.7195H110.766V71.0035H95.7868V48.9141L95.7844 48.9164Z" fill="#BFA38A"/>
<path d="M92.9751 56.6882H88.5346C87.189 53.741 84.9061 52.4655 81.9576 52.9983C79.1837 53.5005 77.0638 56.0351 76.8395 59.1307C76.6861 61.2362 77.0803 63.2025 78.4731 64.8576C81.5539 68.5168 87.2905 67.3544 88.7305 62.9573H93.1522C92.876 65.4093 91.7594 67.3403 90.0289 68.9035C87.0355 71.6054 83.5133 72.2891 79.7173 71.1056C75.7654 69.8725 73.4566 66.9749 72.635 63.0257C71.6978 58.5177 72.4486 54.3375 75.9354 51.0108C81.4052 45.7908 90.697 48.2971 92.7414 55.5164C92.8453 55.8795 92.8901 56.2567 92.9751 56.6905V56.6882Z" fill="#BFA38A"/>
<path d="M34.6981 59.7081V55.3298H36.9337V48.377H40.7439V70.9898H36.9856V68.6085C35.9138 69.1531 34.9979 69.6176 33.945 70.1504C33.1187 68.3114 32.2972 66.4747 31.4072 64.4943C30.1867 67.2457 29.0512 69.9618 25.4369 70.4074C25.4369 68.9032 25.4322 67.4768 25.4464 66.0504C25.4464 65.916 25.5313 65.725 25.6376 65.6613C27.5073 64.532 27.9157 62.5704 28.1754 60.7054C28.6522 57.3009 28.8576 53.8563 29.1621 50.4282C29.2094 49.893 29.1692 49.3507 29.1692 48.7778H33.1211C33.1211 50.0533 33.1683 51.251 33.1093 52.4464C33.029 54.0897 32.8638 55.7283 32.7434 57.3693C32.7245 57.6404 32.6608 57.954 32.7646 58.1827C34.0678 61.0049 35.3992 63.8152 36.8983 66.5714V59.8142C36.2137 59.7836 35.5267 59.7506 34.7004 59.7128V59.7081H34.6981Z" fill="#BFA38A"/>
<path d="M13.3192 31.9702C13.331 29.2801 13.6379 26.6465 14.9127 24.2181C16.1993 21.7637 18.1965 20.3043 21.0176 20.3066C23.7938 20.309 25.7863 21.7425 27.0422 24.1568C28.6546 27.2595 28.952 30.624 28.553 34.0073C28.3264 35.9218 27.8354 37.8692 27.0823 39.6422C25.9846 42.2263 23.8717 43.6669 20.9704 43.6598C18.01 43.6527 16.0364 42.0683 14.7782 39.522C13.6049 37.1478 13.3003 34.5849 13.3192 31.9702ZM17.3726 31.9278C17.696 33.623 17.9156 35.3323 18.3665 36.978C18.7112 38.2394 19.5398 39.2792 21.0152 39.2744C22.4364 39.2744 23.2107 38.2441 23.6097 37.0464C24.7334 33.6772 24.7523 30.268 23.5908 26.9035C23.18 25.7129 22.4293 24.7156 20.9751 24.7297C19.5232 24.7415 18.7466 25.7506 18.3972 26.9436C17.9297 28.5421 17.7149 30.2161 17.375 31.9278H17.3726Z" fill="#BFA38A"/>
<path d="M30.5526 33.105C30.5573 29.4199 30.8453 26.8594 32.0068 24.4782C33.9072 20.5832 38.0668 19.1615 41.5631 21.2033C43.048 22.0709 44.0796 23.3747 44.658 24.9473C46.4333 29.7712 46.497 34.6352 44.4833 39.3954C43.133 42.5877 40.3473 44.0613 37.0942 43.5662C34.8137 43.2196 33.2816 41.838 32.2075 39.8834C31.0861 37.8417 30.5644 35.3189 30.5526 33.1074V33.105ZM41.8983 32.0606C41.5111 30.2522 41.2255 28.4391 40.7156 26.6921C40.3827 25.558 39.5446 24.7234 38.2132 24.7257C36.929 24.7257 36.1641 25.5509 35.7651 26.619C34.4478 30.1602 34.4219 33.744 35.7344 37.297C36.1546 38.4311 36.9549 39.2893 38.2533 39.2799C39.5517 39.2704 40.3992 38.4052 40.7368 37.2617C41.2278 35.5877 41.5111 33.8548 41.9007 32.0606H41.8983Z" fill="#BFA38A"/>
<path d="M65.9919 48.2891H69.8801V71.3498H66.0392V61.2353H64.3465V70.9679H60.541V48.3551H64.2922V56.6589H65.9919V48.2891Z" fill="#BFA38A"/>
<path d="M38.9143 80.3101H35.1655C34.5824 81.2343 34.8208 81.8214 35.7698 82.3613C37.2996 83.2313 38.7538 84.2263 40.3331 85.2283C39.6509 86.3883 39.0088 87.4823 38.3147 88.6588C36.5253 87.4776 34.8326 86.36 33.0621 85.1906C31.1853 87.3102 28.9662 88.7861 25.9374 88.8403V84.8629C28.4492 84.4102 30.0639 82.9413 30.7084 80.2724H26.2112V76.5354H39.5069V79.6688H41.6339V76.2266H45.7888V89.1586H41.6787V83.7712H38.912V80.3078H38.9143V80.3101Z" fill="#BFA38A"/>
<path d="M16.9265 67.3103C15.9137 68.343 14.96 69.3167 13.867 70.4319C12.4553 68.4656 11.1002 66.577 9.76402 64.7145C8.71821 66.023 7.77628 67.3975 6.63604 68.5787C5.45568 69.8 3.88815 70.3329 2.10107 70.3918V65.8721C4.31072 65.3416 5.45332 63.7124 6.05058 61.7414C6.66673 59.7043 7.02084 57.5871 7.53312 55.3072H2.57794V50.9761H7.23567V48.2246H11.5322V50.9313H15.9657V55.2907H11.57C11.4213 56.6369 11.2371 57.87 11.1757 59.1102C11.1568 59.478 11.4165 59.9094 11.655 60.2348C13.3925 62.5996 15.1583 64.9455 16.9241 67.3126L16.9265 67.3103Z" fill="#BFA38A"/>
<path d="M111.361 28.3684C110.749 28.3684 110.355 28.4085 109.972 28.3613C108.868 28.2246 108.185 28.5311 107.55 29.6062C106.051 32.1455 101.87 33.032 98.622 31.7116C95.919 30.6153 94.5687 27.9393 95.2179 24.8719C95.7278 22.4623 97.3213 21.01 99.6513 20.5314C103.025 19.8382 106.089 20.2532 108.011 23.6341C108.126 23.8369 108.509 23.976 108.776 23.9925C109.555 24.0396 110.338 24.009 111.266 24.009V20.3215H115.438V32.1997H111.363V28.366L111.361 28.3684ZM101.781 28.5169C103.318 28.5264 104.394 27.5951 104.387 26.2653C104.38 24.9426 103.282 23.9972 101.771 24.0137C100.289 24.0279 99.2736 24.9144 99.2405 26.2182C99.2075 27.5833 100.23 28.5099 101.781 28.5193V28.5169Z" fill="#BFA38A"/>
<path d="M97.0757 33.1133H101.035C101.089 33.5872 101.139 34.0328 101.198 34.5397H111.311C111.363 34.0682 111.41 33.6485 111.467 33.1534H115.478V43.4141H97.0734V33.1133H97.0757ZM101.179 39.7219H111.32V38.2484H101.179V39.7219Z" fill="#BFA38A"/>
<path d="M72.4344 42.3238V38.1884C72.5855 38.1153 72.687 38.028 72.7956 38.0186C76.9882 37.6414 78.9949 34.9583 79.7503 31.1883C80.1445 29.222 80.1327 27.1731 80.3169 25.03H72.4722V20.8262H84.4836C84.4104 25.8269 85.0195 30.8252 82.8901 35.5548C80.9165 39.9378 76.8254 42.6303 72.4344 42.3261V42.3238Z" fill="#BFA38A"/>
<path d="M36.4497 99.9993C34.2259 99.5467 32.0092 99.2449 29.8869 98.6177C28.1683 98.1108 27.0399 96.8424 26.9289 94.9114C26.8132 92.8979 27.7032 91.4739 29.7216 90.6039C32.5829 89.3684 35.6117 89.2977 38.6381 89.5806C40.1443 89.7221 41.6646 90.0616 43.0999 90.5473C44.9696 91.1815 46.1051 92.5749 46.0957 94.6167C46.0863 96.6632 44.9271 98.0872 43.0433 98.6366C40.9186 99.2567 38.6995 99.549 36.4521 99.9993H36.4497ZM36.4568 96.1869C37.8048 95.9747 39.2 95.8073 40.5645 95.5008C40.9281 95.4183 41.4309 94.9161 41.4403 94.5955C41.4498 94.296 40.9375 93.8033 40.5669 93.6972C37.8803 92.9333 35.1608 92.9427 32.4743 93.6807C32.08 93.7891 31.8038 94.3196 31.4733 94.6544C31.8015 94.9538 32.0847 95.4372 32.4625 95.522C33.7514 95.8144 35.0711 95.9677 36.4592 96.1869H36.4568Z" fill="#BFA38A"/>
<path d="M58.5745 48.7891V52.8019H53.532V66.4578C55.5551 66.2126 57.5122 65.9768 59.5613 65.7292C59.5613 66.7784 59.6392 67.8795 59.5164 68.9569C59.4763 69.2964 58.9262 69.7868 58.5556 69.8411C56.8158 70.0933 55.0594 70.2631 53.303 70.3739C52.0589 70.4517 50.8053 70.3881 49.488 70.3881V48.7891H58.5745Z" fill="#BFA38A"/>
<path d="M9.40515 43.078H5.01183V25.2584H1.52502V20.998H9.40515V43.078Z" fill="#BFA38A"/>
<path d="M64.2757 30.1252H58.0292V26.4825C59.736 26.4825 61.4192 26.5179 63.0977 26.4566C63.4943 26.4424 64.1813 26.1524 64.2167 25.9119C64.3442 25.0608 63.5816 25.3296 63.1449 25.3225C61.4617 25.2918 59.7809 25.3107 58.0245 25.3107V21.7011H64.1954C64.2521 21.1824 64.2922 20.8028 64.3442 20.3359H68.3078V37.4553H64.2757V30.1275V30.1252Z" fill="#BFA38A"/>
<path d="M17.5591 99.362V76.2305H21.6786V84.3363C22.486 84.374 23.1824 84.4047 23.9874 84.4424V88.8985C23.2296 88.9338 22.5049 88.9692 21.681 89.0093V99.3667H17.5568V99.362H17.5591Z" fill="#BFA38A"/>
<path d="M21.5677 56.6906H23.9921V61.215H21.6526V71.3508H17.4694V48.3184H21.5677V56.693V56.6906Z" fill="#BFA38A"/>
<path d="M8.81972 94.1523C11.4519 93.8977 13.8811 93.6619 16.3859 93.4191C16.3859 94.4517 16.4355 95.6636 16.3505 96.866C16.3292 97.1631 15.909 97.6063 15.5974 97.6794C14.4217 97.9647 13.2201 98.2736 12.0209 98.3042C8.72765 98.3868 5.43207 98.3325 2.02789 98.3325V93.9731H4.5468V85.6504H8.82208V94.1499L8.81972 94.1523Z" fill="#BFA38A"/>
<path d="M62.3493 34.6682C57.8144 35.5359 53.2558 34.9134 48.6382 35.1492V20.4395H52.7718V31.1199H62.3493V34.6682Z" fill="#BFA38A"/>
<path d="M91.7877 43.4573H87.7485V20.3281H91.7877V43.4573Z" fill="#BFA38A"/>
<path d="M14.9576 76.9336V91.3086H10.7933V81.1751H2.6228V76.9336H14.96H14.9576Z" fill="#BFA38A"/>
<path d="M49.7076 43.4625V36.4766H53.8861V39.32H68.5746V43.4625H49.7076Z" fill="#BFA38A"/>
<path d="M46.3176 71.3769H42.5026V48.2949H46.3176V71.3769Z" fill="#BFA38A"/>
<path d="M3.60486 15.4626V9.31836H12.1767V15.4626H3.60486ZM10.1512 13.7556V11.0819H5.67286V13.7556H10.1512Z" fill="#BFA38A"/>
<path d="M23.1045 15.9901C20.7225 15.9713 19.0346 14.4175 19.0912 12.2956C19.1455 10.2562 20.8854 8.75195 23.1729 8.76374C25.5313 8.77553 27.2783 10.3387 27.2546 12.4206C27.231 14.5118 25.4912 16.0113 23.1045 15.9901ZM25.189 12.4182C25.2055 11.3454 24.3934 10.5627 23.2272 10.525C22.0067 10.4872 21.1238 11.2794 21.1403 12.4017C21.1545 13.4768 21.9949 14.2454 23.1564 14.2431C24.325 14.2431 25.1725 13.4792 25.189 12.4182Z" fill="#BFA38A"/>
<path d="M52.0117 8.52962C54.3724 8.50369 56.1312 10.0291 56.1453 12.1157C56.1619 14.2494 54.4952 15.7348 52.0778 15.7419C49.7171 15.7489 48.0575 14.3202 48.0102 12.2407C47.963 10.1258 49.6533 8.55556 52.0117 8.52962ZM52.1557 10.3003C50.9564 10.2555 50.1184 10.951 50.0641 12.0355C50.0098 13.1342 50.777 13.9453 51.9338 14.0113C53.1189 14.0773 54.0868 13.2781 54.1222 12.2006C54.1552 11.1632 53.3054 10.3403 52.1557 10.2979V10.3003Z" fill="#BFA38A"/>
<path d="M38.3714 8.79102C39.056 9.07866 40.0971 9.30264 40.8737 9.88028C42.7694 11.2949 42.42 14.1831 40.2977 15.2629C39.0583 15.8924 37.7481 15.9915 36.4049 15.5907C34.6981 15.0814 33.7113 13.8672 33.7396 12.2946C33.7656 10.7927 34.7665 9.58556 36.4214 9.12345C36.9455 8.97727 37.4979 8.93484 38.3737 8.79102H38.3714ZM37.9724 10.6017C36.7401 10.5805 35.8454 11.269 35.8029 12.2686C35.7604 13.2777 36.6197 14.0464 37.8331 14.0841C39.0395 14.1218 39.9531 13.4145 39.9956 12.4077C40.038 11.3798 39.1929 10.6253 37.9724 10.6041V10.6017Z" fill="#BFA38A"/>
<path d="M18.0006 0.423828H20.359C19.9624 3.22479 20.9633 5.38917 23.7537 6.70713C23.3429 7.27062 22.9912 7.7516 22.4765 8.45655C21.3457 7.45924 20.2858 6.52087 19.2659 5.62023C18.2555 6.62225 17.1413 7.72566 15.9704 8.88801C15.4274 8.24672 15.052 7.80347 14.5634 7.23054C17.0256 5.63673 18.6215 3.58788 17.9982 0.423828H18.0006Z" fill="#BFA38A"/>
<path d="M9.20686 6.52202C8.75596 7.10437 8.40421 7.55941 7.9061 8.20542C6.76822 7.18689 5.70825 6.23437 4.98587 5.59072C3.96367 6.61868 2.87537 7.71737 1.68792 8.91273C0.885275 8.02388 0.476868 7.57355 0 7.04543C2.44336 5.50584 3.9141 3.47585 3.49389 0.429688H5.75075C5.41552 3.23065 6.66671 5.18991 9.20686 6.52202Z" fill="#BFA38A"/>
<path d="M28.8954 7.28311C31.2797 5.65865 32.132 3.43061 31.7802 0.636719H33.919C33.6995 3.14297 34.2188 5.43231 36.6646 6.90588C36.2562 7.45522 35.9138 7.91498 35.3945 8.6105C34.4832 7.73815 33.6593 6.94831 32.8449 6.16791C32.1532 6.92709 31.3033 7.86075 30.3331 8.92408C29.8184 8.33465 29.4195 7.87961 28.8977 7.28075L28.8954 7.28311Z" fill="#BFA38A"/>
</g>
<defs>
<clipPath id="clip0_183_267">
<rect width="350" height="100" fill="white"/>
</clipPath>
</defs>
</svg>
